<svg width="35" height="45" viewBox="0 0 35 45" fill="none" xmlns="http://www.w3.org/2000/svg">
<rect x="12" y="19.9901" width="11" height="24" rx="5.5" stroke="black" stroke-width="2"/>
<rect x="23" y="28.9901" width="11" height="15" rx="5" stroke="black" stroke-width="2"/>
<rect x="1" y="28.9901" width="11" height="15" rx="5" stroke="black" stroke-width="2"/>
<path d="M19.7441 1.19814C21.8638 0.5858 24.2169 1.3533 24.8418 3.59951C25.1245 4.61605 25.0075 5.75318 24.6602 6.83096C24.3093 7.9195 23.7018 9.0196 22.9062 10.0028C22.2059 10.8683 21.3122 11.8226 20.415 12.5712C19.9669 12.9451 19.4962 13.2862 19.0312 13.538C18.5831 13.7806 18.0501 13.9901 17.5 13.9901C16.9499 13.9901 16.4169 13.7806 15.9688 13.538C15.5038 13.2863 15.033 12.9451 14.585 12.5712C13.6881 11.8227 12.7951 10.8683 12.0947 10.0028C11.2993 9.01976 10.6909 7.92095 10.3398 6.83291C9.99231 5.75563 9.87552 4.61911 10.1582 3.60244L10.2217 3.39639C10.9292 1.31012 13.2007 0.604412 15.2559 1.19814C15.8836 1.37963 16.3954 1.70982 16.8027 2.07607H16.8037L16.8223 2.09268L16.8232 2.09365C17.0777 2.32503 17.2594 2.49053 17.3896 2.60537C17.4356 2.64588 17.4718 2.67625 17.499 2.69912C17.5263 2.67618 17.563 2.64621 17.6094 2.60537C17.7399 2.49041 17.9218 2.32442 18.1768 2.09268C18.5874 1.71951 19.1063 1.38253 19.7441 1.19814Z" stroke="black" stroke-width="2" stroke-linejoin="round"/>
</svg>
