<svg width="56" height="46" viewBox="0 0 56 46" fill="none" xmlns="http://www.w3.org/2000/svg">
<rect x="12.9599" y="15.8436" width="3.39949" height="6" rx="1.69974" fill="black"/>
<path d="M23.3594 17.5433C23.3594 16.6046 24.1204 15.8436 25.0592 15.8436C25.9979 15.8436 26.7589 16.6046 26.7589 17.5433V20.1438C26.7589 21.0826 25.9979 21.8436 25.0592 21.8436C24.1204 21.8436 23.3594 21.0826 23.3594 20.1438V17.5433Z" fill="black"/>
<path d="M33.0498 0.102121C34.3278 -0.126659 36.0961 -0.073114 37.2988 1.357L37.4131 1.49958L37.665 1.85212C38.8631 3.64921 39.182 5.98959 39.2461 7.81892C39.3175 9.86011 39.0812 11.7399 38.9472 12.6187C39.1191 13.1154 39.3762 13.9444 39.6006 14.9967C39.0966 15.4557 38.6616 16.0077 38.3232 16.6441L37.9551 17.3355C37.7828 15.7447 37.4253 14.4084 37.164 13.5943L37.0566 13.2691C36.9657 13.0065 36.9304 12.8101 36.9424 12.5738L36.9697 12.3199C37.2196 10.6813 37.8405 5.34462 35.8262 2.71638C33.7319 -0.0153553 26.1732 5.81208 24.1396 7.29646L24.0488 7.357C23.6441 7.60807 23.0791 7.69443 22.4961 7.69489L22.2265 7.69001C20.7679 7.63015 20.0362 7.59936 19.9717 7.59821C19.937 7.59765 19.9097 7.5977 19.8896 7.59724C19.8696 7.5977 19.8423 7.59765 19.8076 7.59821C19.7442 7.59931 19.0125 7.6301 17.5527 7.69001L17.2832 7.69489C16.7002 7.69442 16.1352 7.60806 15.7305 7.357L15.6406 7.29646C13.6077 5.81261 6.41696 -0.0146461 4.32225 2.71638C2.3076 5.34451 2.92781 10.6812 3.17772 12.3199C3.23355 12.6862 3.21307 12.919 3.09178 13.2691C2.02279 16.355 -2.48715 31.9321 19.8896 31.9322C24.9076 31.9322 28.5908 31.1462 31.2754 29.8961L29.8388 32.5982C27.162 33.4552 23.8821 33.9322 19.8896 33.9322C14.0838 33.9322 9.80114 32.925 6.70115 31.1978C3.55549 29.4449 1.74158 27.011 0.816388 24.4332C-0.968868 19.4582 0.649323 14.2126 1.20115 12.6187C1.06723 11.7399 0.830847 9.86018 0.902325 7.81892C0.970708 5.8674 1.3279 3.33432 2.73436 1.49958L2.84861 1.35798C4.04052 -0.0614717 5.77378 -0.132897 7.05272 0.104074C8.37961 0.350034 9.76778 0.998119 10.9844 1.6822C13.3878 3.03372 15.8037 4.93375 16.7656 5.64118C16.7829 5.64631 16.812 5.65581 16.8555 5.66364C16.9965 5.68897 17.2032 5.70194 17.4707 5.69099C18.6198 5.64383 19.3484 5.61488 19.6396 5.60407C19.6443 5.60363 19.6494 5.60346 19.6533 5.6031C19.6783 5.60076 19.6992 5.59903 19.7119 5.59821C19.7255 5.59734 19.7376 5.59667 19.7461 5.59626C19.7623 5.5955 19.7763 5.59555 19.7851 5.59528C19.8027 5.59475 19.8189 5.59446 19.8291 5.59431C19.8502 5.594 19.872 5.59333 19.8896 5.59333C19.9073 5.59334 19.9291 5.59401 19.9502 5.59431C19.9604 5.59446 19.9765 5.59475 19.9941 5.59528C20.0031 5.59554 20.0177 5.59547 20.0342 5.59626C20.0427 5.59667 20.055 5.59735 20.0683 5.59821L20.1387 5.60407C20.4292 5.61484 21.1578 5.64376 22.3086 5.69099C22.5762 5.70195 22.7828 5.689 22.9238 5.66364C22.9672 5.65581 22.9964 5.64628 23.0137 5.64118C24.0173 4.90589 26.5004 3.02261 29.0078 1.66657C30.2707 0.983594 31.6994 0.343982 33.0498 0.102121Z" fill="black"/>
<path d="M40.9356 13.7359C41.9026 12.0609 44.0444 11.487 45.7194 12.4541C47.3944 13.4211 47.9683 15.5629 47.0013 17.2379L35.8006 36.6379C35.3806 37.3655 35.1705 37.7293 34.9151 38.0571C34.6883 38.3482 34.4352 38.6178 34.1588 38.8623C33.8477 39.1377 33.4977 39.3701 32.7979 39.835L30.9512 41.0614C30.117 41.6153 29.7 41.8923 29.3603 41.8685C29.0646 41.8477 28.7933 41.6968 28.6197 41.4564C28.4204 41.1804 28.4358 40.68 28.4668 39.6791L28.5341 37.4996C28.5619 36.6003 28.5758 36.1507 28.6548 35.7136C28.7249 35.3254 28.8331 34.945 28.9779 34.5781C29.1409 34.1648 29.3659 33.7753 29.8157 32.9961L40.9356 13.7359Z" stroke="black" stroke-width="2"/>
<path d="M28.6874 34.5739L34.9001 38.0864" stroke="black" stroke-width="2"/>
</svg>
