<svg width="31" height="47" viewBox="0 0 31 47" fill="none" xmlns="http://www.w3.org/2000/svg">
<mask id="path-1-outside-1_9_200" maskUnits="userSpaceOnUse" x="-0.0657043" y="0" width="31" height="46" fill="black">
<rect fill="white" x="-0.0657043" width="31" height="46"/>
<path d="M15.4568 2C17.3697 2.0001 19.6789 4.39492 20.9971 5.95467C21.2941 6.30611 21.8034 6.43305 22.1358 6.11492C23.3828 4.92157 23.5272 2.61615 25.4841 3.7168C28.6155 5.47804 28.6841 10.5211 26.0417 14.9795C23.9582 18.4947 21.0384 20.272 18.3233 20.0321C17.6323 19.971 16.9343 20.4567 16.9343 21.1504V41C16.9343 42.3128 16.0908 43.4287 14.9163 43.8355C14.3944 44.0163 13.9343 43.5522 13.9343 42.9999V21.1605C13.9343 20.4438 13.1904 19.9536 12.4791 20.0417C9.7288 20.3823 6.76184 18.5786 4.62863 14.9795C1.98638 10.5212 2.51615 5.47825 5.64719 3.7168C7.25571 2.81194 7.70602 4.92237 9.07969 6.10855C9.43788 6.41785 9.95924 6.29125 10.2538 5.92082C11.5134 4.33658 13.5514 2 15.4568 2Z"/>
</mask>
<path d="M15.4568 2C17.3697 2.0001 19.6789 4.39492 20.9971 5.95467C21.2941 6.30611 21.8034 6.43305 22.1358 6.11492C23.3828 4.92157 23.5272 2.61615 25.4841 3.7168C28.6155 5.47804 28.6841 10.5211 26.0417 14.9795C23.9582 18.4947 21.0384 20.272 18.3233 20.0321C17.6323 19.971 16.9343 20.4567 16.9343 21.1504V41C16.9343 42.3128 16.0908 43.4287 14.9163 43.8355C14.3944 44.0163 13.9343 43.5522 13.9343 42.9999V21.1605C13.9343 20.4438 13.1904 19.9536 12.4791 20.0417C9.7288 20.3823 6.76184 18.5786 4.62863 14.9795C1.98638 10.5212 2.51615 5.47825 5.64719 3.7168C7.25571 2.81194 7.70602 4.92237 9.07969 6.10855C9.43788 6.41785 9.95924 6.29125 10.2538 5.92082C11.5134 4.33658 13.5514 2 15.4568 2Z" fill="white"/>
<path d="M15.4568 2L15.4569 0H15.4568V2ZM25.4841 3.7168L26.4646 1.97361L26.4645 1.97359L25.4841 3.7168ZM26.0417 14.9795L27.7622 15.9992L27.7622 15.9992L26.0417 14.9795ZM4.62863 14.9795L2.9081 15.9992L2.90813 15.9992L4.62863 14.9795ZM5.64719 3.7168L4.66661 1.97367L4.66656 1.9737L5.64719 3.7168ZM10.2538 5.92082L8.6883 4.67611L10.2538 5.92082ZM12.4791 20.0417L12.2333 18.0568L12.4791 20.0417ZM18.3233 20.0321L18.1473 22.0243L18.3233 20.0321ZM14.9163 43.8355L14.2617 41.9456L14.9163 43.8355ZM20.9971 5.95467L19.4695 7.24562L20.9971 5.95467ZM22.1358 6.11492L20.753 4.66997L22.1358 6.11492ZM15.4568 2L15.4567 4C15.6798 4.00001 16.2678 4.1997 17.1922 4.94743C18.0308 5.62577 18.8438 6.50525 19.4695 7.24562L20.9971 5.95467L22.5246 4.66373C21.8322 3.84435 20.8316 2.74653 19.7078 1.8375C18.6698 0.997864 17.1466 8.7738e-05 15.4569 0L15.4568 2ZM22.1358 6.11492L23.5186 7.55986C24.0331 7.06754 24.3879 6.50694 24.6261 6.10897C24.9182 5.62087 25.0103 5.4354 25.1495 5.24794C25.265 5.09236 25.1599 5.3052 24.8132 5.3952C24.4332 5.49383 24.262 5.32408 24.5037 5.46L25.4841 3.7168L26.4645 1.97359C25.7277 1.55919 24.8046 1.26487 23.8082 1.5235C22.8451 1.77351 22.2591 2.43091 21.938 2.86328C21.6406 3.26376 21.3405 3.80961 21.1937 4.05501C20.9929 4.39054 20.8621 4.56561 20.753 4.66997L22.1358 6.11492ZM25.4841 3.7168L24.5036 5.45999C25.279 5.89606 25.8687 6.82833 25.9295 8.41345C25.9905 10.0001 25.4833 11.9989 24.3212 13.9598L26.0417 14.9795L27.7622 15.9992C29.2425 13.5016 30.0222 10.7497 29.9266 8.25995C29.8309 5.76864 28.8206 3.29877 26.4646 1.97361L25.4841 3.7168ZM26.0417 14.9795L24.3212 13.9598C22.4627 17.0955 20.1674 18.1872 18.4994 18.0398L18.3233 20.0321L18.1473 22.0243C21.9094 22.3567 25.4538 19.894 27.7622 15.9992L26.0417 14.9795ZM16.9343 21.1504H14.9343V41H16.9343H18.9343V21.1504H16.9343ZM16.9343 41H14.9343C14.9343 41.4343 14.656 41.8091 14.2617 41.9456L14.9163 43.8355L15.5708 45.7254C17.5256 45.0484 18.9343 43.1914 18.9343 41H16.9343ZM13.9343 42.9999H15.9343V21.1605H13.9343H11.9343V42.9999H13.9343ZM12.4791 20.0417L12.2333 18.0568C10.5881 18.2606 8.269 17.1989 6.34913 13.9597L4.62863 14.9795L2.90813 15.9992C5.25467 19.9583 8.86951 22.504 12.7249 22.0265L12.4791 20.0417ZM4.62863 14.9795L6.34916 13.9598C5.21827 12.0517 4.81494 10.0954 4.96397 8.52591C5.11363 6.94977 5.78171 5.93589 6.62781 5.45989L5.64719 3.7168L4.66656 1.9737C2.38162 3.25916 1.2193 5.6475 0.981881 8.14779C0.743832 10.6547 1.39674 13.4491 2.9081 15.9992L4.62863 14.9795ZM5.64719 3.7168L6.62776 5.45992C6.68314 5.42876 6.44307 5.56494 6.08108 5.45362C5.82494 5.37485 5.77047 5.24168 5.93696 5.43473C6.11719 5.64371 6.2486 5.8478 6.58485 6.30022C6.8687 6.68213 7.25919 7.17899 7.77256 7.62229L9.07969 6.10855L10.3868 4.59481C10.2134 4.44502 10.0324 4.23326 9.79524 3.91413C9.61045 3.6655 9.27118 3.17613 8.96606 2.82234C8.6472 2.45262 8.0927 1.88736 7.2568 1.63031C6.31505 1.34071 5.41549 1.5524 4.66661 1.97367L5.64719 3.7168ZM10.2538 5.92082L11.8192 7.16553C12.4335 6.39294 13.1632 5.53431 13.9208 4.87957C14.7472 4.16547 15.2598 4 15.4568 4V2V0C13.7484 0 12.2893 1.00282 11.3054 1.85307C10.2528 2.76268 9.33364 3.86447 8.6883 4.67611L10.2538 5.92082ZM9.07969 6.10855L7.77256 7.62229C9.24123 8.8905 11.042 8.1431 11.8192 7.16553L10.2538 5.92082L8.6883 4.67611C8.82078 4.5095 9.03242 4.35753 9.32603 4.30309C9.64989 4.24305 10.0611 4.31356 10.3868 4.59481L9.07969 6.10855ZM13.9343 21.1605H15.9343C15.9343 20.0549 15.3489 19.1933 14.6545 18.6852C13.9769 18.1894 13.1046 17.9489 12.2333 18.0568L12.4791 20.0417L12.7249 22.0265C12.5649 22.0463 12.4202 22.0068 12.2924 21.9133C12.1477 21.8074 11.9343 21.5494 11.9343 21.1605H13.9343ZM18.3233 20.0321L18.4994 18.0398C16.9904 17.9065 14.9343 18.9565 14.9343 21.1504H16.9343H18.9343C18.9343 21.5239 18.7358 21.7807 18.5884 21.894C18.4569 21.9951 18.3076 22.0385 18.1473 22.0243L18.3233 20.0321ZM14.9163 43.8355L14.2617 41.9456C14.7618 41.7724 15.267 41.9352 15.5685 42.2069C15.8299 42.4425 15.9343 42.7383 15.9343 42.9999H13.9343H11.9343C11.9343 43.8138 12.2687 44.6178 12.8906 45.1783C13.5526 45.7749 14.5488 46.0793 15.5708 45.7254L14.9163 43.8355ZM20.9971 5.95467L19.4695 7.24562C20.194 8.10286 22.0362 8.9785 23.5186 7.55986L22.1358 6.11492L20.753 4.66997C21.1014 4.33663 21.5558 4.25621 21.8965 4.31557C22.1961 4.36778 22.4 4.51626 22.5246 4.66373L20.9971 5.95467Z" fill="black" mask="url(#path-1-outside-1_9_200)"/>
<path d="M14.6711 45C14.2642 45 13.9343 44.6701 13.9343 44.2632V44.2632C13.9343 36.9381 19.8724 31 27.1975 31H29.0922C29.5573 31 29.9343 31.377 29.9343 31.8421V32.0769C29.9343 32.934 29.9343 33.3626 29.9124 33.7245C29.546 39.7815 24.7158 44.6117 18.6588 44.9781C18.2969 45 17.8683 45 17.0112 45H14.6711Z" fill="white" stroke="black" stroke-width="2"/>
<path d="M16.0351 45.0435C14.3269 45.1929 13.4729 45.2677 12.7474 45.2433C7.22926 45.058 2.54968 41.1314 1.409 35.7292C1.25903 35.019 1.18431 34.165 1.03487 32.4568L1.00311 32.0938C0.965108 31.6594 1.28642 31.2765 1.72077 31.2385V31.2385C9.53916 30.5545 16.4317 36.3381 17.1158 44.1565V44.1565C17.1538 44.5908 16.8324 44.9737 16.3981 45.0117L16.0351 45.0435Z" fill="white" stroke="black" stroke-width="2"/>
</svg>
