<svg xmlns="http://www.w3.org/2000/svg" width="343" height="512" viewBox="0 0 343 512" version="1.1"><path d="" stroke="none" fill="#080404" fill-rule="evenodd"/><path d="M 158.500 1.130 C 145.969 4.042, 127.426 16.449, 113.162 31.467 L 105.823 39.192 104.208 36.846 C 99.784 30.420, 91.225 22.744, 85.149 19.752 C 79.594 17.018, 77.542 16.547, 71.073 16.526 C 62.146 16.495, 56.478 18.373, 47 24.501 C 30.155 35.391, 18.496 52.838, 12.791 75.693 C 9.537 88.731, 9.552 114.268, 12.824 128.881 C 16.084 143.441, 20.167 154.511, 27.621 169 C 50.491 213.457, 85.930 241.179, 124.250 244.587 L 132 245.276 132 305.547 L 132 365.817 124.372 360.788 C 107.966 349.971, 85.703 341.008, 64.828 336.815 C 55.390 334.919, 50.246 334.536, 34 334.520 C 15.556 334.501, 14.267 334.624, 10.198 336.797 C 7.541 338.216, 4.770 340.870, 2.948 343.742 C -0.586 349.316, -0.818 354.562, 1.502 376.500 C 4.081 400.896, 7.792 414.676, 16.536 432.318 C 23.816 447.008, 31.562 457.657, 43.954 470.011 C 64.884 490.879, 87.757 503.279, 117 509.613 C 127.394 511.864, 150.002 512.073, 188.500 510.273 C 217.333 508.926, 227.482 507.469, 243.011 502.451 C 291.808 486.682, 329.012 445.615, 339.527 395.915 C 342.851 380.202, 345.461 344.191, 343 348 C 342.201 349.237, 342.028 349.140, 342.015 347.450 C 341.993 344.401, 337.320 337.758, 333.230 334.959 C 329.642 332.504, 329.594 332.500, 304.568 332.551 C 282.643 332.596, 278.276 332.874, 269.741 334.769 C 250.768 338.984, 229.260 347.680, 216.163 356.433 C 213.227 358.395, 210.640 360, 210.413 360 C 210.186 360, 210 334.173, 210 302.607 C 210 238.849, 209.399 244.007, 216.832 243.993 C 222.247 243.983, 235.486 240.570, 243.700 237.067 C 290.166 217.249, 327.581 160.067, 331.613 102.708 C 334.133 66.859, 318.024 34.017, 291.500 20.926 C 278.105 14.315, 267.341 13.724, 256.942 19.029 C 251.757 21.675, 244.696 28.129, 240.814 33.771 L 237.844 38.087 228.382 29.042 C 212.792 14.137, 198.364 5.084, 184.540 1.532 C 178.039 -0.139, 164.838 -0.342, 158.500 1.130 M 158.828 25.320 C 147.793 29.976, 134.530 41.587, 116 62.813 C 111.627 67.821, 109.757 69.226, 106.875 69.667 C 103.697 70.153, 102.723 69.745, 98.974 66.361 C 96.623 64.237, 91.436 58.194, 87.450 52.931 C 79.701 42.701, 76.734 40.156, 71.590 39.321 C 63.829 38.061, 48.753 50.317, 41.818 63.522 C 36.489 73.671, 33.983 83.543, 33.303 97.078 C 31.663 129.729, 46.149 165.415, 71.970 192.331 C 82.796 203.617, 90.263 209.241, 101.500 214.577 C 112.703 219.896, 123.230 222.140, 135.340 221.789 C 145.980 221.481, 149.992 223.103, 153.137 228.984 C 154.903 232.288, 155 236.090, 155 302.185 C 155 350.371, 155.350 373.534, 156.134 377.188 C 156.895 380.735, 159.206 385.357, 163.160 391.237 C 166.400 396.057, 169.386 400, 169.796 400 C 170.596 400, 182.779 384.051, 185.098 379.967 C 186.253 377.935, 186.588 364.421, 187 303.354 C 187.488 231.005, 187.548 229.155, 189.498 227.002 C 193.306 222.795, 196.978 221.664, 207.666 221.405 C 220.391 221.096, 228.051 219.207, 239.500 213.554 C 270.390 198.300, 297.547 159.734, 306.615 118.240 C 309.284 106.024, 309.035 84.722, 306.101 74.267 C 302.187 60.323, 293.243 48.121, 282.500 42.069 C 269.920 34.982, 265.464 37.064, 254.920 54.957 C 249.009 64.988, 244.152 70.010, 240.405 69.965 C 236.102 69.912, 234.225 68.462, 224.606 57.754 C 213.285 45.153, 198.956 33.242, 188.668 27.882 C 181.404 24.096, 179.615 23.587, 172.500 23.276 C 165.800 22.984, 163.578 23.316, 158.828 25.320 M 0.360 357 C 0.360 362.225, 0.529 364.363, 0.735 361.750 C 0.941 359.137, 0.941 354.863, 0.735 352.250 C 0.529 349.637, 0.360 351.775, 0.360 357 M 279 356.475 C 241.602 362.806, 209.507 383.718, 188.315 415.562 C 183.121 423.368, 182.712 424.372, 183.740 426.816 C 194.019 451.274, 197.605 462.920, 199.915 479.356 C 200.446 483.127, 201.039 486.372, 201.234 486.567 C 202.132 487.465, 221.450 484.715, 229.748 482.508 C 283.480 468.217, 319.978 419.988, 319.997 363.250 L 320 355 303.250 355.103 C 294.038 355.159, 283.125 355.776, 279 356.475 M 23 358.887 C 23 366.463, 26.466 392.030, 28.573 400 C 39.679 442.001, 73.851 475.084, 117.660 486.247 C 125.380 488.215, 129.035 488.500, 146.500 488.500 C 157.500 488.500, 169.070 488.132, 172.212 487.683 L 177.923 486.866 177.394 483.683 C 173.126 458.010, 166.934 441.449, 154.520 422.500 C 134.139 391.392, 101.859 368.933, 65.239 360.383 C 57.285 358.526, 50.415 357.725, 38.750 357.296 C 23.077 356.719, 23 356.727, 23 358.887" stroke="none" fill="#040404" fill-rule="evenodd"/></svg>