<svg width="31" height="47" viewBox="0 0 31 47" fill="none" xmlns="http://www.w3.org/2000/svg">
<mask id="path-1-outside-1_9_200" maskUnits="userSpaceOnUse" x="-0.0657043" y="0" width="31" height="39" fill="black">
<rect fill="white" x="-0.0657043" width="31" height="39"/>
<path d="M15.4568 2C17.3697 2.0001 19.6789 4.39492 20.9971 5.95467C21.2941 6.30611 21.8034 6.43305 22.1358 6.11492C23.3828 4.92157 23.5272 2.61615 25.4841 3.7168C28.6155 5.47804 28.6841 10.5211 26.0417 14.9795C23.9582 18.4947 21.0384 20.272 18.3233 20.0321C17.6323 19.971 16.9343 20.4567 16.9343 21.1504V32.1885C16.9343 33.0476 17.1009 33.9419 16.5837 34.6279L15.4343 36.1523C15.3053 36.3471 14.9412 35.7104 14.9343 35.6982L14.3132 34.7871C13.9403 34.2406 13.9343 32.8501 13.9343 32.1885V21.1605C13.9343 20.4438 13.1904 19.9536 12.4791 20.0417C9.7288 20.3823 6.76184 18.5786 4.62863 14.9795C1.98638 10.5212 2.51615 5.47825 5.64719 3.7168C7.25571 2.81194 7.70602 4.92237 9.07969 6.10855C9.43788 6.41785 9.95924 6.29125 10.2538 5.92082C11.5134 4.33658 13.5514 2 15.4568 2Z"/>
</mask>
<path d="M15.4568 2L15.4569 0H15.4568V2ZM25.4841 3.7168L26.4646 1.97361L26.4645 1.97359L25.4841 3.7168ZM26.0417 14.9795L27.7622 15.9992L27.7622 15.9992L26.0417 14.9795ZM16.5837 34.6279L18.1806 35.832L18.1806 35.832L16.5837 34.6279ZM15.4343 36.1523L13.8374 34.9483C13.8129 34.9807 13.7895 35.0138 13.7671 35.0477L15.4343 36.1523ZM14.9343 35.6982L16.6722 34.7084C16.6456 34.6617 16.6171 34.6161 16.5869 34.5717L14.9343 35.6982ZM14.3132 34.7871L15.9658 33.6606L15.9652 33.6597L14.3132 34.7871ZM4.62863 14.9795L2.9081 15.9992L2.90813 15.9992L4.62863 14.9795ZM5.64719 3.7168L4.66661 1.97367L4.66656 1.9737L5.64719 3.7168ZM10.2538 5.92082L8.6883 4.67611L10.2538 5.92082ZM18.3233 20.0321L18.1473 22.0243L18.3233 20.0321ZM12.4791 20.0417L12.2333 18.0568L12.4791 20.0417ZM20.9971 5.95467L19.4695 7.24562L20.9971 5.95467ZM22.1358 6.11492L20.753 4.66997L22.1358 6.11492ZM15.4568 2L15.4567 4C15.6798 4.00001 16.2678 4.1997 17.1922 4.94743C18.0308 5.62577 18.8438 6.50525 19.4695 7.24562L20.9971 5.95467L22.5246 4.66373C21.8322 3.84435 20.8316 2.74653 19.7078 1.8375C18.6698 0.997864 17.1466 8.7738e-05 15.4569 0L15.4568 2ZM22.1358 6.11492L23.5186 7.55986C24.0331 7.06754 24.3879 6.50694 24.6261 6.10897C24.9182 5.62087 25.0103 5.4354 25.1495 5.24794C25.265 5.09236 25.1599 5.3052 24.8132 5.3952C24.4332 5.49383 24.262 5.32408 24.5037 5.46L25.4841 3.7168L26.4645 1.97359C25.7277 1.55919 24.8046 1.26487 23.8082 1.5235C22.8451 1.77351 22.2591 2.43091 21.938 2.86328C21.6406 3.26376 21.3405 3.80961 21.1937 4.05501C20.9929 4.39054 20.8621 4.56561 20.753 4.66997L22.1358 6.11492ZM25.4841 3.7168L24.5036 5.45999C25.279 5.89606 25.8687 6.82833 25.9295 8.41345C25.9905 10.0001 25.4833 11.9989 24.3212 13.9598L26.0417 14.9795L27.7622 15.9992C29.2425 13.5016 30.0222 10.7497 29.9266 8.25995C29.8309 5.76864 28.8206 3.29877 26.4646 1.97361L25.4841 3.7168ZM26.0417 14.9795L24.3212 13.9598C22.4627 17.0955 20.1674 18.1872 18.4994 18.0398L18.3233 20.0321L18.1473 22.0243C21.9094 22.3567 25.4538 19.894 27.7622 15.9992L26.0417 14.9795ZM16.9343 21.1504H14.9343V32.1885H16.9343H18.9343V21.1504H16.9343ZM16.9343 32.1885H14.9343C14.9343 32.4496 14.9472 32.7256 14.9535 32.9056C14.9607 33.1126 14.9622 33.2503 14.956 33.363C14.944 33.5798 14.9106 33.5249 14.9868 33.4238L16.5837 34.6279L18.1806 35.832C18.7741 35.0449 18.9159 34.1999 18.9499 33.5833C18.9667 33.2792 18.9589 32.9895 18.951 32.7656C18.9422 32.5149 18.9343 32.357 18.9343 32.1885H16.9343ZM16.5837 34.6279L14.9868 33.4238L13.8374 34.9483L15.4343 36.1523L17.0312 37.3564L18.1806 35.832L16.5837 34.6279ZM15.4343 36.1523L13.7671 35.0477C14.0425 34.632 14.5611 34.2304 15.2682 34.1922C15.8344 34.1616 16.2286 34.3861 16.3569 34.4657C16.5145 34.5634 16.6111 34.6586 16.6419 34.6898C16.6813 34.7296 16.703 34.7569 16.7063 34.761C16.7118 34.768 16.7029 34.7568 16.6848 34.7283C16.6699 34.7049 16.6629 34.6922 16.6722 34.7084L14.9343 35.6982L13.1964 36.6881C13.2075 36.7075 13.3625 36.9818 13.5708 37.2447C13.6456 37.3392 13.8826 37.6379 14.2485 37.8649C14.4292 37.9769 14.8731 38.2193 15.4839 38.1863C16.2356 38.1457 16.7938 37.7214 17.1015 37.257L15.4343 36.1523ZM14.9343 35.6982L16.5869 34.5717L15.9658 33.6606L14.3132 34.7871L12.6606 35.9136L13.2817 36.8248L14.9343 35.6982ZM14.3132 34.7871L15.9652 33.6597C16.0688 33.8115 16.069 33.89 16.0398 33.7701C16.0173 33.6777 15.9935 33.5339 15.9747 33.3389C15.9368 32.947 15.9343 32.5218 15.9343 32.1885H13.9343H11.9343C11.9343 32.5168 11.9347 33.1176 11.9931 33.723C12.0224 34.0267 12.07 34.3744 12.1535 34.717C12.2303 35.0323 12.3712 35.4894 12.6612 35.9145L14.3132 34.7871ZM13.9343 32.1885H15.9343V21.1605H13.9343H11.9343V32.1885H13.9343ZM12.4791 20.0417L12.2333 18.0568C10.5881 18.2606 8.269 17.1989 6.34913 13.9597L4.62863 14.9795L2.90813 15.9992C5.25467 19.9583 8.86951 22.504 12.7249 22.0265L12.4791 20.0417ZM4.62863 14.9795L6.34916 13.9598C5.21827 12.0517 4.81494 10.0954 4.96397 8.52591C5.11363 6.94977 5.78171 5.93589 6.62781 5.45989L5.64719 3.7168L4.66656 1.9737C2.38162 3.25916 1.2193 5.6475 0.981881 8.14779C0.743832 10.6547 1.39674 13.4491 2.9081 15.9992L4.62863 14.9795ZM5.64719 3.7168L6.62776 5.45992C6.68314 5.42876 6.44307 5.56494 6.08108 5.45362C5.82494 5.37485 5.77047 5.24168 5.93696 5.43473C6.11719 5.64371 6.2486 5.8478 6.58485 6.30022C6.8687 6.68213 7.25919 7.17899 7.77256 7.62229L9.07969 6.10855L10.3868 4.59481C10.2134 4.44502 10.0324 4.23326 9.79524 3.91413C9.61045 3.6655 9.27118 3.17613 8.96606 2.82234C8.6472 2.45262 8.0927 1.88736 7.2568 1.63031C6.31505 1.34071 5.41549 1.5524 4.66661 1.97367L5.64719 3.7168ZM10.2538 5.92082L11.8192 7.16553C12.4335 6.39294 13.1632 5.53431 13.9208 4.87957C14.7472 4.16547 15.2598 4 15.4568 4V2V0C13.7484 0 12.2893 1.00282 11.3054 1.85307C10.2528 2.76268 9.33364 3.86447 8.6883 4.67611L10.2538 5.92082ZM9.07969 6.10855L7.77256 7.62229C9.24123 8.8905 11.042 8.1431 11.8192 7.16553L10.2538 5.92082L8.6883 4.67611C8.82078 4.5095 9.03242 4.35753 9.32603 4.30309C9.64989 4.24305 10.0611 4.31356 10.3868 4.59481L9.07969 6.10855ZM18.3233 20.0321L18.4994 18.0398C16.9904 17.9065 14.9343 18.9565 14.9343 21.1504H16.9343H18.9343C18.9343 21.5239 18.7358 21.7807 18.5884 21.894C18.4569 21.9951 18.3076 22.0385 18.1473 22.0243L18.3233 20.0321ZM13.9343 21.1605H15.9343C15.9343 20.0549 15.3489 19.1933 14.6545 18.6852C13.9769 18.1894 13.1046 17.9489 12.2333 18.0568L12.4791 20.0417L12.7249 22.0265C12.5649 22.0463 12.4202 22.0068 12.2924 21.9133C12.1477 21.8074 11.9343 21.5494 11.9343 21.1605H13.9343ZM20.9971 5.95467L19.4695 7.24562C20.194 8.10286 22.0362 8.9785 23.5186 7.55986L22.1358 6.11492L20.753 4.66997C21.1014 4.33663 21.5558 4.25621 21.8965 4.31557C22.1961 4.36778 22.4 4.51626 22.5246 4.66373L20.9971 5.95467Z" fill="black" mask="url(#path-1-outside-1_9_200)"/>
<path d="M29.9346 31.8418H30.9346V31.8414L29.9346 31.8418ZM29.9346 32.0771H30.9346H29.9346ZM29.9122 33.7246L30.9103 33.785V33.785L29.9122 33.7246ZM18.6592 44.9785L18.7196 45.9767L18.7196 45.9767L18.6592 44.9785ZM16.4825 45L16.2897 44.0188L16.4825 46V45ZM17.1153 44.1562L18.1115 44.0691L18.1115 44.0691L17.1153 44.1562ZM15.3135 38.3682L14.418 37.9231L14.1809 38.4002L14.4446 38.8631L15.3135 38.3682ZM27.1973 31V30H27.1973L27.1973 31ZM29.0919 31V32C29.0057 32 28.9347 31.9304 28.9346 31.8422L29.9346 31.8418L30.9346 31.8414C30.9343 30.8233 30.108 30 29.0919 30V31ZM29.9346 31.8418H28.9346V32.0771H29.9346H30.9346V31.8418H29.9346ZM29.9346 32.0771H28.9346C28.9346 32.9475 28.9336 33.3398 28.914 33.6642L29.9122 33.7246L30.9103 33.785C30.9345 33.3856 30.9346 32.9207 30.9346 32.0771H29.9346ZM29.9122 33.7246L28.914 33.6642C28.5781 39.2163 24.1508 43.6443 18.5988 43.9803L18.6592 44.9785L18.7196 45.9767C25.2812 45.5796 30.5134 40.3464 30.9103 33.785L29.9122 33.7246ZM18.6592 44.9785L18.5989 43.9803C18.2749 43.9999 17.8834 44 17.0108 44V45V46C17.8524 46 18.3197 46.0009 18.7196 45.9767L18.6592 44.9785ZM17.0108 45V44H16.4825V45V46H17.0108V45ZM16.4825 45L16.6753 45.9812C17.5636 45.8067 18.1919 44.9879 18.1115 44.0691L17.1153 44.1562L16.1191 44.2434C16.1097 44.1361 16.1829 44.0397 16.2897 44.0188L16.4825 45ZM17.1153 44.1562L18.1115 44.0691C17.9144 41.8164 17.2343 39.7198 16.1825 37.8732L15.3135 38.3682L14.4446 38.8631C15.3569 40.4648 15.9476 42.284 16.1191 44.2434L17.1153 44.1562ZM15.3135 38.3682L16.209 38.8132C18.217 34.7731 22.3841 32 27.1973 32L27.1973 31L27.1973 30C21.5958 30.0001 16.7508 33.2294 14.418 37.9231L15.3135 38.3682ZM27.1973 31V32H29.0919V31V30H27.1973V31Z" fill="black"/>
<path d="M16.0351 45.0435C14.3269 45.1929 13.4729 45.2677 12.7474 45.2433C7.22926 45.058 2.54968 41.1314 1.409 35.7292C1.25904 35.019 1.18431 34.165 1.03487 32.4568L1.00311 32.0938C0.965112 31.6595 1.28642 31.2765 1.72078 31.2385C9.53916 30.5545 16.4317 36.3381 17.1158 44.1565C17.1538 44.5908 16.8324 44.9737 16.3981 45.0117L16.0351 45.0435Z" stroke="black" stroke-width="2"/>
</svg>
