<svg width="36" height="47" viewBox="0 0 36 47" fill="none" xmlns="http://www.w3.org/2000/svg">
<path d="M34 36.1807H33C33 36.199 33.0005 36.2173 33.0015 36.2355L34 36.1807ZM34.0742 39.877H35.0742V39.8769L34.0742 39.877ZM30.459 45.877V46.877C30.5049 46.877 30.5506 46.8738 30.5961 46.8675L30.459 45.877ZM28.5323 45.4316L28.9715 44.5333L28.5323 45.4316ZM27.3731 44.9033L27.1806 45.8846L27.1807 45.8846L27.3731 44.9033ZM27.0274 44.8965L27.1813 45.8846L27.1814 45.8846L27.0274 44.8965ZM25.8614 45.374L26.2651 46.2889L26.2652 46.2889L25.8614 45.374ZM23.9815 45.7676L23.9815 46.7676H23.9815V45.7676ZM22.0323 45.3428L22.4508 44.4346L22.0323 45.3428ZM20.9121 44.8633L21.0842 43.8782L21.084 43.8782L20.9121 44.8633ZM20.5684 44.8633L20.7403 45.8484L20.7404 45.8484L20.5684 44.8633ZM19.4483 45.3428L19.0296 44.4346L19.4483 45.3428ZM17.5 45.7676L17.5 46.7676H17.5V45.7676ZM15.5508 45.3428L15.9693 44.4346L15.5508 45.3428ZM14.4307 44.8633L14.6027 43.8782L14.6025 43.8782L14.4307 44.8633ZM14.0869 44.8633L14.2589 45.8484L14.2589 45.8484L14.0869 44.8633ZM12.9668 45.3428L12.5482 44.4346L12.9668 45.3428ZM11.0186 45.7676V46.7676H11.0186L11.0186 45.7676ZM9.15237 45.3799L8.7519 46.2962L8.75191 46.2962L9.15237 45.3799ZM8.0098 44.917L8.16368 43.9289L8.16213 43.9287L8.0098 44.917ZM7.66605 44.9238L7.85742 45.9053L7.8575 45.9053L7.66605 44.9238ZM6.52933 45.4385L6.96576 46.3382L6.9658 46.3382L6.52933 45.4385ZM4.61526 45.877L4.47824 46.8675C4.52364 46.8738 4.56943 46.877 4.61526 46.877V45.877ZM1.00003 39.877L3.05176e-05 39.8769V39.877H1.00003ZM1.00198 39.0469L2.00197 39.0528C2.00202 39.0432 2.00194 39.0335 2.00172 39.0239L1.00198 39.0469ZM1.00003 39H3.05176e-05H1.00003ZM16 1V0V0V1ZM19 1V2C26.732 2 33 8.26801 33 16H34H35C35 7.16344 27.8366 0 19 0V1ZM34 16H33V36.1807H34H35V16H34ZM34 36.1807L33.0015 36.2355C33.0488 37.096 33.0742 38.28 33.0742 39.877L34.0742 39.877L35.0742 39.8769C35.0742 38.2648 35.0487 37.0393 34.9985 36.1258L34 36.1807ZM34.0742 39.877H33.0742C33.0742 41.1875 33.0604 42.3531 32.6947 43.2613C32.5236 43.6862 32.2836 44.027 31.9413 44.2888C31.5965 44.5527 31.0906 44.7801 30.322 44.8864L30.459 45.877L30.5961 46.8675C31.635 46.7238 32.4847 46.3913 33.1567 45.8772C33.8312 45.3611 34.269 44.7059 34.5499 44.0084C35.0881 42.6719 35.0742 41.0876 35.0742 39.877H34.0742ZM30.459 45.877V44.877C29.9252 44.877 29.4218 44.7534 28.9715 44.5333L28.5323 45.4316L28.093 46.33C28.8091 46.6801 29.6122 46.877 30.459 46.877V45.877ZM28.5323 45.4316L28.9715 44.5333C28.6322 44.3674 28.3634 44.2361 28.1636 44.1436C28.0088 44.0719 27.7726 43.9626 27.5655 43.922L27.3731 44.9033L27.1807 45.8846C27.1159 45.8719 27.0892 45.8572 27.1399 45.8775C27.1772 45.8925 27.2356 45.9179 27.3235 45.9586C27.4994 46.04 27.7458 46.1602 28.093 46.33L28.5323 45.4316ZM27.3731 44.9033L27.5656 43.922C27.4988 43.9089 27.5219 43.9128 27.4568 43.8997C27.4231 43.893 27.3325 43.8745 27.2209 43.8722C27.1091 43.87 27.0178 43.8848 26.9834 43.8903C26.9653 43.8932 26.9423 43.8971 26.929 43.8994C26.9125 43.9022 26.8946 43.9051 26.8734 43.9084L27.0274 44.8965L27.1814 45.8846C27.2132 45.8796 27.2393 45.8753 27.26 45.8718C27.2651 45.8709 27.2699 45.8701 27.2741 45.8694C27.2785 45.8687 27.2821 45.8681 27.2855 45.8675C27.2926 45.8663 27.2965 45.8657 27.299 45.8653C27.3015 45.8649 27.3003 45.8651 27.2969 45.8656C27.2935 45.866 27.286 45.867 27.2757 45.8681C27.2652 45.8691 27.2513 45.8703 27.2348 45.8711C27.218 45.8719 27.1999 45.8722 27.1806 45.8718C27.1614 45.8714 27.1433 45.8704 27.1266 45.8689C27.1102 45.8675 27.0964 45.8658 27.086 45.8643C27.0759 45.8628 27.0685 45.8616 27.0651 45.861C27.0618 45.8604 27.0607 45.8601 27.0632 45.8606C27.0658 45.8611 27.0697 45.8619 27.0768 45.8634C27.0802 45.8641 27.0839 45.8649 27.0882 45.8658C27.0925 45.8667 27.0972 45.8677 27.1023 45.8688C27.1229 45.8731 27.149 45.8784 27.1806 45.8846L27.3731 44.9033ZM27.0274 44.8965L26.8734 43.9084C26.6647 43.9409 26.4255 44.0407 26.2699 44.1055C26.0689 44.1893 25.7983 44.3088 25.4575 44.4592L25.8614 45.374L26.2652 46.2889C26.6147 46.1346 26.8623 46.0254 27.0393 45.9516C27.1276 45.9148 27.1861 45.892 27.2233 45.8787C27.2737 45.8607 27.2463 45.8744 27.1813 45.8846L27.0274 44.8965ZM25.8614 45.374L25.4576 44.4591C25.0104 44.6565 24.5112 44.7676 23.9815 44.7676V45.7676V46.7676C24.7933 46.7676 25.5671 46.5969 26.2651 46.2889L25.8614 45.374ZM23.9815 45.7676L23.9815 44.7676C23.4306 44.7676 22.9123 44.6473 22.4508 44.4346L22.0323 45.3428L21.6137 46.251C22.3331 46.5825 23.1367 46.7676 23.9815 46.7676L23.9815 45.7676ZM22.0323 45.3428L22.4508 44.4346C22.1247 44.2843 21.8652 44.1646 21.6718 44.0804C21.5211 44.0148 21.2897 43.9141 21.0842 43.8782L20.9121 44.8633L20.7401 45.8484C20.6773 45.8374 20.651 45.8239 20.6982 45.8415C20.7333 45.8546 20.7887 45.8772 20.8731 45.914C21.0424 45.9877 21.2787 46.0966 21.6137 46.251L22.0323 45.3428ZM20.9121 44.8633L21.084 43.8782C21.0629 43.8745 21.0451 43.8712 21.0282 43.8681C21.0138 43.8654 20.9914 43.8613 20.9721 43.8579C20.9348 43.8514 20.8475 43.8363 20.7402 43.8363C20.6328 43.8363 20.5455 43.8514 20.5082 43.8579C20.4889 43.8613 20.4665 43.8655 20.4521 43.8681C20.4352 43.8713 20.4174 43.8745 20.3964 43.8782L20.5684 44.8633L20.7404 45.8484C20.7708 45.8431 20.796 45.8384 20.8155 45.8348C20.826 45.8329 20.8326 45.8317 20.8395 45.8304C20.8461 45.8292 20.8497 45.8286 20.8518 45.8282C20.8539 45.8278 20.8526 45.8281 20.8491 45.8286C20.8456 45.8291 20.8384 45.8302 20.8287 45.8313C20.8187 45.8325 20.8057 45.8338 20.7904 45.8347C20.7748 45.8357 20.758 45.8363 20.7402 45.8363C20.7224 45.8363 20.7056 45.8357 20.6901 45.8347C20.6747 45.8338 20.6617 45.8325 20.6518 45.8313C20.642 45.8302 20.6349 45.8291 20.6314 45.8286C20.628 45.8281 20.6267 45.8278 20.6288 45.8282C20.6309 45.8286 20.6345 45.8292 20.6411 45.8304C20.6481 45.8317 20.6546 45.8329 20.6651 45.8349C20.6847 45.8385 20.7098 45.8431 20.7403 45.8484L20.9121 44.8633ZM20.5684 44.8633L20.3964 43.8782C20.1909 43.914 19.9595 44.0147 19.8088 44.0803C19.6153 44.1646 19.3557 44.2843 19.0296 44.4346L19.4483 45.3428L19.8669 46.2509C20.2018 46.0965 20.4381 45.9877 20.6074 45.914C20.6918 45.8772 20.7472 45.8546 20.7823 45.8415C20.8294 45.8239 20.8031 45.8374 20.7403 45.8484L20.5684 44.8633ZM19.4483 45.3428L19.0296 44.4346C18.5684 44.6473 18.0505 44.7676 17.5 44.7676V45.7676V46.7676C18.3447 46.7676 19.1479 46.5824 19.8669 46.2509L19.4483 45.3428ZM17.5 45.7676L17.5 44.7676C16.9492 44.7676 16.4308 44.6472 15.9693 44.4346L15.5508 45.3428L15.1323 46.251C15.8517 46.5825 16.6552 46.7676 17.5 46.7676L17.5 45.7676ZM15.5508 45.3428L15.9693 44.4346C15.6433 44.2843 15.3837 44.1646 15.1903 44.0804C15.0397 44.0148 14.8083 43.9141 14.6027 43.8782L14.4307 44.8633L14.2586 45.8484C14.1959 45.8374 14.1696 45.8239 14.2167 45.8415C14.2518 45.8546 14.3072 45.8772 14.3917 45.914C14.561 45.9877 14.7972 46.0966 15.1323 46.251L15.5508 45.3428ZM14.4307 44.8633L14.6025 43.8782C14.5815 43.8745 14.5637 43.8712 14.5467 43.8681C14.5323 43.8654 14.51 43.8613 14.4906 43.8579C14.4533 43.8514 14.3661 43.8363 14.2588 43.8363C14.1514 43.8363 14.0641 43.8514 14.0268 43.8579C14.0074 43.8613 13.9851 43.8655 13.9707 43.8681C13.9538 43.8713 13.936 43.8745 13.915 43.8782L14.0869 44.8633L14.2589 45.8484C14.2894 45.8431 14.3145 45.8384 14.3341 45.8348C14.3446 45.8329 14.3511 45.8317 14.3581 45.8304C14.3646 45.8292 14.3682 45.8286 14.3704 45.8282C14.3724 45.8278 14.3711 45.8281 14.3677 45.8286C14.3642 45.8291 14.357 45.8302 14.3472 45.8313C14.3373 45.8325 14.3243 45.8338 14.3089 45.8347C14.2933 45.8357 14.2765 45.8363 14.2588 45.8363C14.241 45.8363 14.2242 45.8357 14.2086 45.8347C14.1933 45.8338 14.1803 45.8325 14.1703 45.8313C14.1606 45.8302 14.1534 45.8291 14.1499 45.8286C14.1465 45.8281 14.1452 45.8278 14.1473 45.8282C14.1495 45.8286 14.1531 45.8292 14.1596 45.8304C14.1666 45.8317 14.1732 45.8329 14.1836 45.8349C14.2032 45.8385 14.2284 45.8431 14.2589 45.8484L14.4307 44.8633ZM14.0869 44.8633L13.915 43.8782C13.7095 43.914 13.478 44.0147 13.3273 44.0803C13.1339 44.1646 12.8743 44.2843 12.5482 44.4346L12.9668 45.3428L13.3855 46.2509C13.7204 46.0965 13.9567 45.9877 14.1259 45.914C14.2103 45.8772 14.2658 45.8546 14.3009 45.8415C14.348 45.8239 14.3217 45.8374 14.2589 45.8484L14.0869 44.8633ZM12.9668 45.3428L12.5482 44.4346C12.0869 44.6472 11.569 44.7676 11.0186 44.7676L11.0186 45.7676L11.0186 46.7676C11.8633 46.7676 12.6664 46.5824 13.3855 46.2509L12.9668 45.3428ZM11.0186 45.7676V44.7676C10.4934 44.7676 9.99797 44.6581 9.55284 44.4636L9.15237 45.3799L8.75191 46.2962C9.44518 46.5992 10.213 46.7676 11.0186 46.7676V45.7676ZM9.15237 45.3799L9.55285 44.4636C9.21955 44.3179 8.9546 44.2021 8.75743 44.1208C8.60378 44.0574 8.36937 43.9609 8.16368 43.9289L8.0098 44.917L7.85591 45.9051C7.79312 45.8953 7.76695 45.8824 7.81556 45.8995C7.8518 45.9123 7.90876 45.9342 7.99508 45.9698C8.1681 46.0411 8.40991 46.1467 8.7519 46.2962L9.15237 45.3799ZM8.0098 44.917L8.16213 43.9287C8.14096 43.9254 8.12313 43.9225 8.10642 43.9197C8.09255 43.9174 8.06993 43.9137 8.05125 43.9107C8.01564 43.9052 7.92637 43.8911 7.81706 43.8933C7.70776 43.8955 7.61913 43.9132 7.58399 43.9201C7.56561 43.9238 7.54313 43.9285 7.52955 43.9313C7.51309 43.9347 7.49549 43.9383 7.47459 43.9423L7.66605 44.9238L7.8575 45.9053C7.88847 45.8993 7.91399 45.8941 7.93406 45.8899C7.93897 45.8889 7.94364 45.8879 7.94773 45.8871C7.95194 45.8862 7.9555 45.8855 7.95879 45.8848C7.96559 45.8834 7.96937 45.8826 7.97172 45.8822C7.97404 45.8817 7.97285 45.882 7.96951 45.8826C7.96608 45.8832 7.95883 45.8844 7.94889 45.8858C7.93873 45.8872 7.92536 45.8888 7.90947 45.8902C7.89335 45.8916 7.87592 45.8926 7.85741 45.8929C7.8389 45.8933 7.82144 45.893 7.80527 45.8923C7.78934 45.8916 7.77592 45.8905 7.76571 45.8895C7.75572 45.8885 7.74841 45.8876 7.74494 45.8871C7.74156 45.8866 7.74035 45.8864 7.74266 45.8868C7.74499 45.8871 7.74879 45.8878 7.75561 45.8889C7.75891 45.8894 7.76249 45.89 7.76672 45.8907C7.77081 45.8914 7.77552 45.8922 7.78045 45.893C7.80062 45.8963 7.8263 45.9005 7.85747 45.9053L8.0098 44.917ZM7.66605 44.9238L7.47468 43.9423C7.26866 43.9825 7.03501 44.0902 6.88365 44.1598C6.68796 44.2499 6.42448 44.3779 6.09286 44.5388L6.52933 45.4385L6.9658 46.3382C7.30642 46.173 7.54736 46.056 7.71999 45.9766C7.80613 45.9369 7.86306 45.9123 7.89937 45.8978C7.94857 45.8782 7.92172 45.8928 7.85742 45.9053L7.66605 44.9238ZM6.52933 45.4385L6.0929 44.5387C5.64594 44.7555 5.14584 44.877 4.61526 44.877V45.877V46.877C5.45515 46.877 6.25306 46.6839 6.96576 46.3382L6.52933 45.4385ZM4.61526 45.877L4.75229 44.8864C3.98367 44.7801 3.47774 44.5527 3.13288 44.2888C2.79066 44.027 2.55064 43.6862 2.37958 43.2614C2.01389 42.3532 2.00003 41.1876 2.00003 39.877H1.00003H3.05176e-05C3.05176e-05 41.0876 -0.0138029 42.6719 0.524331 44.0084C0.805181 44.7059 1.24303 45.3611 1.91758 45.8772C2.5895 46.3913 3.43927 46.7238 4.47824 46.8675L4.61526 45.877ZM1.00003 39.877L2.00003 39.877C2.00003 39.5881 2.00041 39.3138 2.00197 39.0528L1.00198 39.0469L0.0020014 39.0409C0.000409067 39.3079 3.12924e-05 39.5868 3.05176e-05 39.8769L1.00003 39.877ZM1.00198 39.0469L2.00172 39.0239C2.00133 39.0072 2.00068 38.9931 2.00022 38.984C1.99998 38.9794 1.99975 38.9753 1.9996 38.9726C1.99952 38.9712 1.99944 38.9699 1.99939 38.969C1.99933 38.9679 1.9993 38.9673 1.99926 38.9668C1.99912 38.9642 1.99931 38.9672 1.9995 38.9721C1.99971 38.9774 2.00003 38.9872 2.00003 39H1.00003H3.05176e-05C3.05176e-05 39.0206 0.000550866 39.0383 0.0010702 39.0514C0.00157541 39.0641 0.00218421 39.0749 0.00248045 39.0802C0.00256014 39.0816 0.00263697 39.0829 0.00269067 39.0838C0.00275111 39.0849 0.00278729 39.0855 0.00282025 39.0861C0.002886 39.0872 0.00287557 39.0871 0.00283808 39.0864C0.0027706 39.085 0.00245345 39.0788 0.00224841 39.0699L1.00198 39.0469ZM1.00003 39H2.00003V16H1.00003H3.05176e-05V39H1.00003ZM1.00003 16H2.00003C2.00003 8.26801 8.26804 2 16 2V1V0C7.16348 2.38419e-07 3.05176e-05 7.16344 3.05176e-05 16H1.00003ZM16 1V2H19V1V0H16V1Z" fill="black"/>
<rect x="11" y="13" width="4" height="9" rx="2" fill="black"/>
<path d="M20 15C20 13.8954 20.8955 13 22 13C23.1046 13 24 13.8954 24 15V20C24 21.1046 23.1046 22 22 22C20.8955 22 20 21.1046 20 20V15Z" fill="black"/>
</svg>
