<svg width="47" height="41" viewBox="0 0 47 41" fill="none" xmlns="http://www.w3.org/2000/svg">
<path d="M30.9571 1.59022C37.0746 -0.218948 43.1251 2.15388 44.7023 7.95839C45.4613 10.7528 45.1798 14.0364 44.1407 17.3373C43.0983 20.6487 41.273 24.0469 38.8517 27.1107C36.6491 29.8976 33.8543 32.9488 31.086 35.3139C29.7026 36.4958 28.3043 37.5254 26.9718 38.2641C25.6567 38.9931 24.314 39.4905 23.0665 39.4906C21.819 39.4906 20.4763 38.9931 19.1612 38.2641C17.8288 37.5254 16.4304 36.4959 15.047 35.3139C12.2791 32.9489 9.4852 29.898 7.28233 27.1107C4.861 24.047 3.03513 20.6508 1.99229 17.3412C0.952786 14.0421 0.6706 10.7607 1.42979 7.9662C3.00664 2.16272 9.05668 -0.219781 15.1759 1.59022C17.5819 2.30204 19.3961 3.87841 20.7228 5.50624C21.3683 6.29832 21.8234 6.85526 22.1798 7.24159C22.3557 7.43229 22.4879 7.55901 22.589 7.64198C22.6921 7.72662 22.7307 7.73887 22.7169 7.73378C22.9518 7.82083 23.0304 7.82655 23.0646 7.82655C23.0988 7.82655 23.1775 7.82067 23.4122 7.73378C23.3984 7.7389 23.4369 7.72669 23.5401 7.64198C23.6412 7.55899 23.7734 7.43219 23.9493 7.24159C24.306 6.85513 24.7613 6.2975 25.4073 5.50526C26.7342 3.87805 28.5504 2.3021 30.9571 1.59022Z" stroke="black" stroke-width="2" stroke-linejoin="round"/>
<rect x="16.0669" y="12.9906" width="4" height="9" rx="2" fill="black"/>
<path d="M26.0669 14.9906C26.0669 13.886 26.9623 12.9906 28.0669 12.9906C29.1714 12.9906 30.0669 13.886 30.0669 14.9906V19.9906C30.0669 21.0952 29.1714 21.9906 28.0669 21.9906C26.9623 21.9906 26.0669 21.0952 26.0669 19.9906V14.9906Z" fill="black"/>
</svg>

