<svg width="66" height="66" viewBox="0 0 66 66" fill="none" xmlns="http://www.w3.org/2000/svg">
<rect x="1" y="1" width="64" height="64" fill="black" stroke="black" stroke-width="2"/>
<path d="M21.0949 11.5H43.8195C45.5076 11.5 46.7436 11.5004 47.7189 11.5801C48.6885 11.6593 49.3567 11.8145 49.9162 12.0996C50.951 12.6269 51.7922 13.4682 52.3195 14.5029C52.6046 15.0624 52.7598 15.7306 52.8391 16.7002C52.9187 17.6755 52.9191 18.9116 52.9191 20.5996V47.5977C52.9191 49.498 52.9145 50.3461 52.6975 51.0869C52.3786 52.175 51.7312 53.1388 50.8439 53.8447C50.2412 54.3243 49.4594 54.6476 47.7082 55.3613L47.6955 55.3672C46.7587 55.749 46.3402 55.9172 45.9152 56.0146C45.2923 56.1574 44.6492 56.1913 44.0148 56.1133C43.5821 56.06 43.1487 55.9349 42.1779 55.6514L34.7521 53.4824H34.7531L34.7404 53.4795L34.1467 53.3086C33.9837 53.264 33.8465 53.23 33.7082 53.2021C33.4669 53.1535 33.223 53.1186 32.9777 53.0977C32.6967 53.0737 32.4151 53.0742 31.9094 53.0742H22.2521C20.9448 53.0742 19.8744 51.9905 19.8742 50.6719V38.0391C19.8742 37.523 19.8744 37.2361 19.8508 36.957C19.8296 36.7078 19.7973 36.4767 19.7482 36.2314C19.6933 35.9568 19.6104 35.6745 19.4631 35.166C18.8275 32.9727 17.5368 28.428 16.4914 24.1729C15.9685 22.0445 15.5095 19.9965 15.2238 18.3545C15.0808 17.5327 14.9831 16.8216 14.9416 16.2578C14.8984 15.6704 14.9228 15.315 14.9748 15.1562C15.178 14.5376 15.6293 13.9596 16.2092 13.4414C16.7857 12.9263 17.46 12.4969 18.0588 12.1689C18.2978 12.0381 18.402 11.9795 18.7971 11.835C19.0323 11.7489 19.6159 11.599 19.8635 11.5615C20.2682 11.5003 20.5202 11.5 21.0949 11.5Z" fill="#D9D9D9" stroke="#D4D4D4"/>
<path d="M14 16C14 14.3431 15.3431 13 17 13H40.4C43.7603 13 45.4405 13 46.7239 13.654C47.8529 14.2292 48.7708 15.1471 49.346 16.2761C50 17.5595 50 19.2397 50 22.6V47.4C50 50.7603 50 52.4405 49.346 53.7239C48.7708 54.8529 47.8529 55.7708 46.7239 56.346C45.4405 57 43.7603 57 40.4 57H17C15.3431 57 14 55.6569 14 54V16Z" fill="#808080" stroke="black" stroke-width="2" stroke-linecap="round" stroke-linejoin="round"/>
<path d="M12.5 21.5H16.5C17.6046 21.5 18.5 22.3954 18.5 23.5C18.5 24.6046 17.6046 25.5 16.5 25.5H12.5C11.3954 25.5 10.5 24.6046 10.5 23.5C10.5 22.4643 11.2872 21.613 12.2959 21.5107L12.5 21.5Z" fill="#EFEFEF"/>
<path d="M12.5 21.5H16.5C17.6046 21.5 18.5 22.3954 18.5 23.5C18.5 24.6046 17.6046 25.5 16.5 25.5H12.5C11.3954 25.5 10.5 24.6046 10.5 23.5C10.5 22.4643 11.2872 21.613 12.2959 21.5107L12.5 21.5Z" stroke="black"/>
<path d="M12.5 21.5H16.5C17.6046 21.5 18.5 22.3954 18.5 23.5C18.5 24.6046 17.6046 25.5 16.5 25.5H12.5C11.3954 25.5 10.5 24.6046 10.5 23.5C10.5 22.4643 11.2872 21.613 12.2959 21.5107L12.5 21.5Z" stroke="black"/>
<rect x="10.5" y="32.5" width="8" height="4" rx="2" fill="#EFEFEF"/>
<rect x="10.5" y="32.5" width="8" height="4" rx="2" stroke="black"/>
<rect x="10.5" y="32.5" width="8" height="4" rx="2" stroke="black"/>
<rect x="10.5" y="43.5" width="8" height="4" rx="2" fill="#EFEFEF"/>
<rect x="10.5" y="43.5" width="8" height="4" rx="2" stroke="black"/>
<rect x="10.5" y="43.5" width="8" height="4" rx="2" stroke="black"/>
<path d="M32.5127 22.0283C33.1186 22.0334 33.5077 22.4747 33.7988 22.9521C34.0981 23.4431 34.406 24.1622 34.7891 25.0518C34.9065 25.3245 34.9814 25.4959 35.0508 25.6211C35.1147 25.7365 35.1555 25.7761 35.1865 25.7988C35.1876 25.7996 35.1884 25.801 35.1895 25.8018C35.2207 25.8243 35.2709 25.8508 35.4004 25.876C35.5409 25.9033 35.7266 25.9208 36.0225 25.9482C36.9873 26.0377 37.7667 26.1092 38.3262 26.2422C38.8701 26.3715 39.4104 26.6041 39.6025 27.1787C39.6052 27.1867 39.6078 27.1951 39.6104 27.2031C39.7926 27.7809 39.4929 28.2866 39.1289 28.7109C38.7544 29.1474 38.1655 29.6632 37.4375 30.3027C37.2142 30.4989 37.0742 30.6228 36.9766 30.7275C36.8868 30.8238 36.8617 30.8746 36.8496 30.9111C36.8492 30.9124 36.849 30.9138 36.8486 30.915C36.8369 30.9517 36.8277 31.0076 36.8438 31.1387C36.8612 31.2808 36.9015 31.4631 36.9668 31.7529C37.1798 32.698 37.353 33.461 37.3994 34.0342C37.4445 34.5914 37.3893 35.1768 36.9023 35.5371C36.8957 35.542 36.8886 35.5469 36.8818 35.5518C36.3887 35.9037 35.8149 35.7756 35.2988 35.5605C34.768 35.3393 34.0949 34.9391 33.2617 34.4443C33.0063 34.2927 32.8456 34.1972 32.7158 34.1367C32.5965 34.0811 32.5404 34.0734 32.502 34.0732C32.5007 34.0732 32.4993 34.0732 32.498 34.0732C32.4596 34.0734 32.4035 34.0811 32.2842 34.1367C32.1544 34.1972 31.9937 34.2927 31.7383 34.4443C30.9051 34.9391 30.232 35.3393 29.7012 35.5605C29.1851 35.7756 28.6113 35.9037 28.1182 35.5518C28.1114 35.5469 28.1043 35.542 28.0977 35.5371C27.6107 35.1768 27.5555 34.5914 27.6006 34.0342C27.647 33.461 27.8202 32.698 28.0332 31.7529C28.0985 31.4631 28.1388 31.2808 28.1562 31.1387C28.1723 31.0076 28.1631 30.9517 28.1514 30.915C28.151 30.9138 28.1508 30.9124 28.1504 30.9111C28.1383 30.8746 28.1132 30.8238 28.0234 30.7275C27.9258 30.6228 27.7858 30.4989 27.5625 30.3027C26.8345 29.6632 26.2456 29.1474 25.8711 28.7109C25.5071 28.2866 25.2074 27.7809 25.3896 27.2031C25.3922 27.1951 25.3948 27.1867 25.3975 27.1787C25.5896 26.6041 26.1299 26.3715 26.6738 26.2422C27.2333 26.1092 28.0127 26.0377 28.9775 25.9482C29.2734 25.9208 29.4591 25.9033 29.5996 25.876C29.7291 25.8508 29.7793 25.8243 29.8105 25.8018C29.8116 25.801 29.8124 25.7996 29.8135 25.7988C29.8445 25.7761 29.8853 25.7365 29.9492 25.6211C30.0186 25.4959 30.0935 25.3245 30.2109 25.0518C30.594 24.1622 30.9019 23.4431 31.2012 22.9521C31.4923 22.4747 31.8814 22.0334 32.4873 22.0283C32.4958 22.0282 32.5042 22.0282 32.5127 22.0283Z" fill="white" stroke="black"/>
<rect x="22.5" y="46.5" width="20" height="5" rx="1.5" fill="#D9D9D9" stroke="black"/>
<path d="M25.9259 19C26.2434 19 26.5185 20.4815 26.5185 20.4815C26.5185 20.4815 28 20.6296 28 20.9909C28 21.3521 26.5185 21.5185 26.5185 21.5185C26.5185 21.5185 26.2434 23 25.9259 23C25.6085 23 25.3764 21.5185 25.3764 21.5185C25.3764 21.5185 24 21.3521 24 20.9909C24 20.6296 25.3764 20.4815 25.3764 20.4815C25.3764 20.4815 25.6085 19 25.9259 19Z" fill="white"/>
<path d="M24.9259 37C25.2434 37 25.5185 38.4815 25.5185 38.4815C25.5185 38.4815 27 38.6296 27 38.9909C27 39.3521 25.5185 39.5185 25.5185 39.5185C25.5185 39.5185 25.2434 41 24.9259 41C24.6085 41 24.3764 39.5185 24.3764 39.5185C24.3764 39.5185 23 39.3521 23 38.9909C23 38.6296 24.3764 38.4815 24.3764 38.4815C24.3764 38.4815 24.6085 37 24.9259 37Z" fill="white"/>
<path d="M37.963 22C38.1217 22 38.2593 22.7407 38.2593 22.7407C38.2593 22.7407 39 22.8148 39 22.9954C39 23.1761 38.2593 23.2593 38.2593 23.2593C38.2593 23.2593 38.1217 24 37.963 24C37.8042 24 37.6882 23.2593 37.6882 23.2593C37.6882 23.2593 37 23.1761 37 22.9954C37 22.8148 37.6882 22.7407 37.6882 22.7407C37.6882 22.7407 37.8042 22 37.963 22Z" fill="#EFEFEF"/>
<path d="M34.963 40C35.1217 40 35.2593 40.7407 35.2593 40.7407C35.2593 40.7407 36 40.8148 36 40.9954C36 41.1761 35.2593 41.2593 35.2593 41.2593C35.2593 41.2593 35.1217 42 34.963 42C34.8042 42 34.6882 41.2593 34.6882 41.2593C34.6882 41.2593 34 41.1761 34 40.9954C34 40.8148 34.6882 40.7407 34.6882 40.7407C34.6882 40.7407 34.8042 40 34.963 40Z" fill="#EFEFEF"/>
<path d="M22.963 24C23.1217 24 23.2593 24.7407 23.2593 24.7407C23.2593 24.7407 24 24.8148 24 24.9954C24 25.1761 23.2593 25.2593 23.2593 25.2593C23.2593 25.2593 23.1217 26 22.963 26C22.8042 26 22.6882 25.2593 22.6882 25.2593C22.6882 25.2593 22 25.1761 22 24.9954C22 24.8148 22.6882 24.7407 22.6882 24.7407C22.6882 24.7407 22.8042 24 22.963 24Z" fill="#EFEFEF"/>
<path d="M42.9259 31C43.2434 31 43.5185 32.4815 43.5185 32.4815C43.5185 32.4815 45 32.6296 45 32.9909C45 33.3521 43.5185 33.5185 43.5185 33.5185C43.5185 33.5185 43.2434 35 42.9259 35C42.6085 35 42.3764 33.5185 42.3764 33.5185C42.3764 33.5185 41 33.3521 41 32.9909C41 32.6296 42.3764 32.4815 42.3764 32.4815C42.3764 32.4815 42.6085 31 42.9259 31Z" fill="white"/>
<circle cx="31.5" cy="37.5" r="0.5" fill="#CFCFCF"/>
<circle cx="23.5" cy="33.5" r="0.5" fill="#CFCFCF"/>
<circle cx="34.5" cy="19.5" r="0.5" fill="#CFCFCF"/>
<circle cx="21.5" cy="29.5" r="0.5" fill="#CFCFCF"/>
<circle cx="42.5" cy="25.5" r="0.5" fill="#CFCFCF"/>
<circle cx="39.5" cy="38.5" r="0.5" fill="#CFCFCF"/>
</svg>
