<svg width="357" height="447" viewBox="-14 6 386 483" fill="none" xmlns="http://www.w3.org/2000/svg">
<g filter="url(#filter0_dd_60_156)">
<path d="M174.18 58.7C192.89 58.701 215.475 81.7663 228.368 96.7888C231.273 100.174 236.254 101.396 239.506 98.3322C251.702 86.8386 253.114 64.6344 272.254 75.2351C302.881 92.1982 303.552 140.769 277.708 183.71C257.33 217.567 228.772 234.684 202.217 232.373C195.458 231.785 188.631 236.463 188.631 243.144V371.877C188.631 380.152 188.841 387.27 183.782 393.877L174.282 404.377C174.282 412.877 167.85 401.995 167.782 401.877C164.076 410.653 159.289 378.249 159.289 371.877V243.242C159.289 236.338 152.013 231.617 145.056 232.465C118.156 235.746 89.1373 218.374 68.273 183.71C42.43 140.771 47.6115 92.2003 78.2352 75.2351C93.9677 66.5201 98.372 86.8464 111.807 98.2709C115.311 101.25 120.41 100.031 123.291 96.4628C135.611 81.2044 155.544 58.7 174.18 58.7Z" fill="url(#paint0_linear_60_156)"/>
<path d="M174.18 58.7C192.89 58.701 215.475 81.7663 228.368 96.7888C231.273 100.174 236.254 101.396 239.506 98.3322C251.702 86.8386 253.114 64.6344 272.254 75.2351C302.881 92.1982 303.552 140.769 277.708 183.71C257.33 217.567 228.772 234.684 202.217 232.373C195.458 231.785 188.631 236.463 188.631 243.144V371.877C188.631 380.152 188.841 387.27 183.782 393.877L174.282 404.377C174.282 412.877 167.85 401.995 167.782 401.877C164.076 410.653 159.289 378.249 159.289 371.877V243.242C159.289 236.338 152.013 231.617 145.056 232.465C118.156 235.746 89.1373 218.374 68.273 183.71C42.43 140.771 47.6115 92.2003 78.2352 75.2351C93.9677 66.5201 98.372 86.8464 111.807 98.2709C115.311 101.25 120.41 100.031 123.291 96.4628C135.611 81.2044 155.544 58.7 174.18 58.7Z" fill="url(#paint1_linear_60_156)"/>
<path d="M174.18 58.7C192.89 58.701 215.475 81.7663 228.368 96.7888C231.273 100.174 236.254 101.396 239.506 98.3322C251.702 86.8386 253.114 64.6344 272.254 75.2351C302.881 92.1982 303.552 140.769 277.708 183.71C257.33 217.567 228.772 234.684 202.217 232.373C195.458 231.785 188.631 236.463 188.631 243.144V371.877C188.631 380.152 188.841 387.27 183.782 393.877L174.282 404.377C174.282 412.877 167.85 401.995 167.782 401.877C164.076 410.653 159.289 378.249 159.289 371.877V243.242C159.289 236.338 152.013 231.617 145.056 232.465C118.156 235.746 89.1373 218.374 68.273 183.71C42.43 140.771 47.6115 92.2003 78.2352 75.2351C93.9677 66.5201 98.372 86.8464 111.807 98.2709C115.311 101.25 120.41 100.031 123.291 96.4628C135.611 81.2044 155.544 58.7 174.18 58.7Z" stroke="url(#paint2_linear_60_156)" stroke-width="12"/>
</g>
<path d="M174.18 58.7C192.89 58.701 215.475 81.7663 228.368 96.7888C231.273 100.174 236.254 101.396 239.506 98.3322C251.702 86.8386 253.114 64.6344 272.254 75.2351C302.881 92.1982 303.552 140.769 277.708 183.71C257.33 217.567 228.772 234.684 202.217 232.373C195.458 231.785 188.631 236.463 188.631 243.144V371.877C188.631 380.152 188.841 387.27 183.782 393.877L174.282 404.377C174.282 412.877 167.85 401.995 167.782 401.877C164.076 410.653 159.289 378.249 159.289 371.877V243.242C159.289 236.338 152.013 231.617 145.056 232.465C118.156 235.746 89.1373 218.374 68.273 183.71C42.43 140.771 47.6115 92.2003 78.2352 75.2351C93.9677 66.5201 98.372 86.8464 111.807 98.2709C115.311 101.25 120.41 100.031 123.291 96.4628C135.611 81.2044 155.544 58.7 174.18 58.7Z" fill="url(#paint3_linear_60_156)"/>
<path d="M174.18 58.7C192.89 58.701 215.475 81.7663 228.368 96.7888C231.273 100.174 236.254 101.396 239.506 98.3322C251.702 86.8386 253.114 64.6344 272.254 75.2351C302.881 92.1982 303.552 140.769 277.708 183.71C257.33 217.567 228.772 234.684 202.217 232.373C195.458 231.785 188.631 236.463 188.631 243.144V371.877C188.631 380.152 188.841 387.27 183.782 393.877L174.282 404.377C174.282 412.877 167.85 401.995 167.782 401.877C164.076 410.653 159.289 378.249 159.289 371.877V243.242C159.289 236.338 152.013 231.617 145.056 232.465C118.156 235.746 89.1373 218.374 68.273 183.71C42.43 140.771 47.6115 92.2003 78.2352 75.2351C93.9677 66.5201 98.372 86.8464 111.807 98.2709C115.311 101.25 120.41 100.031 123.291 96.4628C135.611 81.2044 155.544 58.7 174.18 58.7Z" fill="url(#paint4_linear_60_156)"/>
<path d="M174.18 58.7C192.89 58.701 215.475 81.7663 228.368 96.7888C231.273 100.174 236.254 101.396 239.506 98.3322C251.702 86.8386 253.114 64.6344 272.254 75.2351C302.881 92.1982 303.552 140.769 277.708 183.71C257.33 217.567 228.772 234.684 202.217 232.373C195.458 231.785 188.631 236.463 188.631 243.144V371.877C188.631 380.152 188.841 387.27 183.782 393.877L174.282 404.377C174.282 412.877 167.85 401.995 167.782 401.877C164.076 410.653 159.289 378.249 159.289 371.877V243.242C159.289 236.338 152.013 231.617 145.056 232.465C118.156 235.746 89.1373 218.374 68.273 183.71C42.43 140.771 47.6115 92.2003 78.2352 75.2351C93.9677 66.5201 98.372 86.8464 111.807 98.2709C115.311 101.25 120.41 100.031 123.291 96.4628C135.611 81.2044 155.544 58.7 174.18 58.7Z" stroke="url(#paint5_linear_60_156)" stroke-width="12"/>
<g filter="url(#filter1_ddddd_60_156)">
<path d="M312.062 290.7C316.61 290.7 320.303 294.33 320.305 298.808V301.074C320.305 309.328 320.3 313.456 320.085 316.942C316.502 375.277 269.263 421.802 210.024 425.332C206.484 425.543 202.284 425.539 193.901 425.539L177.301 425.332L163.119 405.367C162.961 405.145 162.882 405.034 162.836 404.904C162.789 404.774 162.78 404.645 162.763 404.387C161.988 392.989 168.476 379.15 177.301 361.665C198.528 319.606 242.601 290.7 293.532 290.7H312.062Z" fill="#C5E6A8"/>
<path d="M312.062 290.7C316.61 290.7 320.303 294.33 320.305 298.808V301.074C320.305 309.328 320.3 313.456 320.085 316.942C316.502 375.277 269.263 421.802 210.024 425.332C206.484 425.543 202.284 425.539 193.901 425.539L177.301 425.332L163.119 405.367C162.961 405.145 162.882 405.034 162.836 404.904C162.789 404.774 162.78 404.645 162.763 404.387C161.988 392.989 168.476 379.15 177.301 361.665C198.528 319.606 242.601 290.7 293.532 290.7H312.062Z" stroke="#93B097" stroke-width="12"/>
</g>
<g filter="url(#filter2_ddddd_60_156)">
<path d="M177.753 424.189C161.046 425.629 152.693 426.349 145.597 426.114C91.6259 424.329 45.8564 386.511 34.6997 334.481C33.233 327.64 32.5021 319.414 31.0405 302.963L30.7298 299.467C30.3582 295.283 33.5008 291.595 37.7491 291.229C114.218 284.641 181.628 340.343 188.318 415.644C188.69 419.828 185.552 423.518 181.303 423.884L177.753 424.189Z" fill="#C5E6A8"/>
<path d="M177.753 424.189C161.046 425.629 152.693 426.349 145.597 426.114C91.6259 424.329 45.8564 386.511 34.6997 334.481C33.233 327.64 32.5021 319.414 31.0405 302.963L30.7298 299.467C30.3582 295.283 33.5008 291.595 37.7491 291.229C114.218 284.641 181.628 340.343 188.318 415.644C188.69 419.828 185.552 423.518 181.303 423.884L177.753 424.189Z" stroke="#93B097" stroke-width="12"/>
</g>
<path d="M130.7 148.2C130.7 141.849 135.849 136.7 142.2 136.7C148.551 136.7 153.7 141.849 153.7 148.2V169.2C153.7 175.551 148.551 180.7 142.2 180.7C135.849 180.7 130.7 175.551 130.7 169.2V148.2Z" fill="#383353"/>
<path d="M194.7 148.2C194.7 141.849 199.849 136.7 206.2 136.7C212.551 136.7 217.7 141.849 217.7 148.2V169.2C217.7 175.551 212.551 180.7 206.2 180.7C199.849 180.7 194.7 175.551 194.7 169.2V148.2Z" fill="#383353"/>
<g opacity="0.47" filter="url(#filter3_f_60_156)" style="mix-blend-mode:plus-lighter">
<path d="M178.427 242.7C178.427 235.781 200.444 230.937 207.437 231.546C234.913 233.939 264.461 216.213 285.546 181.154C312.286 136.687 311.592 86.3889 279.903 68.8228C260.099 57.8453 258.638 80.8388 246.019 92.7409C242.655 95.9139 237.5 94.6478 234.495 91.1427C221.155 75.5862 197.786 51.701 178.427 51.7C159.145 51.7 138.521 75.0044 125.774 90.8051C122.793 94.4997 117.517 95.7623 113.892 92.6774C99.9906 80.8468 95.4335 59.7981 79.1555 68.8228C47.4697 86.391 42.1085 136.688 68.8478 181.154C90.4356 217.05 120.461 235.039 148.294 231.642C155.492 230.763 178.427 235.551 178.427 242.7Z" fill="url(#paint6_radial_60_156)"/>
</g>
<defs>
<filter id="filter0_dd_60_156" x="40.3708" y="47.371" width="267.178" height="371.582" filterUnits="userSpaceOnUse" color-interpolation-filters="sRGB">
<feFlood flood-opacity="0" result="BackgroundImageFix"/>
<feColorMatrix in="SourceAlpha" type="matrix" values="0 0 0 0 0 0 0 0 0 0 0 0 0 0 0 0 0 0 127 0" result="hardAlpha"/>
<feOffset/>
<feGaussianBlur stdDeviation="0.761285"/>
<feColorMatrix type="matrix" values="0 0 0 0 0.909804 0 0 0 0 0.74902 0 0 0 0 0.827451 0 0 0 1 0"/>
<feBlend mode="normal" in2="BackgroundImageFix" result="effect1_dropShadow_60_156"/>
<feColorMatrix in="SourceAlpha" type="matrix" values="0 0 0 0 0 0 0 0 0 0 0 0 0 0 0 0 0 0 127 0" result="hardAlpha"/>
<feOffset/>
<feGaussianBlur stdDeviation="2.6645"/>
<feColorMatrix type="matrix" values="0 0 0 0 0.909804 0 0 0 0 0.74902 0 0 0 0 0.827451 0 0 0 1 0"/>
<feBlend mode="normal" in2="effect1_dropShadow_60_156" result="effect2_dropShadow_60_156"/>
<feBlend mode="normal" in="SourceGraphic" in2="effect2_dropShadow_60_156" result="shape"/>
</filter>
<filter id="filter1_ddddd_60_156" x="134.1" y="274.1" width="200.63" height="172.039" filterUnits="userSpaceOnUse" color-interpolation-filters="sRGB">
<feFlood flood-opacity="0" result="BackgroundImageFix"/>
<feColorMatrix in="SourceAlpha" type="matrix" values="0 0 0 0 0 0 0 0 0 0 0 0 0 0 0 0 0 0 127 0" result="hardAlpha"/>
<feOffset/>
<feGaussianBlur stdDeviation="0.300883"/>
<feColorMatrix type="matrix" values="0 0 0 0 0.443137 0 0 0 0 0.556863 0 0 0 0 0.458824 0 0 0 1 0"/>
<feBlend mode="normal" in2="BackgroundImageFix" result="effect1_dropShadow_60_156"/>
<feColorMatrix in="SourceAlpha" type="matrix" values="0 0 0 0 0 0 0 0 0 0 0 0 0 0 0 0 0 0 127 0" result="hardAlpha"/>
<feOffset/>
<feGaussianBlur stdDeviation="0.601766"/>
<feColorMatrix type="matrix" values="0 0 0 0 0.443137 0 0 0 0 0.556863 0 0 0 0 0.458824 0 0 0 1 0"/>
<feBlend mode="normal" in2="effect1_dropShadow_60_156" result="effect2_dropShadow_60_156"/>
<feColorMatrix in="SourceAlpha" type="matrix" values="0 0 0 0 0 0 0 0 0 0 0 0 0 0 0 0 0 0 127 0" result="hardAlpha"/>
<feOffset/>
<feGaussianBlur stdDeviation="2.10618"/>
<feColorMatrix type="matrix" values="0 0 0 0 0.443137 0 0 0 0 0.556863 0 0 0 0 0.458824 0 0 0 1 0"/>
<feBlend mode="normal" in2="effect2_dropShadow_60_156" result="effect3_dropShadow_60_156"/>
<feColorMatrix in="SourceAlpha" type="matrix" values="0 0 0 0 0 0 0 0 0 0 0 0 0 0 0 0 0 0 127 0" result="hardAlpha"/>
<feOffset/>
<feGaussianBlur stdDeviation="4.21236"/>
<feColorMatrix type="matrix" values="0 0 0 0 0.443137 0 0 0 0 0.556863 0 0 0 0 0.458824 0 0 0 1 0"/>
<feBlend mode="normal" in2="effect3_dropShadow_60_156" result="effect4_dropShadow_60_156"/>
<feColorMatrix in="SourceAlpha" type="matrix" values="0 0 0 0 0 0 0 0 0 0 0 0 0 0 0 0 0 0 127 0" result="hardAlpha"/>
<feOffset dx="-10" dy="2"/>
<feGaussianBlur stdDeviation="6.3"/>
<feComposite in2="hardAlpha" operator="out"/>
<feColorMatrix type="matrix" values="0 0 0 0 0 0 0 0 0 0 0 0 0 0 0 0 0 0 0.25 0"/>
<feBlend mode="normal" in2="effect4_dropShadow_60_156" result="effect5_dropShadow_60_156"/>
<feBlend mode="normal" in="SourceGraphic" in2="effect5_dropShadow_60_156" result="shape"/>
</filter>
<filter id="filter2_ddddd_60_156" x="16.2722" y="276.273" width="191.077" height="168.884" filterUnits="userSpaceOnUse" color-interpolation-filters="sRGB">
<feFlood flood-opacity="0" result="BackgroundImageFix"/>
<feColorMatrix in="SourceAlpha" type="matrix" values="0 0 0 0 0 0 0 0 0 0 0 0 0 0 0 0 0 0 127 0" result="hardAlpha"/>
<feOffset/>
<feGaussianBlur stdDeviation="0.300965"/>
<feColorMatrix type="matrix" values="0 0 0 0 0.443137 0 0 0 0 0.556863 0 0 0 0 0.458824 0 0 0 1 0"/>
<feBlend mode="normal" in2="BackgroundImageFix" result="effect1_dropShadow_60_156"/>
<feColorMatrix in="SourceAlpha" type="matrix" values="0 0 0 0 0 0 0 0 0 0 0 0 0 0 0 0 0 0 127 0" result="hardAlpha"/>
<feOffset/>
<feGaussianBlur stdDeviation="0.60193"/>
<feColorMatrix type="matrix" values="0 0 0 0 0.443137 0 0 0 0 0.556863 0 0 0 0 0.458824 0 0 0 1 0"/>
<feBlend mode="normal" in2="effect1_dropShadow_60_156" result="effect2_dropShadow_60_156"/>
<feColorMatrix in="SourceAlpha" type="matrix" values="0 0 0 0 0 0 0 0 0 0 0 0 0 0 0 0 0 0 127 0" result="hardAlpha"/>
<feOffset/>
<feGaussianBlur stdDeviation="2.10675"/>
<feColorMatrix type="matrix" values="0 0 0 0 0.443137 0 0 0 0 0.556863 0 0 0 0 0.458824 0 0 0 1 0"/>
<feBlend mode="normal" in2="effect2_dropShadow_60_156" result="effect3_dropShadow_60_156"/>
<feColorMatrix in="SourceAlpha" type="matrix" values="0 0 0 0 0 0 0 0 0 0 0 0 0 0 0 0 0 0 127 0" result="hardAlpha"/>
<feOffset/>
<feGaussianBlur stdDeviation="4.21351"/>
<feColorMatrix type="matrix" values="0 0 0 0 0.443137 0 0 0 0 0.556863 0 0 0 0 0.458824 0 0 0 1 0"/>
<feBlend mode="normal" in2="effect3_dropShadow_60_156" result="effect4_dropShadow_60_156"/>
<feColorMatrix in="SourceAlpha" type="matrix" values="0 0 0 0 0 0 0 0 0 0 0 0 0 0 0 0 0 0 127 0" result="hardAlpha"/>
<feOffset dx="5" dy="5"/>
<feGaussianBlur stdDeviation="4"/>
<feComposite in2="hardAlpha" operator="out"/>
<feColorMatrix type="matrix" values="0 0 0 0 0 0 0 0 0 0 0 0 0 0 0 0 0 0 0.25 0"/>
<feBlend mode="normal" in2="effect4_dropShadow_60_156" result="effect5_dropShadow_60_156"/>
<feBlend mode="normal" in="SourceGraphic" in2="effect5_dropShadow_60_156" result="shape"/>
</filter>
<filter id="filter3_f_60_156" x="-3.8147e-06" y="-3.8147e-06" width="356.4" height="294.4" filterUnits="userSpaceOnUse" color-interpolation-filters="sRGB">
<feFlood flood-opacity="0" result="BackgroundImageFix"/>
<feBlend mode="normal" in="SourceGraphic" in2="BackgroundImageFix" result="shape"/>
<feGaussianBlur stdDeviation="25.85" result="effect1_foregroundBlur_60_156"/>
</filter>
<linearGradient id="paint0_linear_60_156" x1="173.96" y1="58.7" x2="173.96" y2="387.99" gradientUnits="userSpaceOnUse">
<stop offset="0.432705" stop-color="#FFA6EF"/>
<stop offset="1" stop-color="#C5E6A8"/>
</linearGradient>
<linearGradient id="paint1_linear_60_156" x1="173.96" y1="58.7" x2="173.96" y2="387.99" gradientUnits="userSpaceOnUse">
<stop offset="0.432705" stop-color="#FFA6EF"/>
<stop offset="1" stop-color="#C5E6A8"/>
</linearGradient>
<linearGradient id="paint2_linear_60_156" x1="173.96" y1="58.7" x2="173.96" y2="387.99" gradientUnits="userSpaceOnUse">
<stop offset="0.350973" stop-color="#E8BFD3"/>
<stop offset="1" stop-color="#9FCA9F"/>
</linearGradient>
<linearGradient id="paint3_linear_60_156" x1="173.96" y1="58.7" x2="173.96" y2="387.99" gradientUnits="userSpaceOnUse">
<stop offset="0.325481" stop-color="#F8ABE1"/>
<stop offset="1" stop-color="#C5E6A8"/>
</linearGradient>
<linearGradient id="paint4_linear_60_156" x1="173.96" y1="58.7" x2="173.96" y2="387.99" gradientUnits="userSpaceOnUse">
<stop offset="0.325481" stop-color="#F8ABE1"/>
<stop offset="1" stop-color="#C5E6A8"/>
</linearGradient>
<linearGradient id="paint5_linear_60_156" x1="173.96" y1="58.7" x2="173.96" y2="387.99" gradientUnits="userSpaceOnUse">
<stop offset="0.350973" stop-color="#BD84B2"/>
<stop offset="1" stop-color="#9FCA9F"/>
</linearGradient>
<radialGradient id="paint6_radial_60_156" cx="0" cy="0" r="1" gradientTransform="matrix(11.5979 120.606 -159.755 15.3342 178.016 154.403)" gradientUnits="userSpaceOnUse">
<stop stop-color="#FFEAF3"/>
<stop offset="0.322127" stop-color="#FF8FC9"/>
</radialGradient>
</defs>
</svg>
