<svg width="45" height="47" viewBox="0 0 45 47" fill="none" xmlns="http://www.w3.org/2000/svg">
<path d="M5 26V27.5V29.5V31.5" stroke="black" stroke-width="2" stroke-linecap="round" stroke-linejoin="round"/>
<path d="M5 21V15" stroke="black" stroke-width="2" stroke-linecap="round" stroke-linejoin="round"/>
<path d="M5 10V5C5 3.34315 6.34315 2 8 2H31.4C34.7603 2 36.4405 2 37.7239 2.65396C38.8529 3.2292 39.7708 4.14708 40.346 5.27606C41 6.55953 41 8.23968 41 11.6V36.4C41 39.7603 41 41.4405 40.346 42.7239C39.7708 43.8529 38.8529 44.7708 37.7239 45.346C36.4405 46 34.7603 46 31.4 46H8C6.34315 46 5 44.6569 5 43V39.5V37.5" stroke="black" stroke-width="2" stroke-linecap="round" stroke-linejoin="round"/>
<rect x="1" y="32" width="9" height="5" rx="2.5" stroke="black" stroke-width="2"/>
<rect x="1" y="32" width="9" height="5" rx="2.5" stroke="black" stroke-width="2"/>
<path d="M1 12.5C1 11.1193 2.11929 10 3.5 10H7.5C8.88071 10 10 11.1193 10 12.5C10 13.8807 8.88071 15 7.5 15H3.5C2.11929 15 1 13.8807 1 12.5Z" stroke="black" stroke-width="2"/>
<path d="M1 12.5C1 11.1193 2.11929 10 3.5 10H7.5C8.88071 10 10 11.1193 10 12.5C10 13.8807 8.88071 15 7.5 15H3.5C2.11929 15 1 13.8807 1 12.5Z" stroke="black" stroke-width="2"/>
<rect x="1" y="21" width="9" height="5" rx="2.5" stroke="black" stroke-width="2"/>
<rect x="1" y="21" width="9" height="5" rx="2.5" stroke="black" stroke-width="2"/>
<path d="M23.5166 10.5283C24.4025 10.5358 24.9198 11.19 25.2256 11.6914C25.548 12.2201 25.8724 12.9799 26.249 13.8545C26.3704 14.1364 26.4337 14.2805 26.4883 14.3789C26.489 14.3802 26.4895 14.3816 26.4902 14.3828C26.4921 14.3832 26.4941 14.3844 26.4961 14.3848C26.6065 14.4062 26.763 14.4219 27.0684 14.4502C28.0166 14.5381 28.8399 14.6117 29.4424 14.7549C30.0137 14.8907 30.7953 15.1804 31.0762 16.0205L31.0869 16.0527L31.1279 16.209C31.2956 16.9831 30.8673 17.6191 30.5088 18.0371C30.1056 18.5071 29.483 19.0502 28.7676 19.6787C28.537 19.8813 28.4195 19.9861 28.3428 20.0684C28.3415 20.0697 28.3401 20.071 28.3389 20.0723C28.3391 20.074 28.3396 20.0763 28.3398 20.0781C28.3536 20.1897 28.3867 20.3436 28.4541 20.6426C28.6635 21.5716 28.8475 22.3769 28.8975 22.9941C28.9448 23.5795 28.9115 24.4127 28.1992 24.9395C28.1902 24.9461 28.181 24.9525 28.1719 24.959C27.4509 25.4735 26.6485 25.2484 26.1064 25.0225C25.5349 24.7842 24.8257 24.3602 24.0068 23.874C23.7428 23.7173 23.6068 23.6374 23.5049 23.5898C23.5031 23.589 23.5017 23.5877 23.5 23.5869C23.4983 23.5877 23.4969 23.589 23.4951 23.5898C23.3932 23.6374 23.2572 23.7173 22.9932 23.874C22.1743 24.3602 21.4651 24.7842 20.8936 25.0225C20.3515 25.2484 19.5491 25.4735 18.8281 24.959C18.819 24.9525 18.8098 24.9461 18.8008 24.9395C18.0885 24.4127 18.0552 23.5795 18.1025 22.9941C18.1525 22.3769 18.3365 21.5716 18.5459 20.6426C18.6133 20.3436 18.6464 20.1897 18.6602 20.0781C18.6604 20.0763 18.66 20.074 18.6602 20.0723C18.6591 20.0711 18.6583 20.0696 18.6572 20.0684C18.5805 19.9861 18.463 19.8813 18.2324 19.6787C17.517 19.0502 16.8944 18.5071 16.4912 18.0371C16.1088 17.5914 15.6465 16.8975 15.9131 16.0527C15.9165 16.042 15.9203 16.0312 15.9238 16.0205C16.2047 15.1804 16.9863 14.8907 17.5576 14.7549C18.1601 14.6117 18.9834 14.5381 19.9316 14.4502C20.237 14.4219 20.3935 14.4062 20.5039 14.3848C20.5056 14.3844 20.5072 14.3831 20.5088 14.3828C20.5096 14.3814 20.5109 14.3804 20.5117 14.3789C20.5663 14.2805 20.6296 14.1364 20.751 13.8545C21.1276 12.9799 21.452 12.2201 21.7744 11.6914C22.0802 11.19 22.5975 10.5358 23.4834 10.5283C23.4945 10.5282 23.5055 10.5282 23.5166 10.5283Z" stroke="black" stroke-width="2"/>
<rect x="15" y="35" width="17" height="6" rx="2" stroke="black" stroke-width="2"/>
</svg>
