<svg xmlns="http://www.w3.org/2000/svg" width="2758" height="2729" viewBox="0 0 2758 2729" version="1.1"><path d="M 1382.500 292.039 C 1343.209 293.192, 1327.108 295.339, 1310 301.705 C 1275.376 314.590, 1242.682 332.851, 1219 352.532 C 1206.078 363.271, 1180.959 389.736, 1174.774 399.127 C 1157.719 425.025, 1137.109 464.878, 1038.487 662.660 C 979.537 780.880, 951.564 835.993, 950.321 836.364 C 946.718 837.440, 870.781 848.820, 755.500 865.559 C 624.146 884.632, 524.928 899.756, 506.402 903.529 C 472.112 910.513, 444.164 920.584, 420.346 934.539 C 393.433 950.308, 375.382 964.465, 353.958 986.606 C 329.891 1011.478, 308.737 1045.139, 296.531 1077.985 C 283.199 1113.860, 279.010 1139.483, 279.003 1185.196 C 278.997 1231.485, 283.226 1257.899, 296.527 1294.644 C 303.855 1314.889, 322.390 1346.219, 337.274 1363.520 C 360.101 1390.053, 425.857 1456.057, 526 1552.959 C 576.732 1602.049, 657.653 1683.302, 664.892 1692.421 C 668.350 1696.777, 671.554 1701.327, 672.012 1702.532 C 672.567 1703.991, 671.026 1715.041, 667.399 1735.611 C 664.404 1752.600, 654.066 1812.850, 644.425 1869.500 C 634.785 1926.150, 621.964 2001.300, 615.934 2036.500 C 601.207 2122.471, 600 2133.146, 600 2177.456 C 600 2220.594, 603.515 2241.119, 617.218 2278 C 627.719 2306.260, 637.567 2323.878, 655.231 2346 C 675.244 2371.065, 705.292 2399.513, 727.403 2414.330 C 746.182 2426.914, 780.180 2441.043, 808.258 2447.933 C 835.202 2454.544, 847.577 2456.208, 873.740 2456.737 C 888.381 2457.032, 903.231 2456.762, 911.240 2456.054 C 935.103 2453.945, 970.542 2446.382, 986.955 2439.896 C 1011.202 2430.315, 1147.059 2360.393, 1302.500 2277.494 C 1388.780 2231.480, 1402.274 2224.671, 1405.085 2225.729 C 1407.996 2226.825, 1613.806 2335.107, 1693.500 2377.472 C 1806.420 2437.501, 1834.210 2449.644, 1870.852 2454.967 C 1908.622 2460.455, 1953.302 2459.654, 1987 2452.884 C 2006.457 2448.976, 2036.967 2438.057, 2058.212 2427.399 C 2079.570 2416.684, 2095.666 2404.336, 2121.870 2378.566 C 2142.510 2358.268, 2157.163 2341.756, 2166.167 2328.650 C 2178.331 2310.945, 2197.642 2267.342, 2201.551 2248.756 C 2207.659 2219.719, 2209.647 2155.445, 2205.549 2119.500 C 2202.113 2089.368, 2197.794 2063.413, 2139.913 1725.075 C 2134.879 1695.650, 2134.879 1695.650, 2138.690 1691.965 C 2338.189 1499.024, 2468.731 1370.256, 2478.028 1357.238 C 2499.443 1327.250, 2521.029 1278.992, 2525.376 1251.383 C 2528.333 1232.599, 2529.266 1210.805, 2528.688 1174 C 2527.884 1122.782, 2526.769 1114.997, 2516.508 1088.922 C 2499.494 1045.692, 2478.211 1010.371, 2454.567 986.128 C 2415.145 945.709, 2375.935 922.447, 2321 906.888 C 2306.305 902.726, 2274.762 897.911, 2020 860.937 C 1940.525 849.403, 1871.259 839.212, 1866.076 838.290 C 1856.652 836.613, 1856.652 836.613, 1827.219 777.056 C 1763.360 647.844, 1683.370 488.049, 1669.008 461 C 1638.083 402.761, 1631.687 393.047, 1609.345 370.389 C 1584.389 345.080, 1547.264 321.229, 1511 307.208 C 1496.816 301.723, 1478.658 296.308, 1468.153 294.429 C 1460.199 293.006, 1423.255 290.905, 1411.500 291.207 C 1408.750 291.277, 1395.700 291.652, 1382.500 292.039 M 1380 420.103 C 1366.530 422.137, 1337.066 433.362, 1324.522 441.237 C 1314.356 447.620, 1301.312 457.990, 1294.449 465.147 C 1277.270 483.060, 1267.466 501.505, 1153.851 729.641 C 1074.597 888.784, 1059.520 918.308, 1049.336 934.306 C 1039.557 949.667, 1036.203 952.340, 1020.500 957.287 C 1009.530 960.743, 1005.371 961.394, 853 983.530 C 629.493 1016, 530.369 1031.838, 512.842 1037.879 C 505.123 1040.539, 485.030 1050.885, 476.500 1056.591 C 461.942 1066.330, 445.551 1083.070, 435.464 1098.500 C 429.967 1106.910, 419.819 1126.675, 416.210 1136 C 405.817 1162.858, 405.586 1205.253, 415.680 1233.337 C 418.926 1242.369, 427.957 1260.499, 433.443 1269 C 435.751 1272.575, 444.873 1283.150, 453.715 1292.500 C 473.553 1313.477, 573.384 1412.852, 620 1458.024 C 685.022 1521.033, 779.499 1613.904, 790.290 1625.419 C 810.182 1646.646, 811.254 1653.850, 803.029 1711 C 793.623 1776.352, 762.310 1963.378, 748.555 2036.366 C 735.973 2103.132, 730 2148.089, 730 2176.030 C 730 2198.938, 733.639 2214.460, 744.039 2235.915 C 756.816 2262.273, 773.790 2282.453, 797.609 2299.603 C 815.171 2312.248, 835.229 2320.257, 862.917 2325.679 C 879.729 2328.971, 902.527 2327.435, 920 2321.832 C 943.607 2314.263, 1005.141 2283.254, 1198.500 2181.487 C 1379.123 2086.423, 1373.827 2089.129, 1386.417 2085.477 C 1391.044 2084.135, 1394.750 2083.872, 1403.417 2084.268 C 1425.472 2085.276, 1439.679 2091.873, 1580 2166.270 C 1703.088 2231.529, 1724.944 2243.069, 1790.453 2277.386 C 1860.796 2314.234, 1866.110 2316.812, 1884.500 2323.009 C 1908.185 2330.990, 1924.780 2331.903, 1948.438 2326.528 C 1963.775 2323.043, 1985.715 2315.450, 1994.268 2310.667 C 2018.240 2297.261, 2046.520 2269.531, 2058.348 2247.832 C 2079.969 2208.168, 2083.393 2181.500, 2074.508 2121.994 C 2073.647 2116.222, 2068.021 2082.925, 2062.008 2048 C 2051.890 1989.237, 2025.382 1834.026, 2010.461 1746.178 C 2001.802 1695.198, 1999.582 1677.217, 2000.313 1664 C 2001.245 1647.172, 2002.234 1645.013, 2015.771 1630.252 C 2032.694 1611.800, 2118.251 1526.486, 2186 1460.507 C 2257.695 1390.685, 2349.298 1299.765, 2364.525 1283.312 C 2375.142 1271.841, 2376.251 1270.233, 2383.379 1255.981 C 2391.330 1240.082, 2396.882 1224.582, 2399.132 1212 C 2401.174 1200.577, 2400.904 1167.768, 2398.675 1156.661 C 2396.105 1143.849, 2391.578 1131.041, 2385.188 1118.500 C 2366.502 1081.829, 2340.890 1057.603, 2303.500 1041.234 C 2291.023 1035.772, 2286.680 1034.463, 2269.500 1030.988 C 2243.404 1025.708, 2215.999 1021.419, 2119.500 1007.512 C 1856.651 969.630, 1802.015 961.572, 1793.534 959.434 C 1786.209 957.588, 1776.075 952.032, 1770.266 946.677 C 1758.966 936.262, 1740.845 901.917, 1641.698 703 C 1578.847 576.905, 1557.144 534.208, 1535.715 494.500 C 1526.751 477.890, 1526.265 477.224, 1514.520 465.470 C 1500.480 451.419, 1489.386 443.603, 1470.500 434.454 C 1448.374 423.736, 1432.072 420.010, 1405 419.482 C 1394.825 419.283, 1383.575 419.563, 1380 420.103 M 1601 1118.101 C 1590.645 1119.264, 1585.778 1120.582, 1578.636 1124.160 C 1554.666 1136.167, 1537.124 1156.878, 1532.471 1178.665 C 1529.544 1192.375, 1528.762 1229.514, 1529.320 1328.500 C 1529.992 1447.787, 1530.474 1454.583, 1539.170 1467.407 C 1549.848 1483.155, 1562.989 1494.771, 1579.491 1503.048 C 1592.322 1509.484, 1600.582 1511.120, 1621 1511.269 C 1637.689 1511.390, 1647.365 1510.144, 1658.265 1506.469 C 1681.741 1498.555, 1706.579 1471.034, 1711.485 1447.500 C 1714.230 1434.337, 1715.233 1397.754, 1715.368 1306 C 1715.532 1193.599, 1714.812 1183.241, 1705.537 1164.500 C 1699.159 1151.614, 1683.627 1135.653, 1668.966 1126.921 C 1655.238 1118.744, 1627.425 1115.135, 1601 1118.101 M 1167 1118.593 C 1153.763 1120.146, 1145.130 1123.394, 1132.064 1131.741 C 1114.498 1142.962, 1099.833 1164.203, 1096.570 1183.153 C 1093.736 1199.606, 1092.690 1238.629, 1092.594 1331.500 C 1092.493 1429.194, 1092.580 1431.200, 1097.680 1449 C 1101.872 1463.628, 1110.030 1476.188, 1123.719 1489.090 C 1141.741 1506.075, 1157.236 1511.385, 1189 1511.459 C 1204.282 1511.495, 1207.488 1511.214, 1214.299 1509.240 C 1227.492 1505.416, 1241.915 1496.798, 1252.699 1486.294 C 1258.709 1480.439, 1269.255 1466.404, 1272.593 1459.817 C 1277.402 1450.327, 1277.505 1447.437, 1277.429 1324.500 C 1277.338 1177.201, 1277.067 1173.064, 1266.479 1157.388 C 1260.020 1147.824, 1248.047 1135.465, 1239.849 1129.898 C 1226.936 1121.128, 1217.824 1119.031, 1190.500 1118.541 C 1179.500 1118.344, 1168.925 1118.368, 1167 1118.593" stroke="none" fill="#000000" fill-rule="evenodd"/><path d="M 1380 420.103 C 1366.530 422.137, 1337.066 433.362, 1324.522 441.237 C 1314.356 447.620, 1301.312 457.990, 1294.449 465.147 C 1277.270 483.060, 1267.466 501.505, 1153.851 729.641 C 1074.597 888.784, 1059.520 918.308, 1049.336 934.306 C 1039.557 949.667, 1036.203 952.340, 1020.500 957.287 C 1009.530 960.743, 1005.371 961.394, 853 983.530 C 629.493 1016, 530.369 1031.838, 512.842 1037.879 C 505.123 1040.539, 485.030 1050.885, 476.500 1056.591 C 461.942 1066.330, 445.551 1083.070, 435.464 1098.500 C 429.967 1106.910, 419.819 1126.675, 416.210 1136 C 405.817 1162.858, 405.586 1205.253, 415.680 1233.337 C 418.926 1242.369, 427.957 1260.499, 433.443 1269 C 435.751 1272.575, 444.873 1283.150, 453.715 1292.500 C 473.553 1313.477, 573.384 1412.852, 620 1458.024 C 685.022 1521.033, 779.499 1613.904, 790.290 1625.419 C 810.182 1646.646, 811.254 1653.850, 803.029 1711 C 793.623 1776.352, 762.310 1963.378, 748.555 2036.366 C 735.973 2103.132, 730 2148.089, 730 2176.030 C 730 2198.938, 733.639 2214.460, 744.039 2235.915 C 756.816 2262.273, 773.790 2282.453, 797.609 2299.603 C 815.171 2312.248, 835.229 2320.257, 862.917 2325.679 C 879.729 2328.971, 902.527 2327.435, 920 2321.832 C 943.607 2314.263, 1005.141 2283.254, 1198.500 2181.487 C 1379.123 2086.423, 1373.827 2089.129, 1386.417 2085.477 C 1391.044 2084.135, 1394.750 2083.872, 1403.417 2084.268 C 1425.472 2085.276, 1439.679 2091.873, 1580 2166.270 C 1703.088 2231.529, 1724.944 2243.069, 1790.453 2277.386 C 1860.796 2314.234, 1866.110 2316.812, 1884.500 2323.009 C 1908.185 2330.990, 1924.780 2331.903, 1948.438 2326.528 C 1963.775 2323.043, 1985.715 2315.450, 1994.268 2310.667 C 2018.240 2297.261, 2046.520 2269.531, 2058.348 2247.832 C 2079.969 2208.168, 2083.393 2181.500, 2074.508 2121.994 C 2073.647 2116.222, 2068.021 2082.925, 2062.008 2048 C 2051.890 1989.237, 2025.382 1834.026, 2010.461 1746.178 C 2001.802 1695.198, 1999.582 1677.217, 2000.313 1664 C 2001.245 1647.172, 2002.234 1645.013, 2015.771 1630.252 C 2032.694 1611.800, 2118.251 1526.486, 2186 1460.507 C 2257.695 1390.685, 2349.298 1299.765, 2364.525 1283.312 C 2375.142 1271.841, 2376.251 1270.233, 2383.379 1255.981 C 2391.330 1240.082, 2396.882 1224.582, 2399.132 1212 C 2401.174 1200.577, 2400.904 1167.768, 2398.675 1156.661 C 2396.105 1143.849, 2391.578 1131.041, 2385.188 1118.500 C 2366.502 1081.829, 2340.890 1057.603, 2303.500 1041.234 C 2291.023 1035.772, 2286.680 1034.463, 2269.500 1030.988 C 2243.404 1025.708, 2215.999 1021.419, 2119.500 1007.512 C 1856.651 969.630, 1802.015 961.572, 1793.534 959.434 C 1786.209 957.588, 1776.075 952.032, 1770.266 946.677 C 1758.966 936.262, 1740.845 901.917, 1641.698 703 C 1578.847 576.905, 1557.144 534.208, 1535.715 494.500 C 1526.751 477.890, 1526.265 477.224, 1514.520 465.470 C 1500.480 451.419, 1489.386 443.603, 1470.500 434.454 C 1448.374 423.736, 1432.072 420.010, 1405 419.482 C 1394.825 419.283, 1383.575 419.563, 1380 420.103 M 1601 1118.101 C 1590.645 1119.264, 1585.778 1120.582, 1578.636 1124.160 C 1554.666 1136.167, 1537.124 1156.878, 1532.471 1178.665 C 1529.544 1192.375, 1528.762 1229.514, 1529.320 1328.500 C 1529.992 1447.787, 1530.474 1454.583, 1539.170 1467.407 C 1549.848 1483.155, 1562.989 1494.771, 1579.491 1503.048 C 1592.322 1509.484, 1600.582 1511.120, 1621 1511.269 C 1637.689 1511.390, 1647.365 1510.144, 1658.265 1506.469 C 1681.741 1498.555, 1706.579 1471.034, 1711.485 1447.500 C 1714.230 1434.337, 1715.233 1397.754, 1715.368 1306 C 1715.532 1193.599, 1714.812 1183.241, 1705.537 1164.500 C 1699.159 1151.614, 1683.627 1135.653, 1668.966 1126.921 C 1655.238 1118.744, 1627.425 1115.135, 1601 1118.101 M 1167 1118.593 C 1153.763 1120.146, 1145.130 1123.394, 1132.064 1131.741 C 1114.498 1142.962, 1099.833 1164.203, 1096.570 1183.153 C 1093.736 1199.606, 1092.690 1238.629, 1092.594 1331.500 C 1092.493 1429.194, 1092.580 1431.200, 1097.680 1449 C 1101.872 1463.628, 1110.030 1476.188, 1123.719 1489.090 C 1141.741 1506.075, 1157.236 1511.385, 1189 1511.459 C 1204.282 1511.495, 1207.488 1511.214, 1214.299 1509.240 C 1227.492 1505.416, 1241.915 1496.798, 1252.699 1486.294 C 1258.709 1480.439, 1269.255 1466.404, 1272.593 1459.817 C 1277.402 1450.327, 1277.505 1447.437, 1277.429 1324.500 C 1277.338 1177.201, 1277.067 1173.064, 1266.479 1157.388 C 1260.020 1147.824, 1248.047 1135.465, 1239.849 1129.898 C 1226.936 1121.128, 1217.824 1119.031, 1190.500 1118.541 C 1179.500 1118.344, 1168.925 1118.368, 1167 1118.593" stroke="none" fill="#fbf38b" fill-rule="evenodd"/></svg>