<svg width="53" height="53" viewBox="0 0 53 53" fill="none" xmlns="http://www.w3.org/2000/svg">
<path d="M24.7822 3.12988C25.8691 2.61307 27.1309 2.61307 28.2178 3.12988C28.9599 3.48278 29.4935 4.15562 29.9775 4.94141C30.4699 5.74075 31.012 6.83376 31.6943 8.20703L34.0996 13.0479C34.5347 13.9236 34.6709 14.1746 34.8457 14.3623C35.0212 14.5507 35.2314 14.7038 35.4648 14.8125C35.6974 14.9207 35.9789 14.972 36.9463 15.1152L42.293 15.9072C43.8098 16.1318 45.0164 16.3091 45.9287 16.5303C46.8256 16.7478 47.6303 17.0478 48.1953 17.6445C49.0227 18.5185 49.4125 19.7187 49.2568 20.9121C49.1505 21.7269 48.6759 22.4424 48.0781 23.1455C47.47 23.8607 46.5981 24.7138 45.5029 25.7871L41.6426 29.5703C40.9438 30.2551 40.7466 30.4622 40.6221 30.6865C40.4972 30.9116 40.417 31.1586 40.3857 31.4141C40.3546 31.6687 40.3929 31.9523 40.5557 32.917L41.4551 38.2461C41.7102 39.7579 41.9138 40.9605 41.9854 41.8965C42.0557 42.8168 42.019 43.6757 41.626 44.3975C41.0504 45.4542 40.0296 46.1963 38.8467 46.417C38.039 46.5676 37.2117 46.3365 36.3584 45.9854C35.4903 45.628 34.409 45.0625 33.0498 44.3525L28.2598 41.8506C27.3927 41.3977 27.1346 41.2737 26.8828 41.2246C26.6301 41.1753 26.3699 41.1753 26.1172 41.2246C25.8654 41.2737 25.6073 41.3977 24.7402 41.8506L19.9502 44.3525C18.591 45.0625 17.5097 45.628 16.6416 45.9854C15.7883 46.3365 14.961 46.5676 14.1533 46.417C12.9704 46.1963 11.9496 45.4542 11.374 44.3975C10.981 43.6757 10.9443 42.8168 11.0146 41.8965C11.0862 40.9605 11.2898 39.7579 11.5449 38.2461L12.4443 32.917C12.6071 31.9523 12.6454 31.6687 12.6143 31.4141C12.583 31.1586 12.5028 30.9116 12.3779 30.6865C12.2534 30.4622 12.0562 30.2551 11.3574 29.5703L7.49707 25.7871C6.40186 24.7138 5.52996 23.8607 4.92188 23.1455C4.32414 22.4424 3.84952 21.7269 3.74316 20.9121C3.5875 19.7187 3.97731 18.5185 4.80469 17.6445C5.36967 17.0478 6.17436 16.7478 7.07129 16.5303C7.9836 16.3091 9.19022 16.1318 10.707 15.9072L16.0537 15.1152C17.0211 14.972 17.3026 14.9207 17.5352 14.8125C17.7686 14.7038 17.9788 14.5507 18.1543 14.3623C18.3291 14.1746 18.4653 13.9236 18.9004 13.0479L21.3057 8.20703C21.988 6.83377 22.5301 5.74075 23.0225 4.94141C23.5065 4.15562 24.0401 3.48278 24.7822 3.12988Z" stroke="black" stroke-width="2" stroke-linejoin="round"/>
<rect x="20" y="18" width="4" height="9" rx="2" fill="black"/>
<path d="M29 20C29 18.8954 29.8954 18 31 18C32.1046 18 33 18.8954 33 20V25C33 26.1046 32.1046 27 31 27C29.8954 27 29 26.1046 29 25V20Z" fill="black"/>
</svg>

