<svg xmlns="http://www.w3.org/2000/svg" width="662" height="655" viewBox="0 0 662 655" version="1.1"><path d="M 317.547 71.538 C 314.823 72.285, 309.423 74.476, 305.547 76.406 C 301.671 78.337, 296.088 81.911, 293.141 84.349 C 290.193 86.786, 285.787 91.193, 283.350 94.141 C 280.254 97.885, 271.387 114.701, 253.915 149.961 C 240.163 177.715, 228.751 200.582, 228.556 200.777 C 228.361 200.972, 206.668 204.236, 180.351 208.029 C 154.033 211.823, 127.970 215.781, 122.434 216.824 C 116.610 217.922, 109.588 220.049, 105.770 221.871 C 102.140 223.604, 96.406 227.099, 93.026 229.640 C 89.647 232.180, 84.695 236.961, 82.021 240.265 C 79.348 243.569, 75.753 249.046, 74.032 252.437 C 72.311 255.827, 70.033 261.954, 68.969 266.051 C 67.637 271.180, 67.029 276.906, 67.017 284.436 C 67.006 291.312, 67.611 297.809, 68.645 301.936 C 69.549 305.546, 71.142 310.491, 72.184 312.925 C 73.226 315.358, 76.064 320.308, 78.490 323.925 C 81.501 328.414, 95.472 342.680, 122.524 368.889 C 155.043 400.395, 162.054 407.657, 161.629 409.389 C 161.344 410.550, 157.948 430.175, 154.081 453 C 150.214 475.825, 146.373 498.325, 145.544 503 C 144.715 507.675, 144.029 516.234, 144.018 522.020 C 144.005 529.619, 144.572 534.606, 146.061 539.979 C 147.195 544.070, 149.558 550.327, 151.311 553.882 C 153.275 557.862, 157.432 563.451, 162.127 568.423 C 166.488 573.041, 172.484 578.119, 176.127 580.280 C 179.632 582.360, 186.100 585.143, 190.500 586.466 C 194.900 587.789, 201.875 589.165, 206 589.524 C 210.151 589.885, 217.171 589.671, 221.720 589.044 C 226.241 588.422, 232.541 587.021, 235.720 585.930 C 238.899 584.840, 257.025 575.782, 276 565.802 C 294.975 555.822, 311.850 546.909, 313.500 545.995 C 315.150 545.082, 321.073 541.943, 326.662 539.020 L 336.823 533.707 371.662 552.041 C 390.823 562.124, 410.550 572.550, 415.500 575.209 C 420.450 577.868, 427.650 581.558, 431.500 583.410 C 435.350 585.261, 441.454 587.501, 445.064 588.388 C 448.888 589.327, 455.813 590, 461.654 590 C 468.359 590, 474.234 589.347, 479.391 588.028 C 483.631 586.943, 490.341 584.384, 494.300 582.340 C 499.525 579.643, 503.969 576.137, 510.500 569.562 C 516.958 563.060, 520.389 558.664, 522.646 554 C 524.376 550.425, 526.583 545.250, 527.551 542.500 C 528.759 539.067, 529.440 533.425, 529.725 524.500 C 530.116 512.288, 529.804 509.529, 524.588 479 C 521.533 461.125, 517.517 437.597, 515.662 426.715 L 512.289 406.929 551.495 368.891 C 573.059 347.970, 592.328 328.720, 594.316 326.113 C 596.304 323.506, 599.335 318.373, 601.051 314.705 C 602.767 311.037, 604.802 305.666, 605.574 302.768 C 606.426 299.568, 606.981 292.472, 606.988 284.693 C 606.995 277.649, 606.501 269.774, 605.892 267.193 C 605.283 264.612, 602.827 258.450, 600.434 253.500 C 597.981 248.425, 593.875 242.021, 591.017 238.816 C 588.230 235.690, 583.287 231.130, 580.031 228.683 C 576.776 226.236, 570.702 222.814, 566.535 221.079 C 562.367 219.344, 556.604 217.493, 553.728 216.965 C 550.853 216.438, 528.250 213.067, 503.500 209.475 C 478.750 205.883, 455.640 202.534, 452.144 202.032 C 448.648 201.531, 445.670 200.981, 445.528 200.810 C 445.385 200.640, 434.228 178.137, 420.735 150.805 C 405.255 119.448, 394.538 98.948, 391.693 95.251 C 389.214 92.029, 385.106 87.689, 382.565 85.607 C 380.024 83.525, 375.370 80.270, 372.222 78.375 C 369.075 76.480, 362.989 73.820, 358.698 72.465 C 351.848 70.301, 349.165 70.011, 336.698 70.089 C 328.112 70.143, 320.542 70.716, 317.547 71.538 M 330.045 101.051 C 327.595 101.554, 323.212 103.129, 320.306 104.551 C 317.399 105.973, 313.104 109.055, 310.761 111.400 C 307.367 114.795, 302.659 123.380, 287.629 153.581 C 277.249 174.437, 264.886 199.304, 260.154 208.842 C 254.541 220.156, 250.625 226.843, 248.887 228.080 C 247.423 229.123, 243.361 230.405, 239.862 230.929 C 236.363 231.453, 209.908 235.308, 181.073 239.495 C 151.825 243.741, 126.281 247.938, 123.298 248.987 C 120.357 250.020, 115.747 252.483, 113.055 254.460 C 110.362 256.437, 106.602 260.404, 104.699 263.277 C 102.796 266.150, 100.482 270.736, 99.557 273.469 C 98.632 276.202, 97.875 281.166, 97.875 284.500 C 97.875 287.834, 98.630 292.798, 99.553 295.531 C 100.475 298.264, 102.692 302.689, 104.478 305.364 C 106.264 308.039, 126.350 328.251, 149.113 350.280 C 171.876 372.309, 191.285 391.495, 192.243 392.916 C 193.309 394.496, 193.989 397.405, 193.993 400.402 C 193.997 403.098, 191.061 422.673, 187.468 443.902 C 183.876 465.131, 180.515 484.525, 179.998 487 C 179.482 489.475, 178.102 497.350, 176.932 504.500 C 175.704 511.998, 174.960 520.279, 175.174 524.066 C 175.449 528.933, 176.386 532.343, 178.796 537.238 C 180.917 541.545, 183.955 545.586, 187.527 548.851 C 190.686 551.738, 195.229 554.686, 198.253 555.811 C 201.139 556.885, 205.821 558.078, 208.659 558.463 C 212.192 558.942, 215.796 558.655, 220.100 557.553 C 224.320 556.472, 242.159 547.621, 274.441 530.591 C 300.873 516.648, 324.945 504.011, 327.933 502.510 C 332.230 500.351, 334.346 499.875, 338.054 500.231 C 341.589 500.571, 348.241 503.584, 365.121 512.490 C 377.429 518.985, 390.200 525.752, 393.500 527.528 C 396.800 529.305, 408.500 535.482, 419.500 541.256 C 430.500 547.030, 441.904 553.003, 444.841 554.529 C 447.779 556.056, 452.619 557.871, 455.597 558.564 C 460.009 559.589, 462.193 559.575, 467.399 558.485 C 470.913 557.750, 475.680 556.183, 477.993 555.003 C 480.306 553.823, 484.211 551.003, 486.670 548.736 C 489.129 546.470, 492.220 542.774, 493.538 540.525 C 494.857 538.275, 496.652 534.424, 497.529 531.967 C 498.405 529.510, 499.133 524.800, 499.146 521.500 C 499.159 518.200, 498.245 510.325, 497.116 504 C 495.986 497.675, 492.776 479, 489.982 462.500 C 487.189 446, 483.799 426.211, 482.451 418.525 C 481.103 410.839, 480 402.881, 480 400.840 C 480 398.800, 480.417 396.034, 480.926 394.693 C 481.436 393.353, 501.123 373.522, 524.676 350.625 C 548.229 327.728, 568.537 307.468, 569.805 305.604 C 571.073 303.740, 573.058 299.804, 574.216 296.858 C 575.650 293.210, 576.320 289.265, 576.317 284.500 C 576.313 279.659, 575.624 275.726, 574.083 271.748 C 572.857 268.584, 570.141 263.828, 568.047 261.179 C 565.953 258.530, 562.049 254.973, 559.370 253.276 C 556.692 251.578, 552.362 249.476, 549.748 248.605 C 547.134 247.735, 537.009 245.874, 527.248 244.470 C 517.487 243.067, 492.400 239.452, 471.500 236.438 C 450.600 233.424, 432.252 230.704, 430.726 230.394 C 429.200 230.084, 426.546 228.647, 424.827 227.201 C 422.487 225.232, 415.108 211.208, 395.424 171.318 C 380.971 142.028, 367.685 116.247, 365.900 114.025 C 364.115 111.804, 360.576 108.653, 358.035 107.022 C 355.494 105.392, 351.576 103.409, 349.328 102.616 C 347.081 101.823, 342.825 100.941, 339.871 100.655 C 336.917 100.370, 332.495 100.548, 330.045 101.051 M 276.500 269.146 C 274.850 269.756, 272.033 271.349, 270.241 272.686 C 268.448 274.022, 265.992 277.002, 264.783 279.308 C 262.716 283.250, 262.561 285.068, 262.184 309.823 C 261.963 324.301, 262.091 339.022, 262.467 342.535 C 262.948 347.023, 263.963 350.133, 265.879 352.987 C 267.380 355.221, 270.331 358.220, 272.436 359.650 C 275.215 361.538, 278.009 362.392, 282.630 362.762 C 287.163 363.126, 290.235 362.800, 293.303 361.628 C 295.672 360.724, 299.203 358.300, 301.149 356.242 C 303.096 354.184, 305.226 351.126, 305.884 349.446 C 306.748 347.241, 306.999 337.349, 306.790 313.859 C 306.500 281.325, 306.500 281.325, 303.766 277.413 C 302.263 275.261, 299.435 272.419, 297.482 271.098 C 294.724 269.232, 292.320 268.622, 286.716 268.366 C 282.747 268.185, 278.150 268.536, 276.500 269.146 M 380.822 268.980 C 379.349 269.425, 376.559 270.997, 374.622 272.475 C 372.685 273.952, 370.178 277.067, 369.050 279.396 C 367.115 283.393, 367 285.416, 367 315.348 C 367 339.681, 367.314 347.813, 368.347 350.282 C 369.088 352.052, 371.538 355.163, 373.790 357.196 C 376.043 359.229, 379.825 361.417, 382.193 362.057 C 384.562 362.698, 389.157 362.984, 392.405 362.692 C 396.713 362.305, 399.416 361.384, 402.405 359.286 C 404.657 357.705, 407.625 354.406, 409 351.956 C 411.481 347.533, 411.502 347.284, 411.819 318.740 C 412.030 299.664, 411.749 288.106, 410.983 284.418 C 410.088 280.105, 408.893 277.885, 405.664 274.532 C 403.078 271.847, 399.985 269.793, 397.500 269.110 C 395.300 268.506, 391.250 268.047, 388.500 268.092 C 385.750 268.136, 382.295 268.536, 380.822 268.980" stroke="none" fill="#000000" fill-rule="evenodd"/></svg>