<svg xmlns="http://www.w3.org/2000/svg" width="2438" height="2400" viewBox="0 0 2438 2400" version="1.1"><path d="M 858.500 430.008 C 845.587 431.413, 834.572 435.659, 820.840 444.526 C 786.074 466.975, 764.080 502.728, 754.055 553.094 C 752.369 561.567, 750.253 570.482, 749.353 572.904 C 746.991 579.264, 741.921 584.343, 730.006 592.289 C 704.026 609.615, 680.993 628.668, 662.559 648.083 C 638.916 672.985, 615.057 705.386, 595.978 738.500 C 581.394 763.813, 572.296 774.707, 557.307 784.805 C 512.937 814.700, 481.839 853.178, 458.953 906.500 C 445.092 938.796, 432.422 987.101, 427.610 1026 C 416.926 1112.361, 423.460 1285.655, 442.597 1423.500 C 473.948 1649.318, 549.197 1793.364, 677 1872.207 C 758.229 1922.318, 878.164 1956.154, 1014.500 1967.422 C 1078.283 1972.693, 1152.075 1971.942, 1208 1965.452 C 1289.676 1955.974, 1362.060 1935.297, 1428.500 1902.466 C 1484.236 1874.925, 1519.603 1849.582, 1562.676 1806.320 C 1587.191 1781.697, 1603.646 1761.827, 1619.250 1738 C 1629.387 1722.522, 1633.408 1717.974, 1639.033 1715.628 C 1643.367 1713.820, 1653.812 1712.423, 1673.500 1711.017 C 1703.893 1708.847, 1723.610 1705.690, 1751.580 1698.516 C 1831.023 1678.139, 1893.086 1633.012, 1936.088 1564.359 C 1968.410 1512.756, 1989.323 1445.079, 1997.691 1365 C 2000.149 1341.479, 2000.152 1279.863, 1997.697 1258 C 1992.624 1212.830, 1983.317 1177.534, 1968.560 1147.500 C 1933.129 1075.386, 1873.194 1020.284, 1793.888 986.910 C 1787.075 984.043, 1770.735 978.134, 1757.577 973.781 C 1744.420 969.427, 1731.820 964.944, 1729.577 963.819 C 1721.455 959.745, 1719.807 957.313, 1712.605 938.775 C 1700.903 908.654, 1686.053 883.592, 1662.506 854.230 C 1643.332 830.319, 1620.951 809.146, 1595.239 790.590 C 1575.464 776.320, 1568.454 767.917, 1556.655 744.341 C 1544.133 719.321, 1523.855 689.456, 1504.139 667 C 1500.517 662.875, 1489.378 651.144, 1479.386 640.931 C 1454.925 615.932, 1455.908 618.036, 1454.902 588.500 C 1453.857 557.814, 1451.874 544.564, 1445.424 525.144 C 1432.604 486.547, 1406.605 461.010, 1370.206 451.264 C 1357.004 447.729, 1336.717 447.576, 1321 450.894 C 1286.593 458.156, 1251.485 475.368, 1223.962 498.468 C 1208.010 511.855, 1206.829 512.517, 1199.072 512.406 C 1195.457 512.354, 1183.500 510.456, 1172.500 508.187 C 1138.448 501.162, 1120.613 499.545, 1060 497.985 C 1039.375 497.454, 1020.054 496.530, 1017.065 495.931 C 1008.392 494.193, 1001.250 489.920, 984.341 476.351 C 942.268 442.586, 916.206 431.261, 877 429.703 C 870.675 429.452, 862.350 429.589, 858.500 430.008 M 861.389 472.421 C 841.827 476.891, 820.812 496.304, 808.188 521.566 C 800.853 536.246, 795.378 556.200, 792.072 580.310 C 790.955 588.455, 789.201 597.005, 788.175 599.310 C 785.726 604.812, 780.278 609.673, 764.500 620.439 C 712.396 655.991, 680.164 687.184, 652.763 728.570 C 596.372 813.743, 581.553 893.626, 612.796 944 C 626.871 966.692, 663.449 993.387, 706 1012.022 C 767.888 1039.125, 864.913 1058.165, 984 1066.578 C 1014.411 1068.727, 1102.186 1069.619, 1133.050 1068.093 C 1306.749 1059.506, 1431.534 1028.445, 1498.500 977.127 C 1513.076 965.956, 1528.742 948.700, 1537.351 934.330 C 1546.587 918.915, 1549.916 906.009, 1550.720 882.500 C 1551.654 855.228, 1549.124 837.134, 1540.990 812.896 C 1529.814 779.596, 1511.340 745.480, 1487.275 713.703 C 1474.386 696.683, 1468.590 690.329, 1441.486 663.500 C 1424.167 646.358, 1414.467 636.001, 1413.012 633.099 C 1410.557 628.203, 1410.367 623.308, 1411.845 603 C 1414.086 572.193, 1407.123 534.308, 1396.088 517.270 C 1388.190 505.075, 1374.482 495.801, 1359.394 492.444 C 1348.032 489.916, 1327.626 490.839, 1315.500 494.429 C 1294.989 500.501, 1274.916 512.977, 1235 544.463 C 1226.475 551.187, 1218.517 557.209, 1217.316 557.845 C 1213.364 559.935, 1206.701 559.069, 1184.101 553.525 C 1171.824 550.513, 1157.217 547.377, 1151.640 546.554 C 1136.128 544.266, 1110.530 543.024, 1078 542.978 C 1039.701 542.925, 1009.393 541.585, 1000.496 539.552 C 990.909 537.361, 985.111 533.787, 972.525 522.311 C 941.895 494.381, 919.060 480.166, 894.832 473.945 C 884.261 471.231, 869.535 470.560, 861.389 472.421 M 976.398 664.946 C 964.301 667.836, 956.019 679.027, 956.006 692.500 C 956.001 698.429, 960.220 708.069, 964.624 712.191 C 977.480 724.221, 1000.433 719.814, 1008.422 703.780 C 1016.196 688.180, 1006.801 670.309, 988.289 665.487 C 982.099 663.875, 981.076 663.828, 976.398 664.946 M 1133 673.143 C 1131.075 673.669, 1127.025 675.801, 1124 677.881 C 1113.080 685.389, 1108.680 700.703, 1113.991 712.714 C 1118.340 722.550, 1125.073 726.920, 1137.152 727.748 C 1146.274 728.373, 1152.037 726.662, 1157.772 721.627 C 1163.174 716.885, 1165.367 711.033, 1165.330 701.468 C 1165.313 697.050, 1164.756 691.792, 1164.094 689.784 C 1162.530 685.045, 1156.312 679.494, 1148.623 675.971 C 1141.146 672.545, 1137.563 671.897, 1133 673.143 M 546.326 852.093 C 530.930 868.930, 524.779 876.496, 517.479 887.578 C 489.481 930.080, 474.778 985.379, 468.978 1070 C 468.393 1078.525, 467.652 1104.625, 467.330 1128 C 466.123 1215.586, 471.032 1298.319, 483.055 1393 C 513.160 1630.091, 583.404 1767.074, 714.951 1845.226 C 743.932 1862.443, 779.288 1876.283, 829.158 1889.930 C 886.088 1905.509, 964.234 1919.554, 1019 1924.050 C 1039.907 1925.766, 1123.808 1926.422, 1152.558 1925.094 C 1209.150 1922.480, 1239.109 1918.433, 1283.500 1907.406 C 1404.364 1877.382, 1503.876 1818.361, 1564.117 1740.973 C 1574.443 1727.707, 1582.761 1714.978, 1593.110 1696.602 C 1601.638 1681.459, 1608.040 1673.065, 1613.028 1670.486 C 1618.746 1667.529, 1626.428 1666.799, 1660.500 1665.978 C 1697.038 1665.098, 1711.074 1663.832, 1732.739 1659.462 C 1758.436 1654.278, 1785.993 1643.111, 1811.419 1627.576 C 1845.858 1606.535, 1877.139 1575.420, 1898.456 1541 C 1911.815 1519.429, 1925.931 1487.537, 1933.864 1461 C 1943.307 1429.412, 1948.285 1403.873, 1952.577 1365 C 1954.734 1345.464, 1955.640 1286.103, 1954.083 1266.335 C 1950.663 1222.916, 1944.640 1200.179, 1927.505 1166 C 1909.763 1130.611, 1890.457 1104.785, 1864.925 1082.287 C 1842.669 1062.675, 1825.287 1051.123, 1797.500 1037.474 C 1774.756 1026.303, 1762.687 1021.733, 1729 1011.541 C 1688.942 999.421, 1685.049 997.010, 1681.105 981.880 C 1677.936 969.724, 1674.502 960.179, 1668.920 948.019 C 1649.737 906.224, 1616.129 858.591, 1598.738 848.546 C 1590.912 844.026, 1590.986 843.830, 1591.147 868.717 C 1591.269 887.585, 1590.993 891.956, 1589.083 901.379 C 1577.005 960.974, 1541.364 1002.015, 1471 1037.353 C 1386.282 1079.901, 1271.728 1102.329, 1115 1107.055 C 964.687 1111.587, 806.538 1091.238, 709 1054.815 C 660.926 1036.863, 629.711 1017.991, 603.897 991.272 C 588.701 975.543, 578.833 960.111, 569.397 937.321 C 561.599 918.485, 560.866 913.330, 560.121 872.093 L 559.500 837.687 546.326 852.093 M 1688.225 1252.660 C 1684.219 1254.634, 1675.940 1263.523, 1670.973 1271.182 C 1661.595 1285.643, 1655.705 1314.185, 1651.923 1363.500 C 1648.782 1404.449, 1656.176 1430.667, 1672.893 1437.859 C 1684.830 1442.994, 1703.231 1442.864, 1718.903 1437.533 C 1728.956 1434.114, 1733.919 1431.021, 1742.629 1422.748 C 1772.147 1394.708, 1783.769 1338.675, 1768.306 1298.944 C 1760.930 1279.993, 1747.924 1267.909, 1724.721 1258.449 C 1707.664 1251.495, 1694.745 1249.446, 1688.225 1252.660 M 1704.586 1299.833 C 1701.512 1305.778, 1696.106 1373.365, 1696.874 1396.250 C 1696.963 1398.905, 1697.450 1400, 1698.540 1400 C 1704.131 1400, 1715.542 1389.389, 1722.276 1377.927 C 1729.376 1365.841, 1733.572 1348.122, 1732.803 1333.472 C 1732.099 1320.049, 1724.907 1307.763, 1713.225 1300.025 C 1707.575 1296.284, 1706.435 1296.258, 1704.586 1299.833" stroke="none" fill="#000000" fill-rule="evenodd"/><path d="M 864.302 472.101 C 843.129 475.634, 821.274 495.188, 807.972 522.500 C 800.298 538.256, 795.394 556.974, 791.539 585.214 C 790.718 591.233, 789.205 597.637, 788.088 599.827 C 785.284 605.323, 778.566 611.026, 759.721 623.909 C 706.460 660.319, 673.610 693.935, 644.322 742 C 619.562 782.632, 603.615 822.754, 598.562 857.128 C 596.580 870.613, 596.546 893.135, 598.491 904.290 C 604.485 938.661, 620.247 960.645, 656 984.503 C 703.375 1016.115, 761.728 1036.072, 850.327 1050.961 C 962.843 1069.870, 1083.513 1073.962, 1203.500 1062.937 C 1369.753 1047.660, 1483.095 1007.268, 1528.614 947.075 C 1536.007 937.298, 1545.277 919.362, 1547.517 910.500 C 1550.385 899.150, 1551.510 877.789, 1550.185 859.830 C 1548.750 840.388, 1546.399 828.281, 1541.042 812.744 C 1530.973 783.543, 1515.741 754.067, 1496.318 726.199 C 1481.874 705.474, 1469.594 691.406, 1442.462 664.500 C 1424.432 646.620, 1414.461 635.980, 1412.943 633 C 1410.348 627.907, 1410.310 627.005, 1411.492 598.499 C 1412.805 566.864, 1407.679 537.589, 1397.747 520 C 1390.321 506.848, 1374.852 495.771, 1359.315 492.479 C 1340.084 488.404, 1313.338 492.616, 1295.096 502.593 C 1280.048 510.823, 1255.164 528.357, 1231.820 547.180 C 1218.739 557.727, 1215.923 559.285, 1210.198 559.140 C 1207.614 559.075, 1196.725 556.815, 1186 554.120 C 1149.413 544.924, 1141.669 544.182, 1070 543.004 C 1039.475 542.502, 1011.350 541.612, 1007.500 541.027 C 992.987 538.820, 987.237 535.819, 973.530 523.298 C 937.597 490.471, 911.395 475.494, 883.854 472.041 C 874.462 470.863, 871.669 470.872, 864.302 472.101 M 973.969 665.480 C 964.226 668.603, 955.841 680.268, 955.706 690.887 C 955.513 706.201, 967.822 719.274, 982.501 719.346 C 993.534 719.399, 1003.886 713.020, 1008.686 703.210 C 1013.872 692.610, 1011.524 681.425, 1002.337 672.957 C 994.203 665.459, 983.136 662.542, 973.969 665.480 M 1132.703 672.968 C 1127.640 674.568, 1119.966 680.190, 1117.041 684.440 C 1107.013 699.015, 1110.882 717.679, 1125.500 725.246 C 1130.630 727.901, 1142.240 728.753, 1148.690 726.947 C 1155.479 725.046, 1162.326 718.126, 1164.402 711.068 C 1166.283 704.674, 1166.409 700.007, 1164.892 692.933 C 1163.437 686.150, 1158.592 680.827, 1149.878 676.439 C 1142.488 672.717, 1137.004 671.609, 1132.703 672.968" stroke="none" fill="#fffef2" fill-rule="evenodd"/></svg>