<svg width="434" height="567" viewBox="0 0 434 567" fill="none" xmlns="http://www.w3.org/2000/svg">
<path d="M223.258 8.16351C333.715 8.16356 423.258 97.7066 423.258 208.164V439.068C423.879 449.964 424.188 464.808 424.188 484.631C424.188 515.531 424.187 552.037 378.829 558.165C363.392 558.165 349.416 551.947 339.295 541.893C338.884 541.485 338.679 541.281 338.459 541.206C338.259 541.139 338.064 541.134 337.861 541.193C337.638 541.257 337.423 541.452 336.994 541.841C326.765 551.117 312.871 556.82 297.566 556.82C282.208 556.82 268.273 551.078 258.033 541.746C257.622 541.37 257.415 541.182 257.199 541.117C257.003 541.057 256.814 541.057 256.617 541.117C256.402 541.182 256.195 541.37 255.783 541.746C245.544 551.078 231.609 556.82 216.251 556.82C200.893 556.82 186.956 551.078 176.717 541.746C176.305 541.37 176.099 541.182 175.883 541.117C175.686 541.057 175.498 541.057 175.301 541.117C175.085 541.182 174.879 541.37 174.467 541.746C164.228 551.078 150.292 556.82 134.934 556.82C119.862 556.82 106.159 551.29 95.9759 542.264C95.5516 541.888 95.3391 541.7 95.1194 541.638C94.9187 541.581 94.7275 541.585 94.5296 541.651C94.3131 541.723 94.1098 541.922 93.7034 542.317C83.6182 552.121 69.8198 558.165 54.6009 558.165C15.2035 552.843 10.0264 524.602 9.34598 497.023C9.27958 496.824 9.2425 496.611 9.24246 496.39V208.164C9.24246 97.7066 98.7855 8.16351 209.242 8.16351H223.258Z" fill="url(#paint0_linear_12_231)" fill-opacity="0.5"/>
<path d="M223.258 8.16351V1.66351V1.66351V8.16351ZM423.258 439.068H416.758V439.253L416.769 439.438L423.258 439.068ZM424.188 484.631H430.688V484.631H424.188ZM378.829 558.165V564.665H379.266L379.7 564.607L378.829 558.165ZM339.295 541.893L343.876 537.281L339.295 541.893ZM338.459 541.206L340.547 535.051L340.544 535.05L338.459 541.206ZM337.861 541.193L336.058 534.948L336.057 534.948L337.861 541.193ZM336.994 541.841L341.361 546.656H341.361L336.994 541.841ZM297.566 556.82L297.566 563.32H297.566V556.82ZM258.033 541.746L253.655 546.55H253.655L258.033 541.746ZM257.199 541.117L259.093 534.899L259.091 534.898L257.199 541.117ZM256.617 541.117L254.726 534.898L254.724 534.899L256.617 541.117ZM255.783 541.746L260.162 546.55H260.162L255.783 541.746ZM216.251 556.82V563.32H216.251L216.251 556.82ZM176.717 541.746L172.339 546.55H172.339L176.717 541.746ZM175.883 541.117L177.777 534.899L177.774 534.898L175.883 541.117ZM175.301 541.117L173.41 534.898L173.407 534.899L175.301 541.117ZM174.467 541.746L178.846 546.55L178.846 546.55L174.467 541.746ZM134.934 556.82L134.934 563.32H134.934V556.82ZM95.9759 542.264L91.6642 547.128H91.6642L95.9759 542.264ZM95.1194 541.638L96.8926 535.385L96.8923 535.385L95.1194 541.638ZM94.5296 541.651L92.4705 535.486L92.4679 535.486L94.5296 541.651ZM93.7034 542.317L98.2343 546.977L98.2343 546.977L93.7034 542.317ZM54.6009 558.165L53.7306 564.607L54.1638 564.665H54.6009V558.165ZM9.34598 497.023L15.844 496.863L15.82 495.889L15.5118 494.965L9.34598 497.023ZM9.24246 496.39H2.74246V496.391L9.24246 496.39ZM223.258 8.16351V14.6635C330.125 14.6636 416.758 101.296 416.758 208.164H423.258H429.758C429.758 94.1167 337.305 1.66356 223.258 1.66351V8.16351ZM423.258 208.164H416.758V439.068H423.258H429.758V208.164H423.258ZM423.258 439.068L416.769 439.438C417.379 450.151 417.688 464.852 417.688 484.631H424.188H430.688C430.688 464.763 430.379 449.776 429.748 438.698L423.258 439.068ZM424.188 484.631H417.688C417.688 500.411 417.594 515.873 412.508 528.211C410.045 534.186 406.454 539.273 401.161 543.229C395.844 547.203 388.443 550.308 377.959 551.724L378.829 558.165L379.7 564.607C391.894 562.959 401.503 559.203 408.943 553.642C416.407 548.064 421.32 540.945 424.527 533.165C430.781 517.993 430.688 499.751 430.688 484.631H424.188ZM378.829 558.165V551.665C365.173 551.665 352.826 546.171 343.876 537.281L339.295 541.893L334.714 546.505C346.007 557.722 361.612 564.665 378.829 564.665V558.165ZM339.295 541.893L343.876 537.281C343.74 537.147 343.387 536.79 343.029 536.484C342.644 536.154 341.798 535.475 340.547 535.051L338.459 541.206L336.372 547.362C335.34 547.012 334.707 546.472 334.581 546.365C334.503 546.298 334.467 546.262 334.508 546.301C334.548 546.34 334.602 546.393 334.714 546.505L339.295 541.893ZM338.459 541.206L340.544 535.05C339.088 534.557 337.537 534.521 336.058 534.948L337.861 541.193L339.663 547.438C339.181 547.577 338.623 547.664 338.012 547.65C337.402 547.636 336.849 547.524 336.375 547.363L338.459 541.206ZM337.861 541.193L336.057 534.948C334.782 535.317 333.904 535.96 333.506 536.271C333.136 536.56 332.767 536.9 332.628 537.026L336.994 541.841L341.361 546.656C341.479 546.549 341.536 546.498 341.578 546.46C341.622 546.422 341.585 546.456 341.504 546.519C341.376 546.619 340.717 547.133 339.665 547.437L337.861 541.193ZM336.994 541.841L332.628 537.026C323.583 545.228 311.241 550.32 297.566 550.32V556.82V563.32C314.501 563.32 329.947 557.006 341.361 546.656L336.994 541.841ZM297.566 556.82L297.566 550.32C283.844 550.32 271.466 545.193 262.412 536.941L258.033 541.746L253.655 546.55C265.079 556.962 280.572 563.32 297.566 563.32L297.566 556.82ZM258.033 541.746L262.412 536.941C262.277 536.818 261.919 536.486 261.557 536.202C261.163 535.893 260.318 535.272 259.093 534.899L257.199 541.117L255.306 547.335C254.297 547.027 253.663 546.532 253.529 546.428C253.448 546.364 253.411 546.329 253.45 546.364C253.489 546.399 253.543 546.447 253.655 546.55L258.033 541.746ZM257.199 541.117L259.091 534.898C257.661 534.463 256.156 534.463 254.726 534.898L256.617 541.117L258.509 547.335C258.043 547.477 257.502 547.572 256.908 547.572C256.315 547.572 255.774 547.477 255.308 547.335L257.199 541.117ZM256.617 541.117L254.724 534.899C253.499 535.272 252.654 535.893 252.26 536.202C251.898 536.486 251.54 536.818 251.405 536.941L255.783 541.746L260.162 546.55C260.274 546.447 260.328 546.399 260.367 546.364C260.406 546.329 260.369 546.364 260.288 546.428C260.154 546.532 259.52 547.027 258.511 547.335L256.617 541.117ZM255.783 541.746L251.405 536.941C242.351 545.193 229.973 550.32 216.251 550.32L216.251 556.82L216.251 563.32C233.245 563.32 248.738 556.962 260.162 546.55L255.783 541.746ZM216.251 556.82V550.32C202.529 550.32 190.149 545.193 181.096 536.942L176.717 541.746L172.339 546.55C183.763 556.962 199.258 563.32 216.251 563.32V556.82ZM176.717 541.746L181.096 536.942C180.961 536.818 180.602 536.486 180.24 536.202C179.847 535.893 179.001 535.272 177.777 534.899L175.883 541.117L173.989 547.335C172.98 547.027 172.346 546.533 172.213 546.428C172.132 546.364 172.094 546.329 172.134 546.364C172.173 546.399 172.226 546.447 172.339 546.55L176.717 541.746ZM175.883 541.117L177.774 534.898C176.345 534.463 174.84 534.463 173.41 534.898L175.301 541.117L177.192 547.335C176.727 547.477 176.186 547.572 175.592 547.572C174.998 547.572 174.458 547.477 173.992 547.335L175.883 541.117ZM175.301 541.117L173.407 534.899C172.183 535.272 171.337 535.893 170.944 536.202C170.582 536.486 170.224 536.818 170.089 536.942L174.467 541.746L178.846 546.55C178.958 546.447 179.011 546.399 179.05 546.364C179.09 546.329 179.052 546.364 178.971 546.428C178.838 546.533 178.204 547.027 177.195 547.335L175.301 541.117ZM174.467 541.746L170.089 536.941C161.035 545.193 148.656 550.32 134.934 550.32V556.82V563.32C151.927 563.32 167.421 556.962 178.846 546.55L174.467 541.746ZM134.934 556.82L134.934 550.32C121.467 550.32 109.294 545.383 100.287 537.4L95.9759 542.264L91.6642 547.128C103.024 557.198 118.257 563.32 134.934 563.32L134.934 556.82ZM95.9759 542.264L100.288 537.4C100.147 537.275 99.7791 536.944 99.4076 536.661C99.0045 536.354 98.1392 535.738 96.8926 535.385L95.1194 541.638L93.3463 547.892C92.3193 547.6 91.6701 547.109 91.5342 547.006C91.4516 546.943 91.4131 546.908 91.4539 546.943C91.4939 546.977 91.5492 547.026 91.6642 547.128L95.9759 542.264ZM95.1194 541.638L96.8923 535.385C95.4545 534.977 93.9275 534.999 92.4705 535.486L94.5296 541.651L96.5886 547.816C96.1112 547.976 95.5606 548.084 94.9583 548.097C94.3572 548.109 93.812 548.024 93.3465 547.892L95.1194 541.638ZM94.5296 541.651L92.4679 535.486C91.23 535.9 90.3904 536.564 90.0075 536.885C89.6541 537.182 89.3025 537.53 89.1725 537.656L93.7034 542.317L98.2343 546.977C98.3467 546.868 98.4002 546.816 98.4407 546.778C98.4816 546.739 98.446 546.775 98.3678 546.84C98.2424 546.946 97.6127 547.474 96.5912 547.815L94.5296 541.651ZM93.7034 542.317L89.1725 537.656C80.2551 546.326 68.0651 551.665 54.6009 551.665V558.165V564.665C71.5745 564.665 86.9814 557.917 98.2343 546.977L93.7034 542.317ZM54.6009 558.165L55.4711 551.724C37.4868 549.294 28.2781 541.896 23.1156 532.746C17.6584 523.074 16.1814 510.536 15.844 496.863L9.34598 497.023L2.84796 497.183C3.19105 511.089 4.64274 526.461 11.7935 539.135C19.2391 552.331 32.3176 561.714 53.7306 564.607L54.6009 558.165ZM9.34598 497.023L15.5118 494.965C15.6562 495.398 15.7424 495.879 15.7425 496.389L9.24246 496.39L2.74246 496.391C2.7426 497.344 2.90296 498.25 3.18018 499.08L9.34598 497.023ZM9.24246 496.39H15.7425V208.164H9.24246H2.74246V496.39H9.24246ZM9.24246 208.164H15.7425C15.7425 101.296 102.375 14.6635 209.242 14.6635V8.16351V1.66351C95.1957 1.66351 2.74246 94.1167 2.74246 208.164H9.24246ZM209.242 8.16351V14.6635H223.258V8.16351V1.66351H209.242V8.16351Z" fill="#E15F5F"/>
<path d="M201.243 182.165C217.864 196.447 214.621 196.447 231.243 182.165" stroke="#E15F5F" stroke-width="13" stroke-linecap="round"/>
<path d="M134.242 178.165C158.242 164.314 158.242 167.016 134.242 153.165" stroke="#E15F5F" stroke-width="13" stroke-linecap="round"/>
<path d="M298.242 178.165C274.242 164.314 274.242 167.016 298.242 153.165" stroke="#E15F5F" stroke-width="13" stroke-linecap="round"/>
<defs>
<linearGradient id="paint0_linear_12_231" x1="216.715" y1="8.16351" x2="216.715" y2="558.165" gradientUnits="userSpaceOnUse">
<stop offset="0.394243" stop-color="#FFA2A2"/>
<stop offset="1" stop-color="#998585" stop-opacity="0"/>
</linearGradient>
</defs>
</svg>
