<svg width="428" height="563" viewBox="0 0 428 563" fill="none" xmlns="http://www.w3.org/2000/svg">
<path d="M220.516 6.5C330.973 6.50005 420.516 96.0431 420.516 206.5V437.404C421.137 448.3 421.445 463.144 421.445 482.968C421.445 513.868 421.445 550.374 376.087 556.502C360.65 556.502 346.674 550.283 336.553 540.229C336.142 539.821 335.936 539.617 335.717 539.543C335.516 539.475 335.322 539.471 335.118 539.529C334.896 539.594 334.681 539.789 334.252 540.178C324.022 549.454 310.129 555.156 294.823 555.156C279.466 555.156 265.53 549.414 255.291 540.082C254.879 539.707 254.673 539.519 254.457 539.453C254.26 539.393 254.072 539.393 253.875 539.453C253.659 539.519 253.453 539.707 253.041 540.082C242.802 549.414 228.866 555.156 213.509 555.156C198.151 555.156 184.214 549.414 173.975 540.082C173.563 539.707 173.356 539.519 173.141 539.453C172.944 539.393 172.755 539.393 172.559 539.453C172.343 539.519 172.136 539.707 171.725 540.082C161.485 549.414 147.549 555.156 132.191 555.156C117.12 555.156 103.416 549.627 93.2334 540.601C92.8092 540.225 92.5966 540.037 92.377 539.975C92.1762 539.918 91.985 539.921 91.7871 539.987C91.5706 540.06 91.3673 540.258 90.9609 540.653C80.8758 550.458 67.0773 556.502 51.8584 556.502C12.461 551.179 7.28396 522.939 6.60352 495.359C6.53712 495.16 6.50003 494.948 6.5 494.727V206.5C6.5 96.0431 96.0431 6.5 206.5 6.5H220.516Z" fill="url(#paint0_linear_12_231)" fill-opacity="0.5"/>
<path d="M220.516 6.5V0V0V6.5ZM420.516 437.404H414.016V437.589L414.026 437.774L420.516 437.404ZM421.445 482.968H427.945V482.968H421.445ZM376.087 556.502V563.002H376.524L376.957 562.943L376.087 556.502ZM336.553 540.229L341.134 535.618L336.553 540.229ZM335.717 539.543L337.804 533.387L337.801 533.386L335.717 539.543ZM335.118 539.529L333.316 533.284L333.314 533.285L335.118 539.529ZM334.252 540.178L338.618 544.993H338.618L334.252 540.178ZM294.823 555.156L294.823 561.656H294.823V555.156ZM255.291 540.082L250.913 544.886H250.913L255.291 540.082ZM254.457 539.453L256.351 533.235L256.348 533.234L254.457 539.453ZM253.875 539.453L251.984 533.234L251.981 533.235L253.875 539.453ZM253.041 540.082L257.419 544.886H257.419L253.041 540.082ZM213.509 555.156V561.656H213.509L213.509 555.156ZM173.975 540.082L169.596 544.886H169.596L173.975 540.082ZM173.141 539.453L175.034 533.235L175.032 533.234L173.141 539.453ZM172.559 539.453L170.667 533.234L170.665 533.235L172.559 539.453ZM171.725 540.082L176.103 544.886L176.103 544.886L171.725 540.082ZM132.191 555.156L132.191 561.656H132.191V555.156ZM93.2334 540.601L88.9218 545.465H88.9218L93.2334 540.601ZM92.377 539.975L94.1501 533.721L94.1499 533.721L92.377 539.975ZM91.7871 539.987L89.7281 533.822L89.7255 533.823L91.7871 539.987ZM90.9609 540.653L95.4918 545.314L95.4919 545.314L90.9609 540.653ZM51.8584 556.502L50.9882 562.943L51.4213 563.002H51.8584V556.502ZM6.60352 495.359L13.1015 495.199L13.0775 494.226L12.7693 493.302L6.60352 495.359ZM6.5 494.727H0V494.728L6.5 494.727ZM220.516 6.5V13C327.383 13 414.016 99.6329 414.016 206.5H420.516H427.016C427.016 92.4532 334.562 4.76837e-05 220.516 0V6.5ZM420.516 206.5H414.016V437.404H420.516H427.016V206.5H420.516ZM420.516 437.404L414.026 437.774C414.637 448.487 414.945 463.189 414.945 482.968H421.445H427.945C427.945 463.1 427.637 448.113 427.005 437.034L420.516 437.404ZM421.445 482.968H414.945C414.945 498.748 414.852 514.209 409.766 526.547C407.303 532.522 403.712 537.61 398.418 541.566C393.101 545.539 385.701 548.644 375.217 550.06L376.087 556.502L376.957 562.943C389.152 561.296 398.761 557.539 406.201 551.979C413.665 546.401 418.578 539.281 421.785 531.501C428.039 516.33 427.945 498.088 427.945 482.968H421.445ZM376.087 556.502V550.002C362.43 550.002 350.083 544.508 341.134 535.618L336.553 540.229L331.972 544.841C343.265 556.059 358.87 563.002 376.087 563.002V556.502ZM336.553 540.229L341.134 535.618C340.998 535.483 340.645 535.127 340.287 534.821C339.901 534.491 339.056 533.812 337.804 533.387L335.717 539.543L333.629 545.699C332.597 545.349 331.965 544.809 331.839 544.702C331.761 544.634 331.725 544.598 331.766 544.638C331.806 544.676 331.86 544.73 331.972 544.841L336.553 540.229ZM335.717 539.543L337.801 533.386C336.345 532.893 334.795 532.857 333.316 533.284L335.118 539.529L336.921 545.774C336.438 545.914 335.88 546.001 335.27 545.987C334.66 545.973 334.107 545.86 333.632 545.7L335.717 539.543ZM335.118 539.529L333.314 533.285C332.039 533.653 331.161 534.297 330.763 534.608C330.394 534.896 330.025 535.237 329.886 535.363L334.252 540.178L338.618 544.993C338.736 544.886 338.793 544.834 338.836 544.797C338.879 544.758 338.843 544.793 338.762 544.856C338.634 544.956 337.975 545.47 336.922 545.774L335.118 539.529ZM334.252 540.178L329.886 535.363C320.84 543.565 308.499 548.656 294.823 548.656V555.156V561.656C311.759 561.656 327.205 555.342 338.618 544.993L334.252 540.178ZM294.823 555.156L294.823 548.656C281.102 548.656 268.723 543.53 259.669 535.278L255.291 540.082L250.913 544.886C262.337 555.298 277.83 561.656 294.823 561.656L294.823 555.156ZM255.291 540.082L259.669 535.278C259.534 535.155 259.176 534.823 258.814 534.539C258.421 534.23 257.575 533.608 256.351 533.235L254.457 539.453L252.563 545.671C251.554 545.364 250.92 544.869 250.787 544.764C250.706 544.701 250.668 544.666 250.708 544.701C250.747 544.735 250.8 544.784 250.913 544.886L255.291 540.082ZM254.457 539.453L256.348 533.234C254.919 532.799 253.413 532.799 251.984 533.234L253.875 539.453L255.766 545.672C255.3 545.814 254.76 545.908 254.166 545.908C253.572 545.908 253.032 545.814 252.566 545.672L254.457 539.453ZM253.875 539.453L251.981 533.235C250.757 533.608 249.911 534.23 249.518 534.539C249.156 534.823 248.798 535.155 248.663 535.278L253.041 540.082L257.419 544.886C257.532 544.784 257.585 544.735 257.624 544.701C257.664 544.666 257.626 544.701 257.545 544.764C257.412 544.869 256.778 545.364 255.769 545.671L253.875 539.453ZM253.041 540.082L248.663 535.278C239.609 543.53 227.23 548.656 213.509 548.656L213.509 555.156L213.509 561.656C230.502 561.656 245.995 555.298 257.419 544.886L253.041 540.082ZM213.509 555.156V548.656C199.786 548.656 187.407 543.53 178.353 535.278L173.975 540.082L169.596 544.886C181.021 555.299 196.515 561.656 213.509 561.656V555.156ZM173.975 540.082L178.353 535.278C178.218 535.155 177.86 534.823 177.498 534.539C177.104 534.23 176.259 533.608 175.034 533.235L173.141 539.453L171.247 545.671C170.238 545.364 169.604 544.869 169.47 544.764C169.39 544.701 169.352 544.666 169.391 544.701C169.43 544.735 169.484 544.784 169.596 544.886L173.975 540.082ZM173.141 539.453L175.032 533.234C173.602 532.799 172.097 532.799 170.667 533.234L172.559 539.453L174.45 545.672C173.984 545.814 173.443 545.908 172.85 545.908C172.256 545.908 171.715 545.814 171.249 545.672L173.141 539.453ZM172.559 539.453L170.665 533.235C169.44 533.608 168.595 534.23 168.201 534.539C167.839 534.823 167.481 535.155 167.346 535.278L171.725 540.082L176.103 544.886C176.215 544.784 176.269 544.735 176.308 544.701C176.348 544.665 176.31 544.701 176.229 544.764C176.095 544.869 175.461 545.364 174.452 545.671L172.559 539.453ZM171.725 540.082L167.346 535.278C158.292 543.53 145.913 548.656 132.191 548.656V555.156V561.656C149.185 561.656 164.678 555.299 176.103 544.886L171.725 540.082ZM132.191 555.156L132.191 548.656C118.725 548.656 106.551 543.72 97.545 535.736L93.2334 540.601L88.9218 545.465C100.282 555.534 115.515 561.656 132.191 561.656L132.191 555.156ZM93.2334 540.601L97.545 535.736C97.4041 535.612 97.0367 535.28 96.6651 534.998C96.2621 534.691 95.3967 534.075 94.1501 533.721L92.377 539.975L90.6038 546.228C89.5769 545.937 88.9276 545.446 88.7918 545.342C88.7091 545.279 88.6707 545.244 88.7114 545.28C88.7515 545.314 88.8067 545.363 88.9218 545.465L93.2334 540.601ZM92.377 539.975L94.1499 533.721C92.712 533.313 91.1851 533.335 89.7281 533.822L91.7871 539.987L93.8462 546.153C93.3688 546.312 92.8181 546.421 92.2158 546.433C91.6147 546.446 91.0695 546.36 90.604 546.228L92.377 539.975ZM91.7871 539.987L89.7255 533.823C88.4875 534.237 87.6479 534.9 87.2651 535.222C86.9117 535.518 86.5601 535.866 86.43 535.993L90.9609 540.653L95.4919 545.314C95.6042 545.205 95.6577 545.153 95.6983 545.114C95.7392 545.076 95.7035 545.111 95.6254 545.177C95.4999 545.282 94.8702 545.81 93.8487 546.152L91.7871 539.987ZM90.9609 540.653L86.4301 535.993C77.5126 544.662 65.3227 550.002 51.8584 550.002V556.502V563.002C68.832 563.002 84.2389 556.254 95.4918 545.314L90.9609 540.653ZM51.8584 556.502L52.7286 550.06C34.7443 547.631 25.5356 540.232 20.3732 531.083C14.916 521.411 13.4389 508.872 13.1015 495.199L6.60352 495.359L0.105493 495.52C0.448586 509.426 1.90028 524.797 9.05104 537.471C16.4966 550.667 29.5751 560.051 50.9882 562.943L51.8584 556.502ZM6.60352 495.359L12.7693 493.302C12.9137 493.735 12.9999 494.216 13 494.726L6.5 494.727L0 494.728C0.000142097 495.68 0.160499 496.586 0.437718 497.417L6.60352 495.359ZM6.5 494.727H13V206.5H6.5H0V494.727H6.5ZM6.5 206.5H13C13 99.6329 99.6329 13 206.5 13V6.5V0C92.4532 0 0 92.4532 0 206.5H6.5ZM206.5 6.5V13H220.516V6.5V0H206.5V6.5Z" fill="#E15F5F"/>
<path d="M136.5 169.502C139.814 169.502 142.5 172.188 142.5 175.502V200.502C142.5 203.815 139.814 206.502 136.5 206.502C133.186 206.502 130.5 203.815 130.5 200.502V175.502C130.5 172.188 133.186 169.502 136.5 169.502ZM286.5 169.502C289.814 169.502 292.5 172.188 292.5 175.502V200.502C292.5 203.815 289.814 206.502 286.5 206.502C283.186 206.502 280.5 203.815 280.5 200.502V175.502C280.5 172.188 283.186 169.502 286.5 169.502Z" fill="#E15F5F" stroke="#E15F5F" stroke-width="2"/>
<path d="M268.5 170.502C268.5 167.188 271.186 164.502 274.5 164.502H299.5C302.814 164.502 305.5 167.188 305.5 170.502C305.5 173.815 302.814 176.502 299.5 176.502H274.5C271.186 176.502 268.5 173.815 268.5 170.502ZM118.5 170.502C118.5 167.188 121.186 164.502 124.5 164.502H149.5C152.814 164.502 155.5 167.188 155.5 170.502C155.5 173.815 152.814 176.502 149.5 176.502H124.5C121.186 176.502 118.5 173.815 118.5 170.502Z" fill="#E15F5F" stroke="#E15F5F" stroke-width="2"/>
<path d="M228.5 191.213C211.879 176.931 215.121 176.931 198.5 191.213" stroke="#E15F5F" stroke-width="13" stroke-linecap="round"/>
<defs>
<linearGradient id="paint0_linear_12_231" x1="213.973" y1="6.5" x2="213.973" y2="556.502" gradientUnits="userSpaceOnUse">
<stop offset="0.394243" stop-color="#FFA2A2"/>
<stop offset="1" stop-color="#998585" stop-opacity="0"/>
</linearGradient>
</defs>
</svg>
