<svg width="434" height="567" viewBox="0 0 434 567" fill="none" xmlns="http://www.w3.org/2000/svg">
<path d="M223.258 8.16351C333.715 8.16356 423.258 97.7066 423.258 208.164V439.068C423.879 449.964 424.188 464.808 424.188 484.631C424.188 515.531 424.187 552.037 378.829 558.165C363.392 558.165 349.416 551.947 339.295 541.893C338.884 541.485 338.679 541.281 338.459 541.206C338.259 541.139 338.064 541.134 337.861 541.193C337.638 541.257 337.423 541.452 336.994 541.841C326.765 551.117 312.871 556.82 297.566 556.82C282.208 556.82 268.273 551.078 258.033 541.746C257.622 541.37 257.415 541.182 257.199 541.117C257.003 541.057 256.814 541.057 256.617 541.117C256.402 541.182 256.195 541.37 255.783 541.746C245.544 551.078 231.609 556.82 216.251 556.82C200.893 556.82 186.956 551.078 176.717 541.746C176.305 541.37 176.099 541.182 175.883 541.117C175.686 541.057 175.498 541.057 175.301 541.117C175.085 541.182 174.879 541.37 174.467 541.746C164.228 551.078 150.292 556.82 134.934 556.82C119.862 556.82 106.159 551.29 95.9759 542.264C95.5516 541.888 95.3391 541.7 95.1194 541.638C94.9187 541.581 94.7275 541.585 94.5296 541.651C94.3131 541.723 94.1098 541.922 93.7034 542.317C83.6182 552.121 69.8198 558.165 54.6009 558.165C15.2035 552.843 10.0264 524.602 9.34598 497.023C9.27958 496.824 9.2425 496.611 9.24246 496.39V208.164C9.24246 97.7066 98.7855 8.16351 209.242 8.16351H223.258Z" fill="url(#paint0_linear_12_231)" fill-opacity="0.5"/>
<path d="M237.374 10.5568L236.74 4.08769L237.374 10.5568ZM256.129 12.3223L255.364 5.86734L256.129 12.3223ZM265.649 12.7056L264.334 19.0712L265.649 12.7056ZM291.933 23.3651L295.022 17.6459L291.933 23.3651ZM300.543 27.0694L298.518 33.2461L300.543 27.0694ZM310.16 28.7254L309.914 35.2208L310.16 28.7254ZM328.04 35.5877L331.288 29.9575L328.04 35.5877ZM336.181 40.6382L332.579 46.0493L336.181 40.6382ZM349.013 55.221L346.517 61.2224L349.013 55.221ZM357.797 59.5009L354.607 65.1644L357.797 59.5009ZM364.258 66.4007L358.422 69.2633L364.258 66.4007ZM378.656 79.0829L372.78 81.8619L378.656 79.0829ZM388.828 95.4056L385.194 100.794L388.828 95.4056ZM393.743 103.425L387.298 104.268L393.743 103.425ZM398.939 111.523L395.396 116.973L398.939 111.523ZM404.849 119.126L398.619 120.982L404.849 119.126ZM406.768 128.73L413.231 128.037L406.768 128.73ZM410.342 137.592L405.208 141.578L410.342 137.592ZM414.048 146.301L407.609 147.19L414.048 146.301ZM420.306 183.697L426.403 181.444L420.306 183.697ZM423.073 192.926L429.405 191.455L423.073 192.926ZM423.353 202.387L429.761 203.474L423.353 202.387ZM424.318 230.887L418.031 232.538L424.318 230.887ZM422.365 249.867L415.865 249.796L422.365 249.867ZM422.042 268.847L428.506 268.158L422.042 268.847ZM423.607 325.787L417.328 324.107L423.607 325.787ZM421.937 354.257L427.904 351.678L421.937 354.257ZM422.29 363.747L428.41 365.937L422.29 363.747ZM424.518 382.727L418.396 384.91L424.518 382.727ZM422.78 430.177L416.43 431.568L422.78 430.177ZM424.556 439.625L430.978 438.619L424.556 439.625ZM425.337 506.242L418.934 507.362L425.337 506.242ZM418.488 524.203L424.929 525.078L418.488 524.203ZM411.454 541.19L405.801 537.982L411.454 541.19ZM396.376 551.518L400.356 556.656L396.376 551.518ZM369.355 558.589L368.039 564.954L369.355 558.589ZM350.713 553.085L346.883 558.337L350.713 553.085ZM335.448 543.856L335.301 550.354L335.448 543.856ZM321.288 553.858L321.876 560.331L321.288 553.858ZM311.331 554.131L311.586 547.637L311.331 554.131ZM301.93 554.2L301.561 547.711L301.93 554.2ZM283.166 554.673L281.555 548.376L283.166 554.673ZM274.293 552.453L269.786 557.138L274.293 552.453ZM258.807 544.769L259.778 538.342L258.807 544.769ZM250.734 545.384L252.08 551.743L250.734 545.384ZM241.568 548.404L244.354 554.277L241.568 548.404ZM224.503 556.572L221.022 551.082L224.503 556.572ZM172.523 545.582L177.223 550.071L172.523 545.582ZM165.383 549.736L167.464 555.893L165.383 549.736ZM156.62 554.29L152.793 549.036L156.62 554.29ZM137.548 554.835L135.976 548.528L137.548 554.835ZM128.217 556.109L128.029 549.612L128.217 556.109ZM102.515 545.874L97.3583 549.831L102.515 545.874ZM94.9238 543.372L96.8069 549.594L94.9238 543.372ZM86.581 547.652L82.6096 542.506L86.581 547.652ZM70.2279 558.089L73.462 563.727L70.2279 558.089ZM60.7616 558.735L58.4902 564.825L60.7616 558.735ZM42.3144 553.958L45.0455 548.059L42.3144 553.958ZM26.2797 545.499L32.3501 543.175L26.2797 545.499ZM16.8529 529.52L22.1307 525.726L16.8529 529.52ZM11.9189 521.363L17.7199 518.43L11.9189 521.363ZM10.9282 512.085L4.61747 510.528L10.9282 512.085ZM9.28634 265.388L15.2032 268.079L9.28634 265.388ZM8.65939 179.703L2.24784 178.634L8.65939 179.703ZM12.3878 160.868L6.2558 158.712H6.2558L12.3878 160.868ZM16.8793 152.204L11.5624 148.465L16.8793 152.204ZM20.5067 143.342L26.9298 144.339L20.5067 143.342ZM23.3702 134.33L17.5539 131.428L23.3702 134.33ZM28.5518 126.288L23.4963 122.202L28.5518 126.288ZM41.7979 101.32L47.3849 104.642L41.7979 101.32ZM46.7335 93.2683L41.2378 89.7973L46.7335 93.2683ZM52.4077 85.7381L47.5561 81.4123L52.4077 85.7381ZM65.6659 72.2969L70.907 76.1414L65.6659 72.2969ZM71.2244 64.5363L76.5505 68.2622L71.2244 64.5363ZM85.4194 52.0118L91.1897 55.0041L85.4194 52.0118ZM93.0601 46.6297L94.0169 53.0589L93.0601 46.6297ZM102.08 43.07L105.939 48.3004L102.08 43.07ZM109.403 37.0667L105.037 32.2508V32.2508L109.403 37.0667ZM143.746 22.1408L146.458 28.048L143.746 22.1408ZM152.078 17.2698L155.864 22.5537L152.078 17.2698ZM227.942 9.59248L226.046 15.8096C229.965 17.0051 233.968 17.4212 238.007 17.0258L237.374 10.5568L236.74 4.08769C234.45 4.31186 232.166 4.08512 229.839 3.37533L227.942 9.59248ZM237.374 10.5568L238.007 17.0258C240.314 16.8 242.555 17.0254 244.779 17.7089L246.688 11.4956L248.597 5.28229C244.732 4.09444 240.763 3.69395 236.74 4.08769L237.374 10.5568ZM246.688 11.4956L244.779 17.7089C248.712 18.9174 252.771 19.2651 256.893 18.7772L256.129 12.3223L255.364 5.86734C252.989 6.14848 250.754 5.94504 248.597 5.28229L246.688 11.4956ZM256.129 12.3223L256.893 18.7772C259.472 18.472 261.942 18.5772 264.334 19.0712L265.649 12.7056L266.964 6.34005C263.159 5.55394 259.283 5.40358 255.364 5.86734L256.129 12.3223ZM265.649 12.7056L264.334 19.0712C267.655 19.7574 271.027 20.272 274.448 20.616L275.098 14.1486L275.748 7.68122C272.766 7.38137 269.839 6.93398 266.964 6.34005L265.649 12.7056ZM275.098 14.1486L274.448 20.616C276.295 20.8018 278.012 21.4977 279.706 22.8932L283.839 17.8762L287.972 12.8593C284.414 9.92838 280.304 8.13926 275.748 7.68122L275.098 14.1486ZM283.839 17.8762L279.706 22.8932C282.631 25.3023 285.676 27.3731 288.844 29.0842L291.933 23.3651L295.022 17.6459C292.65 16.365 290.299 14.7765 287.972 12.8593L283.839 17.8762ZM291.933 23.3651L288.844 29.0842C291.952 30.7628 295.178 32.1512 298.518 33.2461L300.543 27.0694L302.567 20.8927C299.968 20.0406 297.454 18.9594 295.022 17.6459L291.933 23.3651ZM300.543 27.0694L298.518 33.2461C302.119 34.4261 305.929 35.0696 309.914 35.2208L310.16 28.7254L310.406 22.2301C307.509 22.1202 304.907 21.6597 302.567 20.8927L300.543 27.0694ZM310.16 28.7254L309.914 35.2208C312.506 35.3191 314.739 35.8941 316.705 36.8742L319.605 31.0572L322.506 25.2403C318.76 23.3723 314.696 22.3928 310.406 22.2301L310.16 28.7254ZM319.605 31.0572L316.705 36.8742C319.443 38.2394 322.138 39.6873 324.791 41.2179L328.04 35.5877L331.288 29.9575C328.407 28.2955 325.48 26.7231 322.506 25.2403L319.605 31.0572ZM328.04 35.5877L324.791 41.2179C327.438 42.745 330.034 44.3554 332.579 46.0493L336.181 40.6382L339.782 35.2271C337.006 33.3797 334.175 31.6231 331.288 29.9575L328.04 35.5877ZM336.181 40.6382L332.579 46.0493C334.048 47.0269 335.342 48.5237 336.352 50.8778L342.326 48.3147L348.299 45.7515C346.437 41.4117 343.634 37.7909 339.782 35.2271L336.181 40.6382ZM342.326 48.3147L336.352 50.8778C338.374 55.5887 341.75 59.2396 346.517 61.2224L349.013 55.221L351.51 49.2195C350.232 48.6879 349.15 47.7345 348.299 45.7515L342.326 48.3147ZM349.013 55.221L346.517 61.2224C349.303 62.3814 351.999 63.6954 354.607 65.1644L357.797 59.5009L360.987 53.8375C357.928 52.1143 354.768 50.5749 351.51 49.2195L349.013 55.221ZM357.797 59.5009L354.607 65.1644C356.262 66.0963 357.51 67.403 358.422 69.2633L364.258 66.4007L370.094 63.5382C368.06 59.3909 365 56.0978 360.987 53.8375L357.797 59.5009ZM364.258 66.4007L358.422 69.2633C360.687 73.879 364.454 77.0912 369.262 78.8584L371.504 72.7575L373.747 66.6565C371.84 65.9557 370.777 64.9301 370.094 63.5382L364.258 66.4007ZM371.504 72.7575L369.262 78.8584C371.167 79.5587 372.163 80.5566 372.78 81.8619L378.656 79.0829L384.532 76.3038C382.328 71.6432 378.556 68.4242 373.747 66.6565L371.504 72.7575ZM378.656 79.0829L372.78 81.8619C374.154 84.7669 375.46 87.6765 376.697 90.591L382.68 88.0513L388.663 85.5117C387.357 82.434 385.98 79.3647 384.532 76.3038L378.656 79.0829ZM382.68 88.0513L376.697 90.591C378.484 94.8005 381.377 98.2202 385.194 100.794L388.828 95.4056L392.463 90.0169C390.625 88.7775 389.42 87.2942 388.663 85.5117L382.68 88.0513ZM388.828 95.4056L385.194 100.794C386.445 101.639 387.085 102.64 387.298 104.268L393.743 103.425L400.188 102.583C399.502 97.3313 396.866 92.9864 392.463 90.0169L388.828 95.4056ZM393.743 103.425L387.298 104.268C388.004 109.671 390.853 114.02 395.396 116.973L398.939 111.523L402.481 106.074C400.996 105.108 400.381 104.058 400.188 102.583L393.743 103.425ZM398.939 111.523L395.396 116.973C397.266 118.189 398.182 119.514 398.619 120.982L404.849 119.126L411.078 117.271C409.663 112.52 406.639 108.777 402.481 106.074L398.939 111.523ZM404.849 119.126L398.619 120.982C399.43 123.704 399.993 126.515 400.305 129.424L406.768 128.73L413.231 128.037C412.836 124.358 412.12 120.767 411.078 117.271L404.849 119.126ZM406.768 128.73L400.305 129.424C400.787 133.916 402.438 138.01 405.208 141.578L410.342 137.592L415.476 133.605C414.187 131.945 413.456 130.132 413.231 128.037L406.768 128.73ZM410.342 137.592L405.208 141.578C406.559 143.318 407.329 145.158 407.609 147.19L414.048 146.301L420.487 145.412C419.886 141.059 418.185 137.094 415.476 133.605L410.342 137.592ZM414.048 146.301L407.609 147.19C408.129 150.957 409.14 154.59 410.639 158.071L416.609 155.499L422.579 152.927C421.545 150.528 420.848 148.028 420.487 145.412L414.048 146.301ZM416.609 155.499L410.639 158.071C411.673 160.47 412.359 162.946 412.705 165.513L419.147 164.645L425.589 163.777C425.084 160.031 424.079 156.409 422.579 152.927L416.609 155.499ZM419.147 164.645L412.705 165.513C413.055 168.112 413.075 170.771 412.751 173.503L419.206 174.268L425.661 175.032C426.109 171.248 426.089 167.492 425.589 163.777L419.147 164.645ZM419.206 174.268L412.751 173.503C412.246 177.764 412.728 181.942 414.209 185.95L420.306 183.697L426.403 181.444C425.646 179.395 425.394 177.288 425.661 175.032L419.206 174.268ZM420.306 183.697L414.209 185.95C415.234 188.724 416.078 191.539 416.742 194.397L423.073 192.926L429.405 191.455C428.616 188.063 427.615 184.725 426.403 181.444L420.306 183.697ZM423.073 192.926L416.742 194.397C417.272 196.678 417.341 198.962 416.944 201.3L423.353 202.387L429.761 203.474C430.444 199.448 430.327 195.424 429.405 191.455L423.073 192.926ZM423.353 202.387L416.944 201.3C416.414 204.423 415.842 207.538 415.227 210.643L421.603 211.906L427.979 213.169C428.617 209.946 429.211 206.715 429.761 203.474L423.353 202.387ZM421.603 211.906L415.227 210.643C414.41 214.766 414.529 218.907 415.567 222.995L421.867 221.397L428.167 219.798C427.599 217.56 427.543 215.373 427.979 213.169L421.603 211.906ZM421.867 221.397L415.567 222.995C416.374 226.176 417.195 229.357 418.031 232.538L424.318 230.887L430.604 229.235C429.778 226.09 428.966 222.944 428.167 219.798L421.867 221.397ZM424.318 230.887L418.031 232.538C418.536 234.459 418.482 236.338 417.821 238.331L423.99 240.377L430.16 242.423C431.598 238.089 431.762 233.641 430.604 229.235L424.318 230.887ZM423.99 240.377L417.821 238.331C416.572 242.097 415.907 245.926 415.865 249.796L422.365 249.867L428.864 249.938C428.891 247.481 429.311 244.983 430.16 242.423L423.99 240.377ZM422.365 249.867L415.865 249.796C415.832 252.805 415.693 255.816 415.446 258.827L421.925 259.357L428.403 259.887C428.674 256.571 428.828 253.255 428.864 249.938L422.365 249.867ZM421.925 259.357L415.446 258.827C415.154 262.397 415.199 265.969 415.579 269.536L422.042 268.847L428.506 268.158C428.211 265.398 428.177 262.643 428.403 259.887L421.925 259.357ZM422.042 268.847L415.579 269.536C415.897 272.519 416.089 275.5 416.155 278.48L422.653 278.337L429.151 278.193C429.078 274.847 428.862 271.501 428.506 268.158L422.042 268.847ZM422.653 278.337L416.155 278.48C416.237 282.201 416.793 285.899 417.807 289.561L424.071 287.827L430.336 286.093C429.598 283.428 429.209 280.799 429.151 278.193L422.653 278.337ZM424.071 287.827L417.807 289.561C418.337 291.475 418.299 293.333 417.657 295.299L423.836 297.317L430.014 299.335C431.438 294.974 431.558 290.506 430.336 286.093L424.071 287.827ZM423.836 297.317L417.657 295.299C416.438 299.03 415.765 302.816 415.667 306.641L422.165 306.807L428.663 306.973C428.727 304.471 429.167 301.93 430.014 299.335L423.836 297.317ZM422.165 306.807L415.667 306.641C415.568 310.519 416.1 314.365 417.232 318.156L423.46 316.297L429.689 314.438C428.932 311.902 428.6 309.422 428.663 306.973L422.165 306.807ZM423.46 316.297L417.232 318.156C417.835 320.177 417.861 322.115 417.328 324.107L423.607 325.787L429.886 327.467C431.046 323.132 430.974 318.744 429.689 314.438L423.46 316.297ZM423.607 325.787L417.328 324.107C416.307 327.922 415.9 331.783 416.134 335.667L422.622 335.277L429.11 334.887C428.964 332.444 429.214 329.979 429.886 327.467L423.607 325.787ZM422.622 335.277L416.134 335.667C416.274 337.994 415.979 340.358 415.203 342.795L421.397 344.767L427.591 346.738C428.828 342.849 429.351 338.886 429.11 334.887L422.622 335.277ZM421.397 344.767L415.203 342.795C413.701 347.514 414.007 352.292 415.971 356.835L421.937 354.257L427.904 351.678C427.133 349.895 427.079 348.346 427.591 346.738L421.397 344.767ZM421.937 354.257L415.971 356.835C416.703 358.529 416.731 359.988 416.17 361.557L422.29 363.747L428.41 365.937C430.113 361.179 429.906 356.311 427.904 351.678L421.937 354.257ZM422.29 363.747L416.17 361.557C414.63 365.859 414.339 370.299 415.382 374.727L421.709 373.237L428.036 371.747C427.589 369.847 427.685 367.962 428.41 365.937L422.29 363.747ZM421.709 373.237L415.382 374.727C416.184 378.132 417.19 381.527 418.396 384.91L424.518 382.727L430.641 380.544C429.591 377.6 428.724 374.668 428.036 371.747L421.709 373.237ZM424.518 382.727L418.396 384.91C419.324 387.515 419.836 390.058 419.965 392.554L426.457 392.217L432.948 391.879C432.749 388.049 431.967 384.265 430.641 380.544L424.518 382.727ZM426.457 392.217L419.965 392.554C420.126 395.638 420.229 398.721 420.275 401.804L426.774 401.707L433.273 401.61C433.225 398.366 433.116 395.123 432.948 391.879L426.457 392.217ZM426.774 401.707L420.275 401.804C420.298 403.377 419.803 405.256 418.248 407.549L423.628 411.197L429.008 414.844C431.743 410.811 433.345 406.364 433.273 401.61L426.774 401.707ZM423.628 411.197L418.248 407.549C415.387 411.769 413.93 416.528 414.638 421.588L421.075 420.687L427.513 419.785C427.335 418.519 427.58 416.951 429.008 414.844L423.628 411.197ZM421.075 420.687L414.638 421.588C415.105 424.918 415.702 428.245 416.43 431.568L422.78 430.177L429.129 428.786C428.471 425.782 427.932 422.782 427.513 419.785L421.075 420.687ZM422.78 430.177L416.43 431.568C417.096 434.606 417.664 437.627 418.134 440.631L424.556 439.625L430.978 438.619C430.466 435.352 429.849 432.074 429.129 428.786L422.78 430.177ZM424.556 439.625L418.134 440.631C418.529 443.153 418.564 445.695 418.233 448.278L424.68 449.104L431.127 449.931C431.613 446.145 431.565 442.368 430.978 438.619L424.556 439.625ZM424.68 449.104L418.233 448.278C417.76 451.966 417.723 455.654 418.127 459.329L424.588 458.619L431.049 457.91C430.759 455.267 430.784 452.611 431.127 449.931L424.68 449.104ZM424.588 458.619L418.127 459.329C418.36 461.45 418.109 463.628 417.286 465.933L423.407 468.12L429.528 470.307C430.973 466.263 431.51 462.107 431.049 457.91L424.588 458.619ZM423.407 468.12L417.286 465.933C415.73 470.286 415.482 474.778 416.63 479.238L422.924 477.618L429.219 475.998C428.742 474.143 428.815 472.302 429.528 470.307L423.407 468.12ZM422.924 477.618L416.63 479.238C417.336 481.982 417.752 484.708 417.885 487.421L424.378 487.101L430.87 486.781C430.691 483.165 430.138 479.568 429.219 475.998L422.924 477.618ZM424.378 487.101L417.885 487.421C418.035 490.45 418.089 493.481 418.047 496.515L424.547 496.603L431.046 496.692C431.091 493.386 431.032 490.082 430.87 486.781L424.378 487.101ZM424.547 496.603L418.047 496.515C417.998 500.106 418.297 503.724 418.934 507.362L425.337 506.242L431.739 505.121C431.236 502.247 431.008 499.44 431.046 496.692L424.547 496.603ZM425.337 506.242L418.934 507.362C419.134 508.506 418.953 509.651 417.664 511.194L422.653 515.361L427.641 519.529C431.071 515.423 432.679 510.49 431.739 505.121L425.337 506.242ZM422.653 515.361L417.664 511.194C414.67 514.779 412.658 518.834 412.047 523.327L418.488 524.203L424.929 525.078C425.153 523.431 425.917 521.592 427.641 519.529L422.653 515.361ZM418.488 524.203L412.047 523.327C411.723 525.709 411.04 527.947 409.996 530.067L415.826 532.94L421.657 535.812C423.327 532.423 424.418 528.836 424.929 525.078L418.488 524.203ZM415.826 532.94L409.996 530.067C408.696 532.705 407.298 535.344 405.801 537.982L411.454 541.19L417.107 544.398C418.726 541.546 420.243 538.684 421.657 535.812L415.826 532.94ZM411.454 541.19L405.801 537.982C405.013 539.37 403.947 540.288 402.352 540.877L404.603 546.975L406.854 553.072C411.278 551.439 414.778 548.502 417.107 544.398L411.454 541.19ZM404.603 546.975L402.352 540.877C398.737 542.212 395.408 544.045 392.395 546.379L396.376 551.518L400.356 556.656C402.296 555.154 404.453 553.959 406.854 553.072L404.603 546.975ZM396.376 551.518L392.395 546.379C390.27 548.025 387.946 549.48 385.413 550.739L388.306 556.56L391.199 562.38C394.473 560.753 397.529 558.846 400.356 556.656L396.376 551.518ZM388.306 556.56L385.413 550.739C383.25 551.814 380.952 552.459 378.474 552.673L379.033 559.149L379.593 565.625C383.67 565.273 387.554 564.192 391.199 562.38L388.306 556.56ZM379.033 559.149L378.474 552.673C375.814 552.903 373.22 552.751 370.672 552.224L369.355 558.589L368.039 564.954C371.839 565.74 375.697 565.962 379.593 565.625L379.033 559.149ZM369.355 558.589L370.672 552.224C367.401 551.547 364.076 550.937 360.697 550.394L359.664 556.811L358.632 563.229C361.826 563.743 364.962 564.318 368.039 564.954L369.355 558.589ZM359.664 556.811L360.697 550.394C358.418 550.027 356.393 549.183 354.543 547.834L350.713 553.085L346.883 558.337C350.394 560.898 354.337 562.538 358.632 563.229L359.664 556.811ZM350.713 553.085L354.543 547.834C351.966 545.954 349.475 544.021 347.07 542.034L342.931 547.046L338.792 552.058C341.402 554.214 344.099 556.306 346.883 558.337L350.713 553.085ZM342.931 547.046L347.07 542.034C343.788 539.324 339.934 537.455 335.595 537.357L335.448 543.856L335.301 550.354C335.924 550.368 337.059 550.627 338.792 552.058L342.931 547.046ZM335.448 543.856L335.595 537.357C329.638 537.222 325.7 541.236 323.376 545.435L329.063 548.582L334.75 551.73C335.35 550.647 335.772 550.283 335.858 550.219C335.884 550.2 335.827 550.247 335.688 550.293C335.545 550.34 335.404 550.356 335.301 550.354L335.448 543.856ZM329.063 548.582L323.376 545.435C322.557 546.916 321.788 547.286 320.7 547.384L321.288 553.858L321.876 560.331C327.605 559.811 332.02 556.664 334.75 551.73L329.063 548.582ZM321.288 553.858L320.7 547.384C317.555 547.67 314.518 547.752 311.586 547.637L311.331 554.131L311.075 560.626C314.602 560.765 318.203 560.665 321.876 560.331L321.288 553.858ZM311.331 554.131L311.586 547.637C308.161 547.502 304.819 547.525 301.561 547.711L301.93 554.2L302.3 560.69C305.117 560.529 308.041 560.507 311.075 560.626L311.331 554.131ZM301.93 554.2L301.561 547.711C298.911 547.862 296.279 547.775 293.66 547.452L292.864 553.903L292.067 560.354C295.462 560.773 298.875 560.885 302.3 560.69L301.93 554.2ZM292.864 553.903L293.66 547.452C289.719 546.965 285.662 547.325 281.555 548.376L283.166 554.673L284.777 560.97C287.587 560.251 289.995 560.098 292.067 560.354L292.864 553.903ZM283.166 554.673L281.555 548.376C280.155 548.734 279.545 548.486 278.799 547.769L274.293 552.453L269.786 557.138C273.956 561.149 279.262 562.381 284.777 560.97L283.166 554.673ZM274.293 552.453L278.799 547.769C275.806 544.89 272.448 542.631 268.728 541.071L266.214 547.066L263.701 553.06C265.836 553.955 267.863 555.288 269.786 557.138L274.293 552.453ZM266.214 547.066L268.728 541.071C265.549 539.739 262.528 538.757 259.778 538.342L258.807 544.769L257.836 551.196C259.107 551.388 261.025 551.938 263.701 553.06L266.214 547.066ZM258.807 544.769L259.778 538.342C256.643 537.868 253.067 538.246 249.388 539.025L250.734 545.384L252.08 551.743C255.143 551.094 256.95 551.062 257.836 551.196L258.807 544.769ZM250.734 545.384L249.388 539.025C245.586 539.83 242.038 540.987 238.782 542.531L241.568 548.404L244.354 554.277C246.577 553.222 249.14 552.365 252.08 551.743L250.734 545.384ZM241.568 548.404L238.782 542.531C236.167 543.772 233.501 544.936 230.785 546.022L233.197 552.057L235.61 558.093C238.576 556.907 241.491 555.635 244.354 554.277L241.568 548.404ZM233.197 552.057L230.785 546.022C227.523 547.325 224.268 549.024 221.022 551.082L224.503 556.572L227.983 562.061C230.647 560.372 233.189 559.06 235.61 558.093L233.197 552.057ZM224.503 556.572L221.022 551.082C219.158 552.264 217.405 552.682 215.596 552.556L215.146 559.041L214.696 565.525C219.452 565.855 223.936 564.627 227.983 562.061L224.503 556.572ZM215.146 559.041L215.596 552.556C213.82 552.433 212.074 551.766 210.249 550.234L206.07 555.213L201.891 560.191C205.602 563.307 209.907 565.193 214.696 565.525L215.146 559.041ZM206.07 555.213L210.249 550.234C206.527 547.109 202.196 545.233 197.373 545.046L197.122 551.542L196.871 558.037C198.441 558.097 200.076 558.668 201.891 560.191L206.07 555.213ZM197.122 551.542L197.373 545.046C195.926 544.99 194.871 544.509 193.857 543.401L189.062 547.789L184.267 552.178C187.606 555.826 191.924 557.846 196.871 558.037L197.122 551.542ZM189.062 547.789L193.857 543.401C190.484 539.715 186.07 537.712 181.111 537.157L180.388 543.616L179.664 550.076C181.917 550.328 183.287 551.107 184.267 552.178L189.062 547.789ZM180.388 543.616L181.111 537.157C176.586 536.65 171.479 537.264 167.822 541.092L172.523 545.582L177.223 550.071C177.078 550.223 177.003 550.183 177.292 550.111C177.643 550.023 178.383 549.933 179.664 550.076L180.388 543.616ZM172.523 545.582L167.822 541.092C167.138 541.808 165.797 542.734 163.302 543.578L165.383 549.736L167.464 555.893C171.214 554.626 174.633 552.783 177.223 550.071L172.523 545.582ZM165.383 549.736L163.302 543.578C159.542 544.848 156.034 546.675 152.793 549.036L156.62 554.29L160.447 559.544C162.644 557.943 164.978 556.733 167.464 555.893L165.383 549.736ZM156.62 554.29L152.793 549.036C151.962 549.641 151.114 549.906 149.423 549.328L147.323 555.48L145.223 561.631C150.489 563.429 155.839 562.9 160.447 559.544L156.62 554.29ZM147.323 555.48L149.423 549.328C144.971 547.809 140.426 547.419 135.976 548.528L137.548 554.835L139.12 561.142C140.747 560.736 142.719 560.777 145.223 561.631L147.323 555.48ZM137.548 554.835L135.976 548.528C133.398 549.17 130.752 549.533 128.029 549.612L128.217 556.109L128.406 562.606C132.046 562.501 135.621 562.014 139.12 561.142L137.548 554.835ZM128.217 556.109L128.029 549.612C125 549.7 121.887 549.683 118.691 549.56L118.442 556.056L118.192 562.551C121.667 562.684 125.071 562.703 128.406 562.606L128.217 556.109ZM118.442 556.056L118.691 549.56C116.7 549.484 115.006 548.872 113.431 547.661L109.471 552.816L105.511 557.971C109.225 560.824 113.512 562.371 118.192 562.551L118.442 556.056ZM109.471 552.816L113.431 547.661C111.227 545.968 109.313 544.055 107.672 541.917L102.515 545.874L97.3583 549.831C99.7022 552.885 102.425 555.6 105.511 557.971L109.471 552.816ZM102.515 545.874L107.672 541.917C106.064 539.822 103.92 538.038 101.157 537.128C98.3822 536.213 95.5893 536.38 93.0408 537.151L94.9238 543.372L96.8069 549.594C97.0804 549.511 97.2154 549.506 97.2347 549.505C97.2439 549.505 97.1825 549.505 97.0889 549.475C96.9964 549.444 96.9613 549.412 96.9921 549.436C97.0308 549.465 97.1607 549.573 97.3583 549.831L102.515 545.874ZM94.9238 543.372L93.0408 537.151C89.2304 538.304 85.7393 540.091 82.6096 542.506L86.581 547.652L90.5523 552.798C92.4092 551.365 94.48 550.298 96.8069 549.594L94.9238 543.372ZM86.581 547.652L82.6096 542.506C80.305 544.285 77.8846 545.951 75.347 547.505L78.7405 553.048L82.1339 558.592C85.0638 556.799 87.8705 554.867 90.5523 552.798L86.581 547.652ZM78.7405 553.048L75.347 547.505C72.6688 549.144 69.8845 550.793 66.9937 552.451L70.2279 558.089L73.462 563.727C76.4538 562.011 79.3446 560.3 82.1339 558.592L78.7405 553.048ZM70.2279 558.089L66.9937 552.451C65.842 553.112 64.717 553.273 63.033 552.645L60.7616 558.735L58.4902 564.825C63.5452 566.71 68.7311 566.441 73.462 563.727L70.2279 558.089ZM60.7616 558.735L63.033 552.645C59.2305 551.227 55.4752 550.293 51.7854 549.917L51.127 556.384L50.4686 562.85C52.8858 563.096 55.5537 563.73 58.4902 564.825L60.7616 558.735ZM51.127 556.384L51.7854 549.917C49.4589 549.68 47.2211 549.066 45.0455 548.059L42.3144 553.958L39.5834 559.856C43.0508 561.461 46.688 562.465 50.4686 562.85L51.127 556.384ZM42.3144 553.958L45.0455 548.059C41.6501 546.487 38.0132 545.399 34.1662 544.767L33.1123 551.181L32.0584 557.595C34.8379 558.052 37.3358 558.815 39.5834 559.856L42.3144 553.958ZM33.1123 551.181L34.1662 544.767C33.2281 544.613 32.8006 544.352 32.3501 543.175L26.2797 545.499L20.2094 547.823C22.2425 553.134 26.37 556.661 32.0584 557.595L33.1123 551.181ZM26.2797 545.499L32.3501 543.175C30.9697 539.57 29.3387 536.292 27.423 533.393L21.9999 536.976L16.5768 540.559C17.8839 542.537 19.1062 544.942 20.2094 547.823L26.2797 545.499ZM21.9999 536.976L27.423 533.393C25.7615 530.878 23.9972 528.323 22.1307 525.726L16.8529 529.52L11.5751 533.314C13.3485 535.781 15.0154 538.196 16.5768 540.559L21.9999 536.976ZM16.8529 529.52L22.1307 525.726C20.5158 523.48 19.0442 521.05 17.7199 518.43L11.9189 521.363L6.11797 524.295C7.73247 527.489 9.55026 530.498 11.5751 533.314L16.8529 529.52ZM11.9189 521.363L17.7199 518.43C16.9793 516.965 16.7875 515.471 17.2388 513.643L10.9282 512.085L4.61747 510.528C3.45096 515.255 3.91968 519.946 6.11797 524.295L11.9189 521.363ZM10.9282 512.085L17.2388 513.643C18.3779 509.027 18.0383 504.421 16.2088 500.037L10.2101 502.54L4.21146 505.043C4.95714 506.83 5.09627 508.588 4.61747 510.528L10.9282 512.085ZM10.2101 502.54L16.2088 500.037C15.2003 497.62 14.6712 495.244 14.5706 492.881L8.07651 493.157L1.58238 493.433C1.75153 497.409 2.64481 501.289 4.21146 505.043L10.2101 502.54ZM8.07651 493.157L14.5706 492.881C14.4689 490.49 14.7846 488.068 15.5558 485.586L9.34852 483.658L3.14123 481.729C1.94673 485.573 1.41442 489.485 1.58238 493.433L8.07651 493.157ZM9.34852 483.658L15.5558 485.586C16.7976 481.59 17.2027 477.511 16.7198 473.408L10.2644 474.168L3.80894 474.927C4.07061 477.151 3.86517 479.399 3.14123 481.729L9.34852 483.658ZM10.2644 474.168L16.7198 473.408C16.4454 471.076 16.6102 468.732 17.2424 466.335L10.9573 464.678L4.67212 463.02C3.63591 466.95 3.33884 470.933 3.80894 474.927L10.2644 474.168ZM10.9573 464.678L17.2424 466.335C18.429 461.835 18.1668 457.305 16.5449 452.929L10.45 455.188L4.35509 457.446C5.07792 459.397 5.15392 461.193 4.67212 463.02L10.9573 464.678ZM10.45 455.188L16.5449 452.929C15.8423 451.033 15.7878 449.292 16.3049 447.498L10.0592 445.698L3.81352 443.897C2.5069 448.43 2.71292 453.015 4.35509 457.446L10.45 455.188ZM10.0592 445.698L16.3049 447.498C17.7351 442.536 17.0149 437.621 14.5717 433.111L8.85643 436.208L3.14122 439.304C4.12541 441.12 4.207 442.532 3.81352 443.897L10.0592 445.698ZM8.85643 436.208L14.5717 433.111C13.705 431.512 13.6967 430.338 14.1887 429.073L8.13039 426.718L2.07203 424.363C0.104671 429.424 0.580456 434.577 3.14122 439.304L8.85643 436.208ZM8.13039 426.718L14.1887 429.073C15.9705 424.489 16.0777 419.733 14.4593 415.089L8.32137 417.228L2.18338 419.367C2.76974 421.049 2.74967 422.619 2.07203 424.363L8.13039 426.718ZM8.32137 417.228L14.4593 415.089C13.7376 413.017 13.6289 411.074 14.0546 409.125L7.70439 407.738L1.35415 406.35C0.397831 410.728 0.700447 415.111 2.18338 419.367L8.32137 417.228ZM7.70439 407.738L14.0546 409.125C14.937 405.086 14.9728 401.013 14.1577 396.965L7.7856 398.248L1.41347 399.531C1.87216 401.809 1.85386 404.063 1.35415 406.35L7.70439 407.738ZM7.7856 398.248L14.1577 396.965C13.6079 394.234 13.3482 391.52 13.3723 388.815L6.87252 388.758L0.372775 388.7C0.340504 392.322 0.689496 395.935 1.41347 399.531L7.7856 398.248ZM6.87252 388.758L13.3723 388.815C13.3879 387.057 13.9355 385.053 15.3981 382.722L9.89228 379.268L4.38648 375.813C1.87909 379.809 0.41347 384.132 0.372775 388.7L6.87252 388.758ZM9.89228 379.268L15.3981 382.722C17.9139 378.713 19.3697 374.368 19.3689 369.776L12.8689 369.778L6.36886 369.779C6.36919 371.513 5.8406 373.495 4.38648 375.813L9.89228 379.268ZM12.8689 369.778L19.3689 369.776C19.3682 366.184 19.0142 362.601 18.312 359.033L11.9343 360.288L5.55661 361.542C6.09934 364.301 6.36834 367.044 6.36886 369.779L12.8689 369.778ZM11.9343 360.288L18.312 359.033C17.6745 355.793 16.9763 352.553 16.2176 349.315L9.88894 350.798L3.56033 352.28C4.2839 355.369 4.94931 358.456 5.55661 361.542L11.9343 360.288ZM9.88894 350.798L16.2176 349.315C15.5841 346.611 15.2639 343.931 15.2471 341.266L8.7472 341.308L2.24733 341.349C2.27048 345.01 2.71143 348.657 3.56033 352.28L9.88894 350.798ZM8.7472 341.308L15.2471 341.266C15.2307 338.675 15.5513 336.064 16.2241 333.421L9.92493 331.818L3.62578 330.214C2.68823 333.898 2.22371 337.613 2.24733 341.349L8.7472 341.308ZM9.92493 331.818L16.2241 333.421C17.2638 329.336 17.3889 325.198 16.5809 321.077L10.2024 322.328L3.82381 323.578C4.25625 325.784 4.19639 327.972 3.62578 330.214L9.92493 331.818ZM10.2024 322.328L16.5809 321.077C15.895 317.578 14.9273 314.099 13.6847 310.64L7.56746 312.838L1.45023 315.035C2.48047 317.903 3.26934 320.75 3.82381 323.578L10.2024 322.328ZM7.56746 312.838L13.6847 310.64C12.9415 308.571 12.8221 306.64 13.2359 304.711L6.88045 303.348L0.524965 301.985C-0.417972 306.381 -0.0794601 310.777 1.45023 315.035L7.56746 312.838ZM6.88045 303.348L13.2359 304.711C13.8328 301.927 14.6955 299.118 15.835 296.279L9.80284 293.858L3.77071 291.436C2.3705 294.924 1.28489 298.441 0.524965 301.985L6.88045 303.348ZM9.80284 293.858L15.835 296.279C17.454 292.246 18.1427 288.069 17.7846 283.822L11.3076 284.368L4.83059 284.914C5.00588 286.993 4.69134 289.143 3.77071 291.436L9.80284 293.858ZM11.3076 284.368L17.7846 283.822C17.4605 279.976 16.5362 276.188 15.0567 272.473L9.01798 274.878L2.97922 277.282C4.01933 279.894 4.62146 282.433 4.83059 284.914L11.3076 284.368ZM9.01798 274.878L15.0567 272.473C14.4669 270.992 14.4802 269.668 15.2032 268.079L9.28634 265.388L3.36953 262.697C1.21513 267.434 1.04952 272.437 2.97922 277.282L9.01798 274.878ZM9.28634 265.388L15.2032 268.079C17.0848 263.941 17.8664 259.594 17.3527 255.151L10.8958 255.898L4.43877 256.644C4.65656 258.528 4.36523 260.507 3.36953 262.697L9.28634 265.388ZM10.8958 255.898L17.3527 255.151C16.8932 251.176 15.6964 247.3 13.8499 243.541L8.01593 246.408L2.18199 249.274C3.44377 251.842 4.16683 254.292 4.43877 256.644L10.8958 255.898ZM8.01593 246.408L13.8499 243.541C12.9559 241.722 12.8719 240.224 13.3056 238.732L7.06395 236.918L0.82228 235.103C-0.582999 239.938 -0.0323353 244.767 2.18199 249.274L8.01593 246.408ZM7.06395 236.918L13.3056 238.732C14.3865 235.013 14.9478 231.251 14.9665 227.46L8.46657 227.428L1.96665 227.396C1.95415 229.931 1.5804 232.495 0.82228 235.103L7.06395 236.918ZM8.46657 227.428L14.9665 227.46C14.9829 224.133 14.8743 220.807 14.6408 217.482L8.15676 217.938L1.67272 218.393C1.88349 221.394 1.98143 224.395 1.96665 227.396L8.46657 227.428ZM8.15676 217.938L14.6408 217.482C14.398 214.025 13.9194 210.563 13.2084 207.097L6.84099 208.403L0.473579 209.709C1.07264 212.629 1.47122 215.523 1.67272 218.393L8.15676 217.938ZM6.84099 208.403L13.2084 207.097C12.9863 206.014 13.1113 204.724 14.4795 202.864L9.24424 199.012L4.00895 195.159C0.862714 199.435 -0.614376 204.405 0.473579 209.709L6.84099 208.403ZM9.24424 199.012L14.4795 202.864C16.1648 200.574 17.3443 197.936 17.653 194.993C17.9631 192.037 17.3481 189.208 16.1145 186.626L10.2495 189.428L4.38448 192.23C4.73796 192.97 4.74889 193.399 4.72393 193.637C4.69753 193.889 4.5809 194.382 4.00895 195.159L9.24424 199.012ZM10.2495 189.428L16.1145 186.626C15.0142 184.323 14.7947 182.428 15.0709 180.771L8.65939 179.703L2.24784 178.634C1.47012 183.3 2.31077 187.889 4.38448 192.23L10.2495 189.428ZM8.65939 179.703L15.0709 180.771C15.6072 177.554 16.1019 174.328 16.5551 171.094L10.1179 170.192L3.68082 169.29C3.24321 172.413 2.76554 175.528 2.24784 178.634L8.65939 179.703ZM10.1179 170.192L16.5551 171.094C16.9404 168.344 17.5946 165.656 18.5198 163.025L12.3878 160.868L6.2558 158.712C5.04533 162.155 4.18625 165.683 3.68082 169.29L10.1179 170.192ZM12.3878 160.868L18.5198 163.025C19.382 160.572 20.5989 158.214 22.1963 155.943L16.8793 152.204L11.5624 148.465C9.30675 151.672 7.52928 155.091 6.2558 158.712L12.3878 160.868ZM16.8793 152.204L22.1963 155.943C24.6709 152.424 26.278 148.538 26.9298 144.339L20.5067 143.342L14.0836 142.345C13.752 144.482 12.9409 146.504 11.5624 148.465L16.8793 152.204ZM20.5067 143.342L26.9298 144.339C27.3197 141.827 28.0715 139.466 29.1864 137.232L23.3702 134.33L17.5539 131.428C15.8344 134.874 14.6771 138.522 14.0836 142.345L20.5067 143.342ZM23.3702 134.33L29.1864 137.232C30.3893 134.821 31.8595 132.536 33.6073 130.373L28.5518 126.288L23.4963 122.202C21.1697 125.081 19.1856 128.157 17.5539 131.428L23.3702 134.33ZM28.5518 126.288L33.6073 130.373C36.8832 126.32 38.0337 121.422 37.5447 116.28L31.0739 116.895L24.6031 117.51C24.8256 119.85 24.2948 121.214 23.4963 122.202L28.5518 126.288ZM31.0739 116.895L37.5447 116.28C37.453 115.315 37.6042 114.842 37.6979 114.635C37.782 114.45 37.9721 114.136 38.5744 113.734L34.964 108.329L31.3536 102.924C29.0067 104.491 27.0738 106.59 25.8612 109.26C24.6583 111.909 24.339 114.734 24.6031 117.51L31.0739 116.895ZM34.964 108.329L38.5744 113.734C42.2258 111.295 45.2228 108.279 47.3849 104.642L41.7979 101.32L36.2109 97.9984C35.1595 99.7666 33.6006 101.423 31.3536 102.924L34.964 108.329ZM41.7979 101.32L47.3849 104.642C48.9618 101.99 50.5765 99.3559 52.2292 96.7392L46.7335 93.2683L41.2378 89.7973C39.5231 92.5122 37.8475 95.2459 36.2109 97.9984L41.7979 101.32ZM46.7335 93.2683L52.2292 96.7392C53.7219 94.3757 55.3979 92.1515 57.2593 90.0638L52.4077 85.7381L47.5561 81.4123C45.2192 84.0333 43.1124 86.8293 41.2378 89.7973L46.7335 93.2683ZM52.4077 85.7381L57.2593 90.0638C59.1442 87.9498 61.182 85.979 63.3753 84.1503L59.2129 79.1579L55.0504 74.1656C52.3685 76.4016 49.8696 78.8176 47.5561 81.4123L52.4077 85.7381ZM59.2129 79.1579L63.3753 84.1503C66.2149 81.7828 68.7287 79.1109 70.907 76.1414L65.6659 72.2969L60.4248 68.4523C58.8742 70.5661 57.086 72.4683 55.0504 74.1656L59.2129 79.1579ZM65.6659 72.2969L70.907 76.1414C72.8007 73.5598 74.6819 70.9333 76.5505 68.2622L71.2244 64.5363L65.8982 60.8104C64.0844 63.4033 62.2599 65.9506 60.4248 68.4523L65.6659 72.2969ZM71.2244 64.5363L76.5505 68.2622C77.6909 66.632 79.1705 65.4098 81.1253 64.5507L78.5101 58.6L75.8949 52.6494C71.8179 54.4411 68.4403 57.1765 65.8982 60.8104L71.2244 64.5363ZM78.5101 58.6L81.1253 64.5507C85.5694 62.5976 88.9521 59.319 91.1897 55.0041L85.4194 52.0118L79.6492 49.0195C78.7062 50.838 77.4826 51.9516 75.8949 52.6494L78.5101 58.6ZM85.4194 52.0118L91.1897 55.0041C91.7914 53.8438 92.5145 53.2824 94.0169 53.0589L93.0601 46.6297L92.1033 40.2005C86.5988 41.0196 82.2281 44.0464 79.6492 49.0195L85.4194 52.0118ZM93.0601 46.6297L94.0169 53.0589C98.4271 52.4025 102.464 50.8641 105.939 48.3004L102.08 43.07L98.2208 37.8395C96.676 38.9794 94.7 39.814 92.1033 40.2005L93.0601 46.6297ZM102.08 43.07L105.939 48.3004C108.629 46.3156 111.239 44.1757 113.768 41.8826L109.403 37.0667L105.037 32.2508C102.823 34.2585 100.55 36.1207 98.2208 37.8395L102.08 43.07ZM109.403 37.0667L113.768 41.8826C115.863 39.9835 118.087 38.2952 120.442 36.8131L116.979 31.3121L113.517 25.811C110.514 27.701 107.687 29.8491 105.037 32.2508L109.403 37.0667ZM116.979 31.3121L120.442 36.8131C123.164 35.0998 125.883 33.3432 128.6 31.5432L125.01 26.1245L121.42 20.7059C118.787 22.4507 116.152 24.1524 113.517 25.811L116.979 31.3121ZM125.01 26.1245L128.6 31.5432C129.994 30.62 131.649 30.1375 133.856 30.2715L134.25 23.7834L134.644 17.2954C129.882 17.0062 125.377 18.0844 121.42 20.7059L125.01 26.1245ZM134.25 23.7834L133.856 30.2715C138.283 30.5403 142.533 29.8501 146.458 28.048L143.746 22.1408L141.034 16.2336C139.267 17.0449 137.185 17.4497 134.644 17.2954L134.25 23.7834ZM143.746 22.1408L146.458 28.048C149.704 26.5576 152.839 24.7205 155.864 22.5537L152.078 17.2698L148.293 11.9859C145.9 13.7003 143.48 15.1105 141.034 16.2336L143.746 22.1408ZM152.078 17.2698L155.864 22.5537C158.14 20.9228 160.507 19.6445 162.97 18.6981L160.638 12.6308L158.306 6.56348C154.773 7.92116 151.434 9.73557 148.293 11.9859L152.078 17.2698ZM160.638 12.6308L162.97 18.6981C164.944 17.9393 167.032 17.6727 169.336 17.9454L170.1 11.4905L170.864 5.03553C166.546 4.52451 162.327 5.01812 158.306 6.56348L160.638 12.6308ZM170.1 11.4905L169.336 17.9454C173.308 18.4156 177.219 18.2674 181.037 17.4644L179.7 11.1035L178.362 4.7427C176.001 5.23925 173.512 5.34905 170.864 5.03553L170.1 11.4905ZM179.7 11.1035L181.037 17.4644C183.864 16.8698 186.715 16.4525 189.592 16.212L189.051 9.73461L188.509 3.2572C185.097 3.54241 181.714 4.03768 178.362 4.7427L179.7 11.1035ZM189.051 9.73461L189.592 16.212C193.345 15.8983 197.047 15.0614 200.684 13.729L198.448 7.62566L196.212 1.52231C193.608 2.47622 191.045 3.04527 188.509 3.2572L189.051 9.73461ZM198.448 7.62566L200.684 13.729C202.733 12.9782 204.704 12.8195 206.717 13.197L207.915 6.80836L209.113 0.419665C204.744 -0.399359 200.403 -0.0131178 196.212 1.52231L198.448 7.62566ZM207.915 6.80836L206.717 13.197C210.188 13.8478 213.656 14.2625 217.118 14.4379L217.447 7.94628L217.776 1.45461C214.911 1.30941 212.024 0.965482 209.113 0.419665L207.915 6.80836ZM217.447 7.94628L217.118 14.4379C220.087 14.5885 222.204 14.6881 222.867 14.6736L222.725 8.17516L222.583 1.6767C222.699 1.67416 222.698 1.67811 222.406 1.66863C222.175 1.66116 221.85 1.64848 221.42 1.62986C220.564 1.59274 219.352 1.53451 217.776 1.45461L217.447 7.94628ZM222.725 8.17516L222.867 14.6736C222.535 14.6809 222.281 14.659 222.168 14.6478C222.036 14.6348 221.94 14.6202 221.896 14.613C221.809 14.5992 221.782 14.5915 221.843 14.6051C221.962 14.6314 222.199 14.6896 222.592 14.7963C223.365 15.0064 224.506 15.3399 226.046 15.8096L227.942 9.59248L229.839 3.37533C228.256 2.8924 226.966 2.51338 226 2.25099C225.523 2.12147 225.064 2.00353 224.659 1.91365C224.533 1.88576 223.588 1.65476 222.583 1.6767L222.725 8.17516Z" fill="#E15F5F"/>
<path d="M139.242 146.165C141.039 146.165 142.563 147.207 143.597 148.684C144.633 150.164 145.242 152.155 145.242 154.308V190.023C145.242 192.175 144.633 194.166 143.597 195.647C142.563 197.124 141.039 198.165 139.242 198.165C137.446 198.165 135.922 197.124 134.888 195.647C133.852 194.166 133.243 192.175 133.242 190.023V154.308C133.243 152.155 133.852 150.164 134.888 148.684C135.922 147.207 137.446 146.165 139.242 146.165ZM289.242 146.165C291.039 146.165 292.563 147.207 293.597 148.684C294.633 150.164 295.242 152.155 295.242 154.308V190.023C295.242 192.175 294.633 194.166 293.597 195.647C292.563 197.124 291.039 198.165 289.242 198.165C287.446 198.165 285.922 197.124 284.888 195.647C283.852 194.166 283.243 192.175 283.242 190.023V154.308C283.243 152.155 283.852 150.164 284.888 148.684C285.922 147.207 287.446 146.165 289.242 146.165Z" fill="#E15F5F" stroke="#E15F5F" stroke-width="2"/>
<path d="M231.242 192.877C214.621 178.595 217.864 178.595 201.242 192.877" stroke="#E15F5F" stroke-width="13" stroke-linecap="round"/>
<defs>
<linearGradient id="paint0_linear_12_231" x1="216.715" y1="8.16351" x2="216.715" y2="558.165" gradientUnits="userSpaceOnUse">
<stop offset="0.394243" stop-color="#FFA2A2"/>
<stop offset="1" stop-color="#998585" stop-opacity="0"/>
</linearGradient>
</defs>
</svg>
